<?xml version="1.0" encoding="UTF-8" standalone="no"?>
<!-- Created with Inkscape (http://www.inkscape.org/) -->

<svg
   width="400"
   height="400"
   viewBox="0 0 105.83333 105.83333"
   version="1.1"
   id="svg1"
   inkscape:version="1.3 (0e150ed6c4, 2023-07-21)"
   sodipodi:docname="dhd-monitor-status.svg"
   inkscape:export-filename="dhd-monitor-status.png"
   inkscape:export-xdpi="245.75999"
   inkscape:export-ydpi="245.75999"
   xmlns:inkscape="http://www.inkscape.org/namespaces/inkscape"
   xmlns:sodipodi="http://sodipodi.sourceforge.net/DTD/sodipodi-0.dtd"
   xmlns="http://www.w3.org/2000/svg"
   xmlns:svg="http://www.w3.org/2000/svg">
  <sodipodi:namedview
     id="namedview1"
     pagecolor="#ffffff"
     bordercolor="#000000"
     borderopacity="0.25"
     inkscape:showpageshadow="2"
     inkscape:pageopacity="0.0"
     inkscape:pagecheckerboard="0"
     inkscape:deskcolor="#d1d1d1"
     inkscape:document-units="px"
     inkscape:zoom="1.4142136"
     inkscape:cx="175.00893"
     inkscape:cy="191.62594"
     inkscape:window-width="1866"
     inkscape:window-height="1011"
     inkscape:window-x="0"
     inkscape:window-y="0"
     inkscape:window-maximized="1"
     inkscape:current-layer="layer1" />
  <defs
     id="defs1" />
  <g
     inkscape:label="Layer 1"
     inkscape:groupmode="layer"
     id="layer1">
    <path
       style="font-weight:bold;font-size:14.7042px;font-family:'URW Gothic L';-inkscape-font-specification:'URW Gothic L';fill:#1a1a1a;stroke-width:0.787725;stroke-linecap:round"
       d="M 8.6956621,45.122593 V 34.252398 h 2.4842059 q 2.556003,0 3.848364,0.789777 1.134407,0.6749 1.751868,1.909823 0.617462,1.220563 0.617462,2.757037 0,1.651351 -0.703619,2.929352 -0.703619,1.263642 -1.967261,1.881104 -1.191845,0.603102 -3.503736,0.603102 z m 2.0103399,-1.924182 h 0.445147 q 1.794946,0 2.64216,-0.488226 0.732339,-0.402068 1.148766,-1.206204 0.430787,-0.818495 0.430787,-1.794946 0,-1.048249 -0.445147,-1.866744 -0.445146,-0.818496 -1.220563,-1.220564 -0.847215,-0.445146 -2.599082,-0.445146 h -0.402068 z m 8.271112,1.924182 V 34.252398 h 2.01034 v 10.870195 z m 3.202185,0 4.537624,-10.870195 h 1.579552 l 4.566344,10.870195 H 30.637085 L 29.47396,42.308117 h -3.862724 l -1.206204,2.814476 z m 4.164275,-4.738658 h 2.32625 l -1.163125,-3.288342 z m 7.610572,4.738658 V 34.252398 h 2.01034 v 8.946013 h 3.31706 v 1.924182 z m 6.461807,0 V 34.252398 h 2.01034 v 10.870195 z m 4.106838,0 V 34.252398 h 2.283172 l 4.508905,7.912123 v -7.912123 h 2.01034 v 10.870195 h -2.254453 l -4.537624,-7.897764 v 7.897764 z m 14.890874,-3.66169 v -1.881104 h 7.107987 v 0.258472 q 0,2.168295 -1.565193,3.805286 -1.622632,1.66571 -4.121197,1.66571 -2.498565,0 -4.207354,-1.622631 -1.694429,-1.636991 -1.694429,-4.02068 0,-2.34061 1.66571,-3.963241 1.66571,-1.636991 4.049399,-1.636991 1.780587,0 3.273982,0.962091 1.507755,0.947732 2.039059,2.412408 H 63.5923 q -1.01953,-1.435957 -2.986791,-1.435957 -1.636991,0 -2.627801,1.076968 -0.459506,0.488225 -0.746698,1.206204 -0.272832,0.703618 -0.272832,1.407237 0,1.550834 1.076968,2.613442 1.091327,1.062608 2.68524,1.062608 1.062608,0 1.895463,-0.502585 0.847215,-0.502585 1.292361,-1.407237 z"
       id="text2"
       aria-label="DIALING" />
    <path
       style="font-weight:bold;font-size:14.7042px;font-family:'URW Gothic L';-inkscape-font-specification:'URW Gothic L';fill:#1a1a1a;stroke-width:0.787725;stroke-linecap:round"
       d="M 8.6956621,18.664263 V 7.7940682 H 10.706002 V 18.664263 Z m 4.1068369,0 V 7.7940682 h 2.283172 l 4.508905,7.9121228 V 7.7940682 h 2.01034 V 18.664263 h -2.254453 l -4.537624,-7.897764 v 7.897764 z m 9.879385,0 4.537624,-10.8701948 h 1.579553 l 4.566343,10.8701948 h -2.225733 l -1.163125,-2.814476 h -3.862725 l -1.206204,2.814476 z m 4.164275,-4.738658 h 2.326251 l -1.163125,-3.288342 z m 14.876515,1.708788 h 2.369329 q -0.631821,1.479036 -1.995981,2.35497 -1.349799,0.861574 -3.015509,0.861574 -2.383689,0 -4.049399,-1.65135 -1.66571,-1.651351 -1.66571,-4.00632 0,-2.311891 1.636991,-3.9488822 1.65135,-1.636991 3.948882,-1.636991 2.039058,0 3.604252,1.2492826 0.545663,0.4451467 0.875933,0.8902933 0.330271,0.4451463 0.660541,1.1631253 H 41.85191 q -1.033889,-1.3641592 -2.857555,-1.3641592 -1.694429,0 -2.713959,1.1918442 -0.890293,1.033889 -0.890293,2.469846 0,1.522115 1.076968,2.613442 1.076968,1.091327 2.570363,1.091327 0.789776,0 1.407238,-0.287191 0.631821,-0.301551 1.278002,-0.990811 z m 4.767377,3.02987 V 9.7182506 h -2.01034 V 7.7940682 h 6.045379 v 1.9241824 h -2.01034 v 8.9460124 z m 5.068927,0 V 7.7940682 h 2.010339 V 18.664263 Z m 7.452618,0 -4.236073,-10.8701948 h 2.125216 l 2.914993,8.2711128 2.929352,-8.2711128 H 64.8703 L 60.662946,18.664263 Z m 6.935672,0 V 7.7940682 h 5.829986 v 1.9241824 h -3.819646 v 2.5703634 h 3.66169 v 1.924182 h -3.66169 v 2.527284 h 3.819646 v 1.924183 z"
       id="text1"
       aria-label="INACTIVE" />
    <path
       style="font-weight:bold;font-size:14.7042px;font-family:'URW Gothic L';-inkscape-font-specification:'URW Gothic L';fill:#1a1a1a;stroke-width:0.787725;stroke-linecap:round"
       d="m 13.865107,60.524056 q 2.326251,0 3.948882,1.651351 1.636991,1.636991 1.636991,3.963241 0,2.383689 -1.622631,4.00632 -1.608272,1.622631 -3.977601,1.622631 -2.383689,0 -4.049399,-1.622631 -1.6657102,-1.636991 -1.6657102,-3.991961 0,-2.383688 1.6513506,-4.00632 1.6513506,-1.622631 4.0781176,-1.622631 z m -0.02872,1.938542 q -1.565193,0 -2.627801,1.062608 -1.048249,1.062608 -1.048249,2.627801 0,1.536474 1.062608,2.613442 1.076968,1.062608 2.613442,1.062608 1.536474,0 2.556004,-1.048248 1.033889,-1.048249 1.033889,-2.613442 0,-1.565193 -1.048249,-2.627801 -1.033889,-1.076968 -2.541644,-1.076968 z m 7.208505,-1.751868 h 2.01034 v 6.878234 q 0,1.048249 0.258472,1.507755 0.430787,0.732338 1.407238,0.732338 0.947731,0 1.378519,-0.732338 0.258472,-0.459506 0.258472,-1.507755 V 60.71073 h 2.024699 v 6.878234 q 0,1.794947 -0.746697,2.785757 -0.488226,0.646181 -1.278002,1.01953 -0.775417,0.373348 -1.651351,0.373348 -0.947731,0 -1.780586,-0.430787 -0.818496,-0.430787 -1.292362,-1.177484 -0.588742,-0.933373 -0.588742,-2.570364 z m 10.511205,10.870195 v -8.946012 h -2.01034 V 60.71073 h 6.045379 v 1.924183 h -2.010339 v 8.946012 z m 8.658821,-3.66169 v -1.881104 h 7.107987 v 0.258472 q 0,2.168295 -1.565193,3.805286 -1.622631,1.66571 -4.121196,1.66571 -2.498566,0 -4.207355,-1.622631 -1.694429,-1.636991 -1.694429,-4.02068 0,-2.34061 1.66571,-3.963241 1.66571,-1.636991 4.049399,-1.636991 1.780587,0 3.273982,0.962091 1.507755,0.947732 2.039059,2.412408 h -2.369329 q -1.019529,-1.435957 -2.986791,-1.435957 -1.636991,0 -2.627801,1.076968 -0.459506,0.488225 -0.746698,1.206204 -0.272831,0.703619 -0.272831,1.407237 0,1.550834 1.076967,2.613442 1.091328,1.062608 2.68524,1.062608 1.062608,0 1.895463,-0.502585 0.847215,-0.502584 1.292362,-1.407237 z m 13.598514,-7.395179 q 2.326251,0 3.948882,1.651351 1.636991,1.636991 1.636991,3.963241 0,2.383689 -1.622631,4.00632 -1.608272,1.622631 -3.977601,1.622631 -2.383689,0 -4.049399,-1.622631 -1.66571,-1.636991 -1.66571,-3.991961 0,-2.383688 1.65135,-4.00632 1.651351,-1.622631 4.078118,-1.622631 z m -0.02872,1.938542 q -1.565193,0 -2.627801,1.062608 -1.048249,1.062608 -1.048249,2.627801 0,1.536474 1.062609,2.613442 1.076967,1.062608 2.613441,1.062608 1.536474,0 2.556004,-1.048248 1.033889,-1.048249 1.033889,-2.613442 0,-1.565193 -1.048249,-2.627801 -1.033889,-1.076968 -2.541644,-1.076968 z m 7.208502,9.118327 V 60.71073 h 2.01034 v 10.870195 z m 4.106838,0 V 60.71073 h 2.283172 l 4.508905,7.912124 V 60.71073 h 2.01034 v 10.870195 h -2.254453 l -4.537624,-7.897764 v 7.897764 z m 14.890878,-3.66169 v -1.881104 h 7.107987 v 0.258472 q 0,2.168295 -1.565193,3.805286 -1.622632,1.66571 -4.121197,1.66571 -2.498565,0 -4.207354,-1.622631 -1.694429,-1.636991 -1.694429,-4.02068 0,-2.34061 1.66571,-3.963241 1.66571,-1.636991 4.049399,-1.636991 1.780586,0 3.273982,0.962091 1.507754,0.947732 2.039058,2.412408 h -2.369329 q -1.019529,-1.435957 -2.98679,-1.435957 -1.636991,0 -2.627801,1.076968 -0.459507,0.488225 -0.746698,1.206204 -0.272832,0.703619 -0.272832,1.407237 0,1.550834 1.076968,2.613442 1.091327,1.062608 2.685239,1.062608 1.062609,0 1.895464,-0.502585 0.847214,-0.502584 1.292361,-1.407237 z"
       id="text3"
       aria-label="OUTGOING" />
    <path
       style="font-weight:bold;font-size:14.7042px;font-family:'URW Gothic L';-inkscape-font-specification:'URW Gothic L';fill:#1a1a1a;stroke-width:0.787725;stroke-linecap:round"
       d="M 8.6956621,98.039261 V 87.169066 h 2.0103399 v 10.870195 z m 4.1068369,0 V 87.169066 h 2.283172 l 4.508905,7.912123 v -7.912123 h 2.01034 v 10.870195 h -2.254453 l -4.537624,-7.897764 v 7.897764 z m 18.767959,-3.029869 h 2.369329 q -0.631821,1.479035 -1.995981,2.354969 -1.349799,0.861574 -3.015509,0.861574 -2.383689,0 -4.049399,-1.65135 -1.66571,-1.651351 -1.66571,-4.00632 0,-2.311891 1.636991,-3.948882 1.65135,-1.636991 3.948882,-1.636991 2.039059,0 3.604252,1.249282 0.545663,0.445147 0.875933,0.890294 0.330271,0.445147 0.660541,1.163125 h -2.240093 q -1.033889,-1.364159 -2.857555,-1.364159 -1.694429,0 -2.713958,1.191844 -0.890294,1.033889 -0.890294,2.469846 0,1.522115 1.076968,2.613442 1.076968,1.091327 2.570363,1.091327 0.789776,0 1.407238,-0.287191 0.631821,-0.301551 1.278002,-0.99081 z m 8.744978,-8.027 q 2.32625,0 3.948882,1.65135 1.636991,1.636991 1.636991,3.963242 0,2.383688 -1.622632,4.00632 -1.608271,1.622631 -3.9776,1.622631 -2.383689,0 -4.049399,-1.622631 -1.66571,-1.636991 -1.66571,-3.991961 0,-2.383688 1.65135,-4.00632 1.651351,-1.622631 4.078118,-1.622631 z m -0.02872,1.938542 q -1.565193,0 -2.627801,1.062608 -1.048249,1.062608 -1.048249,2.627801 0,1.536474 1.062608,2.613442 1.076968,1.062608 2.613442,1.062608 1.536474,0 2.556003,-1.048248 1.03389,-1.048249 1.03389,-2.613442 0,-1.565193 -1.048249,-2.627801 -1.033889,-1.076968 -2.541644,-1.076968 z m 7.208506,9.118327 V 87.169066 h 2.757037 l 2.929352,8.242394 2.900634,-8.242394 h 2.757037 v 10.870195 h -2.01034 v -8.141876 l -2.843195,8.141876 h -1.636991 l -2.843195,-8.141876 v 8.141876 z m 13.225162,0 V 87.169066 h 2.01034 v 10.870195 z m 4.106838,0 V 87.169066 h 2.283172 l 4.508905,7.912123 v -7.912123 h 2.01034 v 10.870195 h -2.254453 l -4.537624,-7.897764 v 7.897764 z M 79.718097,94.37757 v -1.881103 h 7.107987 v 0.258472 q 0,2.168295 -1.565193,3.805286 -1.622632,1.66571 -4.121197,1.66571 -2.498565,0 -4.207354,-1.622631 -1.694429,-1.636991 -1.694429,-4.02068 0,-2.34061 1.66571,-3.963241 1.66571,-1.636991 4.049399,-1.636991 1.780586,0 3.273982,0.962091 1.507755,0.947732 2.039059,2.412408 h -2.369329 q -1.01953,-1.435957 -2.986791,-1.435957 -1.636991,0 -2.627801,1.076968 -0.459507,0.488225 -0.746698,1.206203 -0.272832,0.703619 -0.272832,1.407238 0,1.550834 1.076968,2.613442 1.091327,1.062608 2.68524,1.062608 1.062608,0 1.895463,-0.502585 0.847215,-0.502585 1.292361,-1.407238 z"
       id="text4"
       aria-label="INCOMING" />
  </g>
</svg>
