<?xml version="1.0" encoding="UTF-8" standalone="no"?>
<!-- Created with Inkscape (http://www.inkscape.org/) -->

<svg
   width="80cm"
   height="80cm"
   viewBox="0 0 800 800.00001"
   version="1.1"
   id="svg1"
   xml:space="preserve"
   inkscape:version="1.3 (0e150ed6c4, 2023-07-21)"
   sodipodi:docname="dhd-face.svg"
   inkscape:export-filename="dhd-face_1024x1024.png"
   inkscape:export-xdpi="32.512001"
   inkscape:export-ydpi="32.512001"
   xmlns:inkscape="http://www.inkscape.org/namespaces/inkscape"
   xmlns:sodipodi="http://sodipodi.sourceforge.net/DTD/sodipodi-0.dtd"
   xmlns="http://www.w3.org/2000/svg"
   xmlns:svg="http://www.w3.org/2000/svg"><sodipodi:namedview
     id="namedview1"
     pagecolor="#adadad"
     bordercolor="#000000"
     borderopacity="0.25"
     inkscape:showpageshadow="2"
     inkscape:pageopacity="0.0"
     inkscape:pagecheckerboard="0"
     inkscape:deskcolor="#d1d1d1"
     inkscape:document-units="cm"
     inkscape:zoom="0.18217943"
     inkscape:cx="924.9123"
     inkscape:cy="1635.75"
     inkscape:window-width="1920"
     inkscape:window-height="1023"
     inkscape:window-x="0"
     inkscape:window-y="0"
     inkscape:window-maximized="1"
     inkscape:current-layer="layer1"
     showgrid="false" /><defs
     id="defs1" /><g
     inkscape:label="Layer 1"
     inkscape:groupmode="layer"
     id="layer1"><rect
       style="fill:#9a9a9a;fill-opacity:1;stroke:none;stroke-width:5.02708;stroke-dasharray:none;stroke-opacity:1"
       id="rect55"
       width="800"
       height="800"
       x="0"
       y="0" /><path
       id="path1"
       style="opacity:0.649412;fill:#ffe192;stroke-width:0.535822;fill-opacity:1"
       d="M 399.99987 0 A 400 400 0 0 0 0 399.99987 A 400 400 0 0 0 135.75605 699.99965 A 400 400 0 0 1 399.99987 600.00007 A 400 400 0 0 1 664.32896 699.9149 A 400 400 0 0 0 799.99975 399.99987 A 400 400 0 0 0 399.99987 0 z " /><path
       id="rect1"
       style="fill:#1a1a1a;stroke:#000000;stroke-width:2.54635;stroke-linecap:round;stroke-linejoin:round;stroke-dasharray:none;stroke-opacity:1"
       d="m 129.02207,205.89125 v 62.26229 h 3.89186 v -31.20715 c 15.19097,-1.00679 27.23928,-13.67321 27.23928,-29.11324 v -1.9381 h -3.89567 a 23.339716,26.844289 0 0 1 -1.01477,7.83219 c -0.66401,2.76529 -1.77265,5.34117 -3.25336,7.64978 a 23.339716,26.844289 0 0 1 -0.0494,0.076 23.339716,26.844289 0 0 1 -19.01846,11.28656 v -3.59498 c 10.88526,-0.99264 19.44795,-10.17412 19.44795,-21.31145 v -1.9381 h -4.35554 a 15.094241,18.643065 0 0 1 -0.38007,4.15741 c -0.41354,2.90754 -1.48712,5.53271 -3.08233,7.72958 a 15.094241,18.643065 0 0 1 -11.63,6.75674 v -14.74853 -3.8952 h -0.008 v -0.004 z" /><path
       style="color:#000000;fill:#1a1a1a;stroke:#000000;stroke-width:2.54635;stroke-linejoin:bevel;stroke-dasharray:none;stroke-opacity:1"
       d="m 182.38281,205.89125 -2.77264,1.75225 v 60.51004 h 3.8932 v -57.43642 l 23.34476,10.9731 v 46.46332 h 3.89319 v -47.69851 l -1.12055,-1.75225 z"
       id="path6" /><path
       id="rect7"
       style="fill:#1a1a1a;fill-opacity:1;stroke:#000000;stroke-width:2.54635;stroke-linecap:round;stroke-linejoin:bevel;stroke-dasharray:none;stroke-opacity:1"
       d="m 230.19828,205.89125 v 62.26229 h 3.89139 v -23.44336 l 1.23887,-0.88165 26.00088,-18.03949 -0.45982,-3.43157 -25.79947,-8.97985 -0.98046,-0.33821 v -7.14816 z m 3.89139,11.26756 21.88149,7.61178 -21.88149,15.17795 z" /><path
       id="path13"
       style="color:#000000;fill:#000000;stroke:#000000;stroke-width:2.54635;stroke-dasharray:none;stroke-opacity:1"
       d="m 129.02208,293.44759 v 62.26609 h 3.89139 v -38.10449 l 23.34836,14.03409 v 24.0704 h 3.89139 v -62.26609 h -3.89139 v 33.66207 l -23.34836,-14.0569 v -19.60517 z" /><path
       id="path16"
       style="color:#000000;fill:#000000;stroke:#000000;stroke-width:2.54635;stroke-dasharray:none;stroke-opacity:1"
       d="m 193.23006,293.44759 v 16.28761 l -11.39296,-7.9424 -2.22691,3.18837 13.61987,9.49667 v 41.23203 h 3.8914 v -38.5187 l 11.39296,7.94239 2.22691,-3.19215 -13.61987,-9.49288 v -19.00094 z" /><path
       id="path18"
       style="color:#000000;fill:#000000;stroke:#000000;stroke-width:2.54635;stroke-linejoin:bevel;stroke-dasharray:none;stroke-opacity:1"
       d="m 246.96473,293.44759 -16.76643,20.96944 0.0988,2.54233 16.76643,17.94069 2.84634,-2.66014 -15.61877,-16.70182 15.71758,-19.66218 z m -2.50053,20.79843 -2.84633,2.65633 15.61877,16.70183 -15.71758,19.66218 3.04395,2.44351 16.76643,-20.98463 -0.0988,-2.54233 z" /><path
       style="color:#000000;fill:#000000;stroke:#000000;stroke-width:2.54635;stroke-linejoin:bevel;stroke-dasharray:none;stroke-opacity:1"
       d="m 157.76965,381.00393 -28.71876,21.65928 0.28716,3.28911 26.03357,13.51551 -26.34947,20.74005 2.41237,3.0593 28.71877,-22.60723 -0.31592,-3.24602 -25.96177,-13.48679 26.24895,-19.82082 z"
       id="path24" /><path
       id="path25"
       style="color:#000000;fill:#000000;stroke:#000000;stroke-width:2.54635;stroke-linejoin:bevel;stroke-dasharray:none;stroke-opacity:1"
       d="m 194.17103,381.00393 -14.56078,16.74641 2.94406,2.55737 11.0583,-12.74505 v 55.70356 h 3.88997 v -55.53636 l 10.19217,12.72225 3.04664,-2.42817 -13.5845,-16.96301 z" /><path
       style="color:#000000;fill:#000000;stroke:#000000;stroke-width:2.54635;stroke-linejoin:bevel;stroke-dasharray:none;stroke-opacity:1"
       d="m 283.82066,205.90185 -3.04556,1.59429 v 58.9885 l 2.945,1.68046 28.0709,-16.81898 -0.18678,-3.4471 -23.4019,-10.68601 23.25828,-8.38795 0.44564,-3.43273 z m 0.83321,5.29992 21.93659,15.23906 -21.93659,7.91396 z m 0,28.66838 21.951,10.03968 -21.951,13.14207 z"
       id="path27" /><path
       id="path33"
       style="color:#000000;fill:#000000;stroke:#000000;stroke-width:2.54635;stroke-linejoin:bevel;stroke-dasharray:none;stroke-opacity:1"
       d="m 132.10787,468.56027 -2.84254,2.65633 12.65084,13.49827 -12.8941,13.74908 0.0152,2.67154 12.85983,13.49447 -12.87505,13.50587 2.81599,2.68673 12.74578,-13.37286 12.74202,13.37286 2.8274,-2.68673 -12.87888,-13.50587 12.86366,-13.49447 0.0152,-2.67154 -12.89786,-13.75288 12.65459,-13.49447 -2.84254,-2.65633 -12.47979,13.30827 z m 12.47597,18.99715 11.46136,12.229 -11.46136,12.0238 -11.46894,-12.0238 z" /><path
       id="path38"
       style="color:#000000;fill:#000000;stroke:#000000;stroke-width:2.54635;stroke-linejoin:bevel;stroke-dasharray:none;stroke-opacity:1"
       d="m 183.37241,468.56027 -3.76221,0.68781 v 60.72701 l 3.70521,0.84744 11.86038,-24.49981 11.86038,24.49981 3.70514,-0.84744 v -60.72701 l -3.76213,-0.68781 -11.80339,30.65612 z m 0.12921,11.16116 8.96085,23.26475 -8.96085,18.49932 z m 23.34836,0 v 41.76407 l -8.96085,-18.49932 z" /><path
       style="color:#000000;fill:#000000;stroke:#000000;stroke-width:2.54635;stroke-linejoin:bevel;stroke-dasharray:none;stroke-opacity:1"
       d="m 345.24982,206.02239 -13.90003,23.95735 0.1434,2.15443 12.96669,16.89079 -12.96669,16.8908 3.08727,2.36988 12.33485,-16.07211 12.33499,16.07211 3.08728,-2.36988 -12.96668,-16.8908 12.96668,-16.89079 0.1434,-2.15443 -13.87135,-23.95735 z m 1.68012,4.84031 11.53078,19.93573 -11.54519,15.03797 -11.54512,-15.03797 z"
       id="path39" /><g
       id="g51"
       transform="translate(-25.780949,1.4523227)"><path
         id="path9"
         style="color:#000000;fill:#000000;stroke:#000000;stroke-width:2.54635;stroke-linejoin:bevel;stroke-dasharray:none;stroke-opacity:1"
         d="m 567.73057,204.35621 -2.91475,1.69489 v 60.5674 h 3.89139 v -36.05999 l 25.31306,14.33431 1.92669,-3.37456 -27.23975,-15.43257 v -16.70183 l 25.31686,14.33431 1.92289,-3.37456 z" /><path
         style="color:#000000;fill:#000000;stroke:#000000;stroke-width:2.54635;stroke-linejoin:bevel;stroke-dasharray:none;stroke-opacity:1"
         d="m 641.42312,204.35621 -26.01919,31.44043 0.12928,2.61405 28.24489,28.20877 2.757,-2.75768 -26.99563,-26.94484 24.8848,-30.09031 z"
         id="path11" /><path
         style="color:#000000;fill:#000000;stroke:#000000;stroke-width:2.54635;stroke-linejoin:bevel;stroke-dasharray:none;stroke-opacity:1"
         d="m 669.19418,204.35621 -3.20214,1.49375 v 60.7695 h 3.89139 v -22.47797 l 26.83767,-13.04153 0.40211,-3.23165 z m 0.68927,5.65899 22.4437,18.9016 -22.4437,10.90145 z"
         id="path12" /><path
         style="color:#000000;fill:#000000;stroke:#000000;stroke-width:2.54635;stroke-linejoin:bevel;stroke-dasharray:none;stroke-opacity:1"
         d="m 581.56659,291.91255 -3.50531,1.1634 v 54.43545 l -10.24296,-12.40956 -3.0025,2.47042 13.69081,16.60353 3.44784,-1.24957 v -53.9902 l 10.87507,14.564 3.11743,-2.3268 z"
         id="path20" /><path
         style="color:#000000;fill:#000000;stroke:#000000;stroke-width:2.54635;stroke-linejoin:bevel;stroke-dasharray:none;stroke-opacity:1"
         d="m 643.25962,291.91255 -12.2542,18.90131 -12.00999,-18.88695 -3.5915,1.03412 v 60.17969 l 3.60587,1.01975 11.99562,-19.71998 12.22547,19.73434 3.30418,-2.05386 -13.89193,-22.42016 -3.31855,0.0147 -10.02747,16.48838 v -46.53512 l 10.04183,15.79897 3.27546,0.0147 13.9063,-21.45787 z"
         id="path21" /><path
         id="path22"
         style="color:#000000;fill:#000000;stroke:#000000;stroke-width:2.54635;stroke-dasharray:none;stroke-opacity:1"
         d="m 679.60433,291.91255 v 16.88044 l -10.59493,-12.91684 -3.01735,2.47012 13.61228,16.58402 v 39.24454 h 3.89139 v -39.56756 l 13.62747,-16.2458 -2.98695,-2.50052 -10.64052,12.68883 v -16.63723 z" /><path
         style="color:#000000;fill:#000000;stroke:#000000;stroke-width:2.54635;stroke-linejoin:bevel;stroke-dasharray:none;stroke-opacity:1"
         d="m 517.59328,204.40962 -3.53409,1.10595 v 61.1573 h 3.89325 v -54.93816 l 10.07046,14.53527 h 3.20363 l 10.0706,-14.53527 v 54.93816 h 3.89318 v -61.1573 l -3.54843,-1.10595 -12.0243,17.33604 z"
         id="path28" /><path
         id="path31"
         style="color:#000000;fill:#000000;stroke:#000000;stroke-width:2.54635;stroke-linejoin:bevel;stroke-dasharray:none;stroke-opacity:1"
         d="m 618.93817,379.46889 -3.53417,1.10585 v 61.15644 h 3.89142 v -54.93552 l 8.50858,12.2746 -8.50101,12.26702 v 6.80993 l 11.66661,-16.81964 11.67035,16.82724 v 23.57637 h 3.89517 v -61.15644 l -3.54932,-1.10585 -12.02385,17.33646 z m 23.70178,7.32677 v 24.53021 l -8.50101,-12.2632 z" /><path
         style="color:#000000;fill:#000000;stroke:#000000;stroke-width:2.54635;stroke-linejoin:bevel;stroke-dasharray:none;stroke-opacity:1"
         d="m 668.90696,379.46889 -2.9149,1.69483 v 60.56842 h 3.89134 v -57.23622 l 25.31566,14.33418 1.92413,-3.37528 z"
         id="path32" /><path
         style="color:#000000;fill:#000000;stroke:#000000;stroke-width:2.54635;stroke-linejoin:bevel;stroke-dasharray:none;stroke-opacity:1"
         d="m 463.30254,204.43845 v 44.74049 l 3.27394,1.43629 23.96581,-22.26252 v 38.34899 h 3.89139 v -42.81585 l -3.27393,-1.42194 -23.96581,22.24816 v -40.27362 z"
         id="path1-3" /><path
         id="path2"
         style="color:#000000;fill:#000000;stroke:#000000;stroke-width:2.54635;stroke-dasharray:none;stroke-opacity:1"
         d="m 629.01621,467.02524 v 17.37827 h -13.61228 v 3.89139 h 13.61228 v 14.1215 h -13.61228 v 3.89139 h 13.61228 v 22.97974 h 3.89139 v -22.97974 h 13.62747 V 502.4164 H 632.9076 v -14.1215 h 13.62747 v -3.89139 H 632.9076 v -17.37827 z" /><path
         id="path3"
         style="color:#000000;fill:#000000;stroke:#000000;stroke-width:2.54635;stroke-dasharray:none;stroke-opacity:1"
         d="m 679.61951,467.02524 v 24.211 l -10.87233,-10.86853 -2.75514,2.74373 12.81424,12.81424 -12.81424,12.81043 2.75514,2.75514 10.87233,-10.87234 v 28.66862 h 3.8914 v -28.65342 l 10.85714,10.85714 2.75514,-2.75514 -12.81424,-12.81043 12.81424,-12.81424 -2.75514,-2.74373 -10.85714,10.85333 v -24.1958 z" /></g><path
       id="path5"
       style="opacity:1;fill:none;stroke-width:5.02708333;stroke:#000000;stroke-opacity:1;stroke-dasharray:none"
       d="M 399.99987 25.000024 A 375 375 0 0 0 25.000024 399.99987 A 375 375 0 0 0 137.70632 666.6854 A 400 400 0 0 1 399.99987 568.63557 A 400 400 0 0 1 662.23503 666.74431 A 375 375 0 0 0 775.00024 399.99987 A 375 375 0 0 0 399.99987 25.000024 z " /><path
       style="opacity:1;fill:#808080;fill-opacity:1;stroke:#000000;stroke-width:5.02708;stroke-dasharray:none;stroke-opacity:1"
       d="m 399.99988,357.75077 0,-332.750746"
       id="path8"
       sodipodi:nodetypes="cc" /><path
       style="fill:none;fill-opacity:1;stroke:#000000;stroke-width:5.02708;stroke-dasharray:none;stroke-opacity:1"
       d="M 108.66406,163.88913 C 197.87059,102.31515 289.27337,52.117265 397.49989,50.320416"
       id="path53"
       sodipodi:nodetypes="cc" /><path
       id="path54"
       style="fill:none;fill-opacity:1;stroke:#000000;stroke-width:4.89763;stroke-dasharray:none;stroke-opacity:1"
       d="m 399.99987,357.75077 c -48.35324,-5e-5 -87.55128,61.5838 -87.55124,137.5513 0.046,28.91619 5.74767,56.29411 16.56145,79.69303 23.35475,-4.49145 47.20849,-6.10079 70.98979,-6.35953 23.85174,0.036 47.65198,2.21574 71.11349,6.51279 10.63934,-23.2756 16.38612,-51.19055 16.43776,-79.84629 4e-5,-75.96751 -39.19801,-137.55136 -87.55125,-137.5513 z"
       sodipodi:nodetypes="scccccs" /><path
       style="fill:none;fill-opacity:1;stroke:#000000;stroke-width:5.02708;stroke-dasharray:none;stroke-opacity:1"
       d="M 690.95015,163.89191 C 601.74362,102.31793 510.34084,52.120043 402.11432,50.323194"
       id="path55"
       sodipodi:nodetypes="cc" /></g></svg>
