<?xml version="1.0" encoding="UTF-8" standalone="no"?>
<!-- Created with Inkscape (http://www.inkscape.org/) -->

<svg
   width="1024"
   height="1024"
   viewBox="0 0 270.93333 270.93333"
   version="1.1"
   id="svg1"
   inkscape:version="1.3 (0e150ed6c4, 2023-07-21)"
   sodipodi:docname="gate-material.svg"
   inkscape:export-filename="gate-material_1024x1024.png"
   inkscape:export-xdpi="96"
   inkscape:export-ydpi="96"
   xmlns:inkscape="http://www.inkscape.org/namespaces/inkscape"
   xmlns:sodipodi="http://sodipodi.sourceforge.net/DTD/sodipodi-0.dtd"
   xmlns="http://www.w3.org/2000/svg"
   xmlns:svg="http://www.w3.org/2000/svg">
  <sodipodi:namedview
     id="namedview1"
     pagecolor="#ffffff"
     bordercolor="#000000"
     borderopacity="0.25"
     inkscape:showpageshadow="2"
     inkscape:pageopacity="0.0"
     inkscape:pagecheckerboard="0"
     inkscape:deskcolor="#d1d1d1"
     inkscape:document-units="px"
     inkscape:zoom="0.72871773"
     inkscape:cx="456.28092"
     inkscape:cy="470.68979"
     inkscape:window-width="1920"
     inkscape:window-height="1023"
     inkscape:window-x="0"
     inkscape:window-y="0"
     inkscape:window-maximized="1"
     inkscape:current-layer="layer1" />
  <defs
     id="defs1" />
  <g
     inkscape:label="Layer 1"
     inkscape:groupmode="layer"
     id="layer1">
    <path
       id="path21"
       style="color:#000000;fill:#cccccc;-inkscape-stroke:none"
       d="M 8.6831908 0 C 9.6348662 10.464103 12.184158 20.465385 16.168005 29.718082 C 10.984573 27.406036 5.545131 25.598945 0 24.044527 L 0 24.599015 C 5.6632734 26.194448 11.214345 28.057293 16.496667 30.445686 C 20.227836 38.91912 25.114623 46.766013 30.976403 53.776562 C 24.936682 52.225468 18.606321 51.399963 12.082983 51.399963 C 7.9571046 51.399963 3.946415 51.83899 0 52.474833 L 0 53.012784 C 3.9458433 52.37279 7.956064 51.929129 12.082983 51.929129 C 18.837268 51.929129 25.377573 52.832821 31.604789 54.502099 C 33.63506 56.882647 35.775596 59.163608 38.021968 61.338891 C 32.903948 67.098466 29.789913 74.67858 29.789913 82.987698 C 29.789913 88.236727 31.03777 93.192503 33.241898 97.585774 C 21.215162 94.6229 10.027809 89.574624 0 82.917935 L 0 83.549421 C 10.126135 90.222998 21.421867 95.265183 33.557124 98.200723 C 39.025655 108.54602 49.889897 115.60121 62.403425 115.60121 C 69.71149 115.60121 76.458444 113.19553 81.896809 109.13391 C 82.889403 113.20351 83.659229 117.35802 84.212947 121.58224 C 70.323129 129.56975 60.71551 144.15435 59.675427 161.06304 C 55.751384 163.29608 51.705005 165.33486 47.535082 167.14949 C 39.917351 141.0656 22.692456 119.1374 0 105.27678 L 0 105.89431 C 22.467295 119.70831 39.509943 141.4847 47.04829 167.36963 C 32.562735 173.60074 16.665512 177.11149 0 177.54317 L 0 178.07285 C 16.714916 177.64169 32.661096 174.12537 47.194018 167.88226 C 47.558767 169.15841 47.909745 170.43966 48.228063 171.73474 C 34.41873 179.53334 22.304542 189.9635 12.550138 202.35095 C 12.393673 202.35191 12.239674 202.36284 12.082983 202.36284 C 7.9562162 202.36284 3.9460043 201.91855 0 201.27918 L 0 201.81559 C 3.9465482 202.45079 7.9571379 202.88994 12.082983 202.88994 C 12.097883 202.88994 12.112525 202.88891 12.127425 202.88891 C 7.4628887 208.88171 3.4862543 215.40635 0 222.22106 L 0 223.3135 C 3.6276439 216.07557 7.8566848 209.18873 12.809554 202.87185 C 26.854931 202.73917 39.988059 198.79438 51.215478 192.00533 C 51.306778 193.82272 51.354487 195.65174 51.354487 197.49182 C 51.354487 205.88064 50.36277 214.03301 48.54639 221.86914 C 35.013721 234.63234 18.419423 244.14332 0 249.30468 L 0 249.84883 C 18.296574 244.74752 34.809939 235.38176 48.331416 222.79983 C 45.435624 234.80416 40.529908 246.01677 33.985005 256.07326 C 29.574437 260.57431 25.660368 265.55846 22.310783 270.93333 L 23.029602 270.93333 C 27.212302 266.42249 31.030593 261.57293 34.402034 256.39778 C 41.3961 249.27014 49.613988 243.34939 58.727164 238.99213 C 58.61812 240.72185 58.543713 242.46097 58.543713 244.21817 C 58.543713 253.58594 60.194004 262.54952 63.090205 270.93333 L 63.651411 270.93333 C 60.736393 262.55462 59.072879 253.59059 59.072879 244.21817 C 59.072879 242.37647 59.15608 240.55526 59.276484 238.74408 C 70.358491 233.54091 82.724324 230.61848 95.778132 230.61848 C 126.46598 230.61848 153.30637 246.7466 168.51788 270.93333 L 169.14161 270.93333 C 153.86688 246.44202 126.76879 230.08931 95.778132 230.08931 C 82.749981 230.08931 70.403867 232.98685 59.32196 238.14463 C 60.412539 223.37742 65.428672 209.70764 73.352111 198.18067 C 82.27078 207.4107 94.769439 213.1596 108.61611 213.1596 C 122.66379 213.1596 135.32315 207.24238 144.26458 197.77604 C 153.444 211.39221 169.00849 220.34882 186.66302 220.34882 C 187.93647 220.34882 189.19461 220.28642 190.4447 220.19483 C 194.32314 229.67355 200.49394 237.97104 208.28237 244.38198 C 202.60267 252.53815 197.98861 261.46987 194.46823 270.93333 L 195.0315 270.93333 C 198.52355 261.58924 203.0872 252.7681 208.69682 244.70754 C 212.56956 247.84022 216.8303 250.50755 221.39682 252.63316 C 220.74411 258.98719 219.31324 265.10016 217.28286 270.93333 L 217.85698 270.93333 C 219.84805 265.16936 221.2436 259.12857 221.90118 252.86105 C 223.19415 253.4487 224.50555 254.00205 225.84461 254.50074 C 226.86024 259.85214 227.40256 265.35925 227.69308 270.93333 L 228.22534 270.93333 C 227.93895 265.43321 227.40874 259.99787 226.41977 254.71261 C 232.92507 257.06101 239.93814 258.34702 247.25261 258.34702 C 248.22083 258.34702 249.18249 258.31855 250.13977 258.27415 C 249.34627 262.39202 248.9308 266.63478 248.72745 270.93333 L 249.25817 270.93333 C 249.46252 266.62462 249.88076 262.37223 250.68185 258.24677 C 257.83817 257.85229 264.63665 256.17108 270.93333 253.53077 L 270.93333 252.95768 C 264.67162 255.60931 257.90456 257.30148 250.77797 257.70881 C 253.84967 242.40257 261.01042 228.6328 270.93333 217.34849 L 270.93333 216.59246 C 260.72068 228.05243 253.34955 242.09728 250.23485 257.7424 C 249.24649 257.7901 248.25279 257.81785 247.25261 257.81785 C 239.89423 257.81785 232.8418 256.51122 226.31332 254.11834 C 225.27119 248.69924 223.85983 243.41515 222.12029 238.27951 C 221.91237 235.38168 221.55434 232.52747 221.05265 229.72086 C 234.68908 215.68136 251.78449 205.06142 270.93333 199.09172 L 270.93333 198.49331 C 251.75006 204.43422 234.63378 215.06847 220.93845 229.07955 C 219.78741 222.92437 217.95344 217.01238 215.50829 211.42482 C 228.94315 202.21795 237.76275 186.76546 237.76275 169.25117 C 237.76275 168.22345 237.72333 167.20567 237.66353 166.19295 C 246.62356 176.35825 258.03628 184.26248 270.93333 189.15383 L 270.93333 188.61329 C 257.96563 183.66278 246.52902 175.62002 237.59635 165.31187 C 236.89826 156.17 233.80678 147.69823 228.92814 140.53302 C 233.42135 139.53987 237.76681 138.15411 241.9134 136.38702 C 243.67419 136.23384 245.45203 136.14001 247.25261 136.14001 C 255.66214 136.14001 263.65013 137.88592 270.93333 140.97072 L 270.93333 140.39298 C 263.64206 137.33573 255.65445 135.61084 247.25261 135.61084 C 245.93175 135.61084 244.62481 135.66654 243.32468 135.74882 C 254.228 130.82913 263.59616 123.24514 270.93333 113.97909 L 270.93333 113.11816 C 263.30208 122.94566 253.3834 130.90923 241.78937 135.86612 C 236.90597 136.29737 232.19044 137.3026 227.70289 138.81065 C 225.32142 135.60551 222.5703 132.69308 219.51786 130.12694 C 218.03239 123.89534 217.22343 117.40088 217.22343 110.71417 C 217.22343 75.109804 239.53873 44.755404 270.93333 32.777327 L 270.93333 32.193383 C 265.30929 34.327147 259.97115 37.039419 254.99684 40.27041 C 260.93452 34.880346 265.97015 28.517227 269.86673 21.439001 C 270.23945 21.893942 270.57162 22.381588 270.93333 22.845634 L 270.93333 21.97902 C 270.66297 21.638506 270.42014 21.275773 270.14371 20.940324 C 270.43967 20.392549 270.65113 19.79628 270.93333 19.240169 L 270.93333 17.997868 C 270.5292 18.8256 270.20867 19.700218 269.77423 20.509859 C 262.35881 11.649318 252.86862 4.633579 242.11132 0 L 240.73104 0 C 251.96554 4.6076251 261.85976 11.813243 269.50913 21.006986 C 257.26658 43.400299 233.49702 58.589188 206.17449 58.589188 C 197.28068 58.589188 188.76781 56.970745 180.90162 54.027709 C 193.42372 39.15401 201.5052 20.478391 203.36278 0 L 202.83258 0 C 200.971 20.412708 192.89155 39.019676 180.3833 53.823071 C 171.31613 50.349929 163.13479 45.101496 156.25403 38.499975 C 159.94245 30.408931 162.6491 21.782468 164.2308 12.763562 C 170.29891 7.4275772 177.27325 3.1208339 184.86107 0 L 183.60326 0 C 176.58265 3.0193463 170.0819 7.0119922 164.37756 11.940356 C 165.03124 8.0330703 165.39912 4.0356965 165.62503 0 L 165.08553 0 C 164.84682 4.2250564 164.451 8.4078522 163.74246 12.49071 C 157.93151 17.626585 152.93323 23.654513 148.96041 30.366622 C 144.44998 24.498467 140.81791 17.923259 138.27063 10.826212 C 142.62589 7.7844863 146.48208 4.1043502 149.83736 0 L 149.13973 0 C 145.91299 3.8892389 142.23956 7.3946714 138.09441 10.305831 C 136.9291 6.9791433 136.03827 3.5275707 135.36331 0 L 134.82019 0 C 135.5111 3.6398868 136.43615 7.1975644 137.64534 10.625191 C 132.5808 14.109219 126.92113 16.784104 120.85102 18.482593 C 119.22614 12.087462 116.96244 5.9691043 114.41575 0 L 113.84008 0 C 116.41759 6.012625 118.70427 12.179254 120.34149 18.627287 C 115.6197 19.900666 110.65871 20.590991 105.53413 20.590991 C 87.933758 20.590991 72.20947 12.576487 61.804495 0 L 61.13942 0 C 71.63957 12.882562 87.621036 21.120674 105.53413 21.120674 C 110.69942 21.120674 115.70048 20.425107 120.46086 19.142501 C 122.93593 29.063339 124.26838 39.436958 124.26838 50.124588 C 124.26838 59.183786 123.30904 68.016594 121.51403 76.54158 C 115.66493 79.227692 110.59009 83.304313 106.71235 88.353262 C 106.48981 88.354762 106.27069 88.370315 106.04779 88.370315 C 102.19785 88.370315 98.407995 88.122013 94.67484 87.687153 C 94.896553 86.152101 95.016421 84.584051 95.016421 82.987698 C 95.016421 64.97899 80.412133 50.374702 62.403425 50.374702 C 58.076069 50.374702 53.9489 51.225327 50.170064 52.756469 C 40.530201 43.391465 29.29025 35.678033 16.895093 30.047261 C 12.807043 20.708149 10.191136 10.593229 9.2206257 0 L 8.6831908 0 z M 137.82156 11.145573 C 140.41046 18.310032 144.10151 24.942629 148.67723 30.858581 C 142.86578 40.850719 139.30949 52.313704 138.73468 64.562467 C 135.83003 67.85737 132.72883 70.971575 129.44223 73.885412 C 126.90053 74.442354 124.45156 75.24474 122.12019 76.267695 C 123.8706 67.826681 124.79755 59.084361 124.79755 50.124588 C 124.79755 39.387078 123.45835 28.964835 120.96988 18.997807 C 127.05574 17.297046 132.73469 14.62606 137.82156 11.145573 z M 163.5957 13.313916 C 162.01872 21.994461 159.39355 30.304008 155.84992 38.114469 C 153.5085 35.833208 151.32599 33.392837 149.31078 30.813106 C 153.16043 24.266289 157.98326 18.363209 163.5957 13.313916 z M 17.223755 30.774349 C 29.276718 36.324047 40.217454 43.859697 49.634696 52.97196 C 46.874039 54.14817 44.312152 55.698046 42.004154 57.551525 C 38.747155 56.149077 35.370226 54.975492 31.896244 54.035978 C 25.967141 47.059772 21.012204 39.238172 17.223755 30.774349 z M 149.02811 31.305066 C 151.0606 33.891051 153.2618 36.335724 155.62047 38.621931 C 151.38079 47.837565 145.86717 56.338159 139.30054 63.909277 C 139.9639 52.075828 143.42872 40.997745 149.02811 31.305066 z M 156.02458 39.007438 C 162.88273 45.554008 171.01449 50.768957 180.01743 54.245784 C 172.51106 63.027185 163.47734 70.456945 153.31467 76.117317 C 149.00363 74.273595 144.29542 73.185616 139.35532 73.003295 C 139.24849 71.379883 139.17445 69.7476 139.17445 68.097135 C 139.17445 66.978001 139.2098 65.867332 139.2592 64.760387 C 146.01331 57.070638 151.67874 48.410123 156.02458 39.007438 z M 245.05997 47.823437 C 227.67119 63.206964 216.69426 85.674103 216.69426 110.71417 C 216.69426 117.20097 217.45442 123.50695 218.8471 129.57142 C 210.06006 122.43508 198.86286 118.15196 186.66302 118.15196 C 183.20229 118.15196 179.82343 118.50004 176.55563 119.15603 C 176.95323 116.9143 177.17265 114.6109 177.17265 112.25516 C 177.17265 96.268547 167.61409 82.519219 153.90637 76.385001 C 164.03896 70.687852 173.04867 63.241626 180.53575 54.450423 C 188.51057 57.459538 197.14724 59.118355 206.17449 59.118355 C 220.4823 59.118355 233.81326 54.965319 245.05997 47.823437 z M 62.403425 50.903869 C 80.126152 50.903869 94.487255 65.264973 94.487255 82.987698 C 94.487255 84.56154 94.368611 86.107372 94.149808 87.62049 C 86.975467 86.74521 80.040663 85.101871 73.436343 82.752571 C 72.43648 81.373135 71.400908 80.02177 70.312503 78.714574 C 64.923557 69.300956 58.280923 60.702353 50.59071 53.157478 C 54.247526 51.708521 58.230221 50.903869 62.403425 50.903869 z M 50.052241 53.369868 C 57.138183 60.29399 63.357199 68.098959 68.505895 76.628913 C 61.342766 68.633509 52.504533 62.178068 42.544689 57.795955 C 44.819633 56.000298 47.339316 54.502186 50.052241 53.369868 z M 32.526696 54.764098 C 35.615589 55.634818 38.630404 56.680922 41.544234 57.922562 C 40.420406 58.858887 39.3608 59.869078 38.372334 60.94615 C 36.334504 58.97196 34.386172 56.908801 32.526696 54.764098 z M 42.077018 58.163374 C 52.909216 62.879762 62.415756 70.064317 69.879455 79.018432 C 70.456969 80.028348 71.031671 81.039326 71.579609 82.067858 C 59.238564 77.390735 48.10689 70.27415 38.752673 61.308919 C 39.784684 60.183613 40.895284 59.132047 42.077018 58.163374 z M 38.40334 61.702176 C 47.945431 70.843872 59.321727 78.081334 71.943411 82.777892 C 74.628362 87.902008 76.938883 93.248972 78.849966 98.7857 C 72.35593 100.02231 65.661539 100.69463 58.807262 100.69463 C 50.231273 100.69463 41.902948 99.653963 33.913692 97.740803 C 31.621848 93.323182 30.319079 88.30926 30.319079 82.987698 C 30.319079 74.817315 33.376662 67.365952 38.40334 61.702176 z M 138.71401 65.389806 C 138.68161 66.289892 138.64528 67.189158 138.64528 68.097135 C 138.64528 69.742828 138.71809 71.370829 138.82357 72.989859 C 138.5101 72.982459 138.19881 72.966088 137.88357 72.966088 C 135.3564 72.966088 132.88837 73.214316 130.49384 73.670438 C 133.38375 71.063341 136.12285 68.294309 138.71401 65.389806 z M 137.88357 73.495771 C 138.21237 73.495771 138.53703 73.512436 138.86387 73.520576 C 139.07845 76.487084 139.45993 79.406116 140.01316 82.265779 C 133.40496 84.727986 126.45409 86.47665 119.25577 87.454092 C 119.87235 85.427156 120.4385 83.378939 120.95592 81.310798 C 123.98589 79.146182 126.90016 76.833416 129.68356 74.372204 C 132.3275 73.802726 135.06914 73.495771 137.88357 73.495771 z M 139.39562 73.534012 C 144.10741 73.714968 148.60362 74.731843 152.73796 76.448563 C 148.82124 78.595033 144.7358 80.468751 140.51494 82.068375 C 139.97894 79.276705 139.60693 76.428164 139.39562 73.534012 z M 128.58853 74.625418 C 126.19384 76.703816 123.70907 78.677723 121.13421 80.538752 C 121.42726 79.335705 121.71205 78.129728 121.97085 76.913651 C 124.0837 75.960972 126.29448 75.190053 128.58853 74.625418 z M 153.34258 76.708495 C 167.05487 82.679128 176.64348 96.342572 176.64348 112.25516 C 176.64348 114.65367 176.41436 116.99747 175.99752 119.27541 C 171.8428 120.15815 167.87583 121.54521 164.16155 123.37076 C 152.29939 112.91376 143.82529 98.709385 140.6095 82.597541 C 145.01416 80.933081 149.26751 78.964151 153.34258 76.708495 z M 121.3652 77.187536 C 121.08919 78.465121 120.7991 79.737198 120.48515 81.000223 C 116.72129 83.678138 112.78399 86.124788 108.67915 88.303653 C 108.25103 88.315053 107.82397 88.330349 107.39448 88.336209 C 111.10288 83.615481 115.87847 79.776126 121.3652 77.187536 z M 71.935143 81.604837 C 72.153098 81.890869 72.37234 82.175504 72.586266 82.464733 C 72.497026 82.432053 72.410803 82.393283 72.321683 82.360346 C 72.190035 82.110147 72.068541 81.853966 71.935143 81.604837 z M 120.30687 81.772785 C 119.81255 83.709686 119.26759 85.626137 118.68578 87.526439 C 115.79015 87.902249 112.85816 88.157733 109.88838 88.273164 C 113.49732 86.310161 116.96393 84.123723 120.30687 81.772785 z M 140.10773 82.795462 C 143.3473 98.911688 151.81412 113.12988 163.65719 123.62863 C 157.83736 126.56995 152.65782 130.58762 148.37957 135.42636 C 139.47079 123.1008 124.98411 115.07153 108.61611 115.07153 C 108.10116 115.07153 107.59193 115.09459 107.0808 115.11029 C 112.07371 106.64685 116.14147 97.573278 119.09867 88.00703 C 126.38426 87.034903 133.42087 85.279905 140.10773 82.795462 z M 72.676183 83.052294 C 72.818774 83.104044 72.9653 83.147434 73.108198 83.198538 C 76.460088 87.845225 79.302142 92.881951 81.534557 98.240514 C 80.816749 98.396532 80.098645 98.55018 79.375516 98.691649 C 77.514382 93.288198 75.27194 88.066151 72.676183 83.052294 z M 73.957759 83.485859 C 80.384318 85.717657 87.113088 87.293363 94.069709 88.143456 C 93.661414 90.671388 92.961314 93.101302 91.999035 95.394693 C 88.750087 96.459231 85.432692 97.368475 82.054422 98.120625 C 79.89525 92.921891 77.165838 88.023931 73.957759 83.485859 z M 118.52816 88.079377 C 115.55688 97.629477 111.4731 106.68462 106.4643 115.1263 C 104.02702 115.23167 101.63749 115.51746 99.305048 115.96605 C 99.189001 114.74428 99.123664 113.50736 99.123664 112.25516 C 99.123664 104.09971 101.64739 96.537539 105.94805 90.294746 C 106.91032 89.821959 107.86156 89.330795 108.80731 88.830236 C 112.09117 88.739006 115.33287 88.486639 118.52816 88.079377 z M 94.594742 88.210119 C 98.354063 88.648877 102.17075 88.899999 106.04779 88.899999 C 106.13189 88.899999 106.21441 88.893998 106.29842 88.893798 C 106.05753 89.218911 105.82557 89.550702 105.59459 89.883401 C 101.42832 91.923442 97.103321 93.683135 92.653258 95.173518 C 93.545519 92.961459 94.204721 90.631476 94.594742 88.210119 z M 107.59085 88.860725 C 107.26441 89.029217 106.93843 89.198332 106.61003 89.363536 C 106.72944 89.200678 106.84834 89.037655 106.97021 88.876745 C 107.1779 88.874845 107.38347 88.863944 107.59085 88.860725 z M 104.99979 90.766552 C 100.95474 96.94312 98.594497 104.32219 98.594497 112.25516 C 98.594497 113.53895 98.661148 114.80731 98.781566 116.05958 C 94.816245 116.867 91.025331 118.15412 87.470629 119.85573 C 87.033343 115.27925 86.177448 110.82758 84.962255 106.52528 C 88.105424 103.51189 90.650331 99.880271 92.390742 95.819473 C 96.719316 94.39005 100.93532 92.713585 104.99979 90.766552 z M 91.707579 96.050467 C 90.04155 99.783146 87.686517 103.13791 84.799474 105.95374 C 84.071627 103.4526 83.221877 101.00477 82.250276 98.617752 C 85.458704 97.900621 88.614946 97.048481 91.707579 96.050467 z M 34.233569 98.356786 C 42.127909 100.21202 50.347099 101.22431 58.807262 101.22431 C 65.720682 101.22431 72.472766 100.54415 79.021532 99.292129 C 80.055329 102.33261 80.981751 105.42124 81.766068 108.56857 C 76.384568 112.64799 69.678897 115.07153 62.403425 115.07153 C 50.249743 115.07153 39.678131 108.31688 34.233569 98.356786 z M 81.730928 98.738158 C 82.742841 101.21687 83.62068 103.76296 84.367459 106.3656 C 83.681014 107.01078 82.966174 107.62506 82.224954 108.20838 C 81.456576 105.15225 80.549434 102.15371 79.546565 99.198078 C 80.278401 99.05437 81.004518 98.896699 81.730928 98.738158 z M 84.529723 106.93766 C 85.713381 111.1904 86.539581 115.59037 86.959032 120.11101 C 86.197433 120.48662 85.448734 120.88364 84.710074 121.29699 C 84.144875 117.04746 83.363194 112.86743 82.355696 108.77424 C 83.106549 108.19235 83.833092 107.5816 84.529723 106.93766 z M 108.61611 115.60121 C 124.85654 115.60121 139.22006 123.58612 148.02507 135.83615 C 144.17565 140.28349 141.08091 145.39802 138.93984 150.9882 C 138.58785 150.9972 138.23785 151.01507 137.88357 151.01507 C 120.70405 151.01507 106.14753 139.83869 101.06256 124.36243 C 103.07577 121.53695 104.98867 118.63712 106.77178 115.64772 C 107.3847 115.62482 107.99758 115.60121 108.61611 115.60121 z M 106.15579 115.66322 C 104.49492 118.43171 102.71559 121.11855 100.85586 123.74542 C 100.1337 121.41506 99.630744 118.98936 99.359309 116.49366 C 101.57588 116.06538 103.84271 115.77872 106.15579 115.66322 z M 98.837377 116.58668 C 99.128531 119.23932 99.683943 121.8117 100.47655 124.27872 C 96.305335 130.1071 91.678084 135.58482 86.607116 140.62397 C 87.393704 136.24762 87.827196 131.74838 87.827196 127.14573 C 87.827196 124.87718 87.708872 122.63737 87.51352 120.41952 C 91.068164 118.69998 94.86395 117.39966 98.837377 116.58668 z M 186.66302 118.68113 C 198.98249 118.68113 210.2685 123.08953 219.04037 130.40909 C 219.90547 134.00586 221.00148 137.5104 222.31304 140.91026 C 222.06915 141.01893 221.82557 141.12821 221.58337 141.23996 C 218.7175 141.57858 215.80755 141.77274 212.85057 141.77274 C 198.13217 141.77274 184.4342 137.44099 172.92898 130.00705 C 174.556 126.80222 175.75735 123.34745 176.45641 119.71155 C 179.75303 119.03605 183.16642 118.68113 186.66302 118.68113 z M 175.89624 119.84126 C 175.20467 123.32699 174.04168 126.64032 172.48353 129.72128 C 169.71591 127.90475 167.08223 125.90525 164.59099 123.74283 C 168.14567 122.01569 171.93563 120.70026 175.89624 119.84126 z M 87.00244 120.681 C 87.184129 122.81383 87.297513 124.96583 87.297513 127.14573 C 87.297513 131.96558 86.82629 136.67331 85.960127 141.24099 C 85.860487 141.33859 85.757258 141.43254 85.657303 141.52986 C 85.717043 139.99229 85.774092 138.45392 85.774092 136.90172 C 85.774092 131.80243 85.412964 126.79062 84.781904 121.86284 C 85.510977 121.45075 86.250533 121.05584 87.00244 120.681 z M 84.284777 122.14862 C 84.894621 126.98419 85.244925 131.90059 85.244925 136.90172 C 85.244925 138.62747 85.188775 140.33965 85.1147 142.04714 C 77.636055 149.24384 69.285399 155.53089 60.230431 160.74419 C 61.364492 144.24071 70.742636 130.01603 84.284777 122.14862 z M 164.08662 124.0007 C 166.65654 126.2442 169.37914 128.31394 172.24271 130.1905 C 168.37555 137.58468 162.20045 143.58038 154.66343 147.20497 C 153.17142 143.1442 151.14762 139.3433 148.69325 135.86767 C 152.98996 130.98406 158.21053 126.938 164.08662 124.0007 z M 100.68481 124.89367 C 105.9495 140.3881 120.61127 151.54424 137.88357 151.54424 C 138.1671 151.54424 138.44691 151.52905 138.729 151.52305 C 137.76162 154.13728 137.01086 156.85463 136.47901 159.6502 C 127.21869 157.37923 117.5491 156.14964 107.58878 156.14964 C 99.428632 156.14964 91.461122 156.97028 83.75406 158.51125 C 84.496246 154.52731 85.033148 150.47357 85.361714 146.35902 C 85.77988 144.76003 86.136629 143.1372 86.451053 141.49885 C 91.654389 136.38619 96.411248 130.82759 100.68481 124.89367 z M 172.68868 130.47679 C 184.26769 137.94728 198.04734 142.30036 212.85057 142.30036 C 215.29796 142.30036 217.71567 142.17382 220.10232 141.94224 C 205.35023 149.23472 193.95548 162.27816 188.84222 178.14726 C 179.7042 171.44261 169.12789 166.59033 157.65859 164.13675 C 157.65859 164.12975 157.65911 164.1234 157.65911 164.1166 C 157.65911 158.35963 156.65824 152.83809 154.83551 147.70571 C 162.48465 144.04055 168.75713 137.96924 172.68868 130.47679 z M 219.71889 130.99665 C 222.48117 133.38561 224.99171 136.05781 227.18251 138.98635 C 225.69345 139.50174 224.22923 140.06836 222.79467 140.6927 C 221.58252 137.54642 220.54737 134.31358 219.71889 130.99665 z M 148.33875 136.27695 C 150.73961 139.6968 152.72016 143.43293 154.1818 147.42252 C 149.69123 149.50689 144.73705 150.75752 139.51293 150.97373 C 141.61251 145.56035 144.61481 140.60157 148.33875 136.27695 z M 240.00499 136.58443 C 236.33678 138.04 232.528 139.21306 228.59793 140.06897 C 228.40851 139.79732 228.21678 139.52747 228.02225 139.25972 C 231.86137 137.98132 235.86831 137.0757 240.00499 136.58443 z M 227.50239 139.43593 C 227.686 139.687 227.86438 139.94205 228.04344 140.19661 C 226.50132 140.5199 224.93957 140.78892 223.36362 141.01413 C 224.71689 140.4358 226.10077 139.91687 227.50239 139.43593 z M 228.37365 140.66118 C 233.14029 147.60235 236.21434 155.79162 237.01447 164.64059 C 231.21948 157.80838 226.51241 150.03231 223.14193 141.57327 C 224.90602 141.32833 226.65149 141.02789 228.37365 140.66118 z M 222.6014 141.642 C 226.08643 150.4282 231.00744 158.48191 237.08165 165.52116 C 237.17165 166.75426 237.23306 167.99508 237.23306 169.25117 C 237.23306 186.55477 228.54006 201.82007 215.28763 210.93648 C 209.52463 197.99967 200.52392 186.82446 189.29129 178.46662 C 194.49274 162.16392 206.37886 148.85817 221.7291 141.75259 C 222.02059 141.71779 222.31097 141.68019 222.6014 141.642 z M 85.803547 142.11639 C 85.746927 142.39678 85.680342 142.67326 85.620613 142.95251 C 85.632033 142.72773 85.628509 142.49912 85.638699 142.274 C 85.693389 142.2212 85.74895 142.16929 85.803547 142.11639 z M 85.096097 142.79128 C 85.038117 143.95876 84.929724 145.11245 84.837715 146.27066 C 83.648764 150.80672 82.045267 155.17388 80.073148 159.33291 C 73.188618 160.93582 66.520849 163.09972 60.143615 165.82295 C 60.123965 165.25549 60.100207 164.68884 60.100207 164.1166 C 60.100207 163.19751 60.131426 162.28576 60.181856 161.37929 C 69.239413 156.19774 77.598583 149.94714 85.096097 142.79128 z M 154.35233 147.9243 C 156.13421 152.95854 157.11559 158.37123 157.12736 164.01376 C 153.62565 163.28921 150.03653 162.80898 146.38693 162.54718 C 143.3072 161.50408 140.18067 160.56512 136.99525 159.76906 C 137.535 156.92427 138.30742 154.16303 139.30209 151.50858 C 144.66229 151.31791 149.74715 150.05471 154.35233 147.9243 z M 84.630492 148.93303 C 84.295804 152.20416 83.798023 155.42547 83.199055 158.61099 C 82.364674 158.78188 81.54661 158.99558 80.718586 159.18356 C 82.259558 155.88835 83.570788 152.46592 84.630492 148.93303 z M 107.58878 156.67932 C 117.51763 156.67932 127.1563 157.90483 136.38599 160.17058 C 136.25163 160.91909 136.13287 161.67251 136.03149 162.43194 C 110.05786 163.81349 87.309198 177.30661 73.292166 197.35694 C 72.3941 196.40293 71.534259 195.41349 70.715063 194.38917 C 76.814752 183.56162 81.24287 171.67529 83.654841 159.06574 C 91.390749 157.50552 99.392868 156.67932 107.58878 156.67932 z M 83.098286 159.17685 C 80.702959 171.57867 76.346944 183.27498 70.36418 193.94268 C 67.662401 190.48242 65.418166 186.65023 63.726342 182.52942 C 70.624548 176.09419 76.327569 168.39614 80.445218 159.78921 C 81.329778 159.58532 82.206391 159.36113 83.098286 159.17685 z M 79.78686 159.94114 C 75.743909 168.27336 70.199376 175.73536 63.518603 182.00233 C 61.587037 177.1356 60.412033 171.88728 60.158084 166.39501 C 66.441142 163.69927 73.006514 161.5444 79.78686 159.94114 z M 136.90172 160.28996 C 139.40977 160.91741 141.8842 161.62618 144.32711 162.40817 C 143.04157 162.34817 141.75017 162.30999 140.44982 162.30999 C 139.14775 162.30999 137.85511 162.34807 136.56789 162.40817 C 136.66409 161.697 136.77625 160.99142 136.90172 160.28996 z M 59.632535 161.69504 C 59.593485 162.49758 59.57104 163.30439 59.57104 164.1166 C 59.57104 164.76812 59.594953 165.41374 59.620133 166.05911 C 55.879015 167.67787 52.240532 169.48483 48.706587 171.4593 C 48.390803 170.18266 48.041005 168.92041 47.680293 167.66212 C 51.782583 165.8794 55.766627 163.88127 59.632535 161.69504 z M 140.44982 162.83915 C 142.41416 162.83915 144.35565 162.93335 146.28513 163.07015 C 149.94449 164.31179 153.52299 165.72282 157.0147 167.29728 C 156.27652 178.69639 151.6115 189.02194 144.34726 196.92906 C 139.1354 188.97618 136.09453 179.47147 136.09453 169.25117 C 136.09453 167.11178 136.24238 165.00837 136.50019 162.93889 C 137.80936 162.87629 139.12514 162.83915 140.44982 162.83915 z M 135.96379 162.96783 C 135.71084 165.0285 135.56537 167.12221 135.56537 169.25117 C 135.56537 179.62092 138.66388 189.26387 143.97312 197.32129 C 135.12418 206.74112 122.56277 212.6325 108.61611 212.6325 C 94.879983 212.6325 82.488159 206.91644 73.66217 197.74452 C 87.565066 177.80036 110.1568 164.37034 135.96379 162.96783 z M 148.41006 163.23189 C 151.36206 163.51852 154.268 163.96081 157.11909 164.55429 C 157.11309 165.28554 157.09609 166.01445 157.05759 166.73762 C 154.22777 165.46684 151.3503 164.2864 148.41006 163.23189 z M 157.64516 164.67573 C 169.05949 167.13157 179.58268 171.97536 188.666 178.66765 C 187.93718 181.00166 187.3599 183.401 186.91159 185.8455 C 178.14705 178.21861 168.27888 171.83892 157.57023 166.96965 C 157.61383 166.20973 157.63656 165.44453 157.64516 164.67573 z M 59.635119 166.63169 C 59.915587 172.18142 61.13047 177.48201 63.106225 182.39507 C 59.591165 185.643 55.766276 188.55786 51.679532 191.09376 C 51.297393 184.55289 50.325147 178.17329 48.830611 171.9957 C 52.329198 170.03537 55.931883 168.24166 59.635119 166.63169 z M 157.52733 167.52931 C 168.21899 172.41087 178.06652 178.80488 186.8041 186.44805 C 186.21168 189.87124 185.88581 193.38579 185.88581 196.97816 C 185.88581 205.0004 187.44158 212.6552 190.24162 219.67961 C 189.05807 219.76241 187.86765 219.81965 186.66302 219.81965 C 169.14503 219.81965 153.71303 210.91372 144.63871 197.38382 C 151.99435 189.42295 156.73633 179.02079 157.52733 167.52931 z M 48.35157 172.27062 C 49.840158 178.46414 50.808401 184.85918 51.17362 191.41829 C 40.088868 198.17439 27.114802 202.12508 13.232267 202.3339 C 22.865428 190.18991 34.784589 179.95465 48.35157 172.27062 z M 189.11972 178.99011 C 200.24205 187.30216 209.14785 198.40289 214.84735 211.24292 C 213.48821 212.15682 212.08206 213.00535 210.63365 213.78643 C 204.28654 203.47545 196.42665 194.20428 187.37719 186.24858 C 187.8173 183.77595 188.39059 181.34963 189.11972 178.99011 z M 63.313964 182.92268 C 65.042913 187.08167 67.33328 190.94576 70.08151 194.43361 C 64.453201 204.35594 57.41891 213.3668 49.241955 221.20613 C 50.952013 213.57119 51.883654 205.6424 51.883654 197.49182 C 51.883654 195.54433 51.826743 193.6102 51.725008 191.68804 C 55.869319 189.13694 59.748834 186.19902 63.313964 182.92268 z M 187.26919 186.85112 C 196.16907 194.71649 203.90312 203.8655 210.16288 214.02776 C 204.29223 217.11464 197.74173 219.07571 190.79249 219.63775 C 187.97876 212.63244 186.41498 204.99028 186.41498 196.97816 C 186.41498 193.52611 186.71699 190.14612 187.26919 186.85112 z M 70.432393 194.88009 C 71.243455 195.88539 72.095573 196.85491 72.982108 197.79258 C 64.918331 209.48873 59.828794 223.38216 58.772639 238.3932 C 50.208176 242.45242 42.426775 247.88302 35.688777 254.39119 C 41.778992 244.57643 46.325595 233.7138 49.026981 222.13683 C 57.435656 214.18374 64.663464 205.00567 70.432393 194.88009 z M 215.06646 211.72764 C 217.52489 217.36585 219.35386 223.33667 220.48576 229.55394 C 220.09372 229.95942 219.7047 230.36769 219.31839 230.77868 C 216.93227 225.02766 214.12732 219.49467 210.91942 214.23188 C 212.34422 213.46187 213.72715 212.62501 215.06646 211.72764 z M 210.44865 214.47321 C 213.69096 219.78911 216.51798 225.38321 218.91738 231.19932 C 215.1901 235.20333 211.74157 239.46564 208.58727 243.95307 C 200.92181 237.63614 194.83913 229.47459 190.99557 220.15297 C 197.97339 219.56638 204.55097 217.58195 210.44865 214.47321 z M 220.60049 230.19525 C 220.94775 232.19368 221.23744 234.21126 221.43609 236.25689 C 220.8388 234.59157 220.19815 232.94775 219.53078 231.31714 C 219.88393 230.93987 220.2425 230.56789 220.60049 230.19525 z M 219.12977 231.73831 C 220.01773 233.92057 220.83589 236.13687 221.59732 238.3808 C 221.73427 240.31106 221.82883 242.25301 221.82883 244.21817 C 221.82883 246.8698 221.69171 249.48894 221.44384 252.07557 C 216.97209 249.97734 212.79865 247.35304 209.00171 244.27863 C 212.09847 239.8705 215.47732 235.67843 219.12977 231.73831 z M 222.25982 240.33933 C 223.6722 244.7514 224.83454 249.2732 225.73557 253.89044 C 224.45393 253.40565 223.19561 252.87479 221.95699 252.30759 C 222.21805 249.64588 222.35852 246.94843 222.35852 244.21817 C 222.35852 242.91729 222.31982 241.62538 222.25982 240.33933 z M 32.283817 258.61987 C 29.825628 262.17188 27.158517 265.56579 24.301359 268.78979 C 26.708497 265.19929 29.377589 261.79984 32.283817 258.61987 z " />
    <path
       id="path1"
       style="color:#000000;fill:#808080;-inkscape-stroke:none"
       d="M 8.4268757 0 C 9.4017752 10.349769 11.951734 20.240268 15.89567 29.400272 C 10.796863 27.125972 5.4492856 25.342896 0 23.801131 L 0 24.356136 C 5.567215 25.939119 11.0265 27.777685 16.224332 30.127876 C 19.955501 38.60131 24.842288 46.448203 30.704069 53.458752 C 24.664348 51.907658 18.333986 51.082153 11.810648 51.082153 C 7.780728 51.082153 3.859256 51.497656 0 52.104829 L 0 52.642264 C 3.8587603 52.031119 7.7796922 51.611319 11.810648 51.611319 C 18.564934 51.611319 25.105238 52.515011 31.332454 54.184289 C 33.362725 56.564837 35.503262 58.845798 37.749633 61.021081 C 32.631613 66.780656 29.517578 74.36077 29.517578 82.669888 C 29.517578 87.918917 30.765436 92.874693 32.969563 97.267963 C 21.053696 94.332404 9.9571241 89.356412 0 82.791328 L 0 83.42178 C 10.055348 90.004074 21.26037 94.974185 33.28479 97.882913 C 38.75332 108.22821 49.617562 115.2834 62.131091 115.2834 C 69.439155 115.2834 76.18611 112.87772 81.624474 108.8161 C 82.617068 112.8857 83.386894 117.04021 83.940612 121.26443 C 70.050795 129.25194 60.443176 143.83654 59.403092 160.74523 C 55.47905 162.97827 51.43267 165.01705 47.262748 166.83168 C 39.675485 140.85212 22.557698 118.9953 0 105.12536 L 0 105.74238 C 22.332768 119.5651 39.267989 141.27121 46.775956 167.05182 C 32.369839 173.24876 16.565359 176.74713 0 177.2114 L 0 177.74109 C 16.614783 177.27736 32.468225 173.77342 46.921683 167.56445 C 47.286432 168.8406 47.63741 170.12185 47.955729 171.41692 C 34.146395 179.21553 22.032208 189.64569 12.277803 202.03314 C 12.121339 202.0341 11.967339 202.04503 11.810648 202.04503 C 7.7797226 202.04503 3.8590216 201.62415 0 201.01357 L 0 201.55049 C 3.8594052 202.15705 7.7807393 202.57213 11.810648 202.57213 C 11.825553 202.57213 11.840187 202.5711 11.85509 202.5711 C 7.3072781 208.41394 3.4296053 214.77248 0 221.39837 L 0 222.49443 C 3.5747606 215.44611 7.700964 208.72219 12.537219 202.55404 C 26.582596 202.42136 39.715724 198.47657 50.943143 191.68752 C 51.034439 193.50491 51.082153 195.33393 51.082153 197.17401 C 51.082153 205.56283 50.090436 213.7152 48.274055 221.55133 C 34.808674 234.25107 18.309538 243.725 0 248.90418 L 0 249.44989 C 18.187111 244.33116 34.605203 235.00105 48.059081 222.48202 C 45.163289 234.48635 40.257573 245.69896 33.71267 255.75545 C 29.260995 260.29845 25.307193 265.3278 21.937162 270.76021 C 21.880356 270.82073 21.815306 270.87295 21.758362 270.93333 L 22.484415 270.93333 C 26.779814 266.33664 30.68174 261.37258 34.129699 256.07997 C 41.123765 248.95233 49.341653 243.03158 58.454829 238.67432 C 58.345785 240.40404 58.271378 242.14316 58.271378 243.90036 C 58.271378 253.38752 59.966913 262.45864 62.934142 270.93333 L 63.495348 270.93333 C 60.508893 262.46401 58.800545 253.39218 58.800545 243.90036 C 58.800545 242.05866 58.883741 240.23745 59.00415 238.42627 C 70.086157 233.2231 82.451989 230.30067 95.505797 230.30067 C 126.32804 230.30067 153.27056 246.56945 168.44553 270.93333 L 169.0703 270.93333 C 153.83322 246.26425 126.63112 229.7715 95.505797 229.7715 C 82.477646 229.7715 70.131532 232.66904 59.049625 237.82682 C 60.140204 223.05961 65.156337 209.38983 73.079776 197.86286 C 81.998445 207.09289 94.497103 212.84179 108.34377 212.84179 C 122.39146 212.84179 135.05081 206.92457 143.99224 197.45823 C 153.17166 211.0744 168.73616 220.03101 186.39069 220.03101 C 187.66414 220.03101 188.92227 219.9686 190.17237 219.87702 C 194.05081 229.35574 200.22161 237.65323 208.01004 244.06417 C 202.26686 252.31149 197.61244 261.35132 194.07911 270.93333 L 194.64238 270.93333 C 198.14775 261.47082 202.75142 252.54146 208.42448 244.38973 C 212.29722 247.52241 216.55797 250.18974 221.12448 252.31535 C 220.45971 258.78685 218.97768 265.00375 216.88547 270.93333 L 217.45856 270.93333 C 219.51086 265.07245 220.95893 258.92831 221.62885 252.54324 C 222.92182 253.13089 224.23322 253.68424 225.57228 254.18293 C 226.60719 259.63594 227.15468 265.24944 227.43573 270.93333 L 227.96799 270.93333 C 227.69085 265.32348 227.15543 259.78176 226.14743 254.3948 C 232.65274 256.7432 239.66581 258.02921 246.98027 258.02921 C 247.9485 258.02921 248.91015 258.00071 249.86743 257.95634 C 249.05438 262.17568 248.63209 266.52471 248.43961 270.93333 L 248.97033 270.93333 C 249.16373 266.51451 249.58873 262.15584 250.40952 257.92896 C 257.66879 257.52881 264.56167 255.80831 270.93333 253.10031 L 270.93333 252.52619 C 264.59684 255.246 257.73529 256.97778 250.50564 257.391 C 253.60477 241.94807 260.87036 228.07315 270.93333 216.73457 L 270.93333 215.97389 C 260.57825 227.48702 253.10467 241.64155 249.96252 257.42459 C 248.97416 257.4723 247.98046 257.50004 246.98027 257.50004 C 239.6219 257.50004 232.56946 256.19341 226.04098 253.80053 C 224.99885 248.38143 223.58749 243.09734 221.84795 237.9617 C 221.64003 235.06387 221.28201 232.20966 220.78032 229.40305 C 234.48213 215.29624 251.67263 204.63426 270.93333 198.68141 L 270.93333 198.083 C 251.63817 204.00706 234.4271 214.68349 220.66611 228.76174 C 219.51508 222.60656 217.6811 216.69457 215.23596 211.10701 C 228.67081 201.90014 237.49041 186.44765 237.49041 168.93336 C 237.49041 167.90564 237.45105 166.88786 237.39119 165.87514 C 246.41386 176.1115 257.92476 184.05268 270.93333 188.93472 L 270.93333 188.38953 C 257.85478 183.44856 246.31822 175.37322 237.32401 164.99406 C 236.62592 155.85219 233.53444 147.38042 228.65581 140.21521 C 233.14901 139.22206 237.49448 137.8363 241.64106 136.06921 C 243.40186 135.91603 245.17969 135.8222 246.98027 135.8222 C 255.49603 135.8222 263.57676 137.61742 270.93333 140.77642 L 270.93333 140.19868 C 263.56829 137.06783 255.48828 135.29303 246.98027 135.29303 C 245.65941 135.29303 244.35247 135.34877 243.05234 135.43101 C 254.09343 130.44917 263.55902 122.7346 270.93333 113.30574 L 270.93333 112.45257 C 263.27016 122.44387 253.24838 130.53272 241.51704 135.54831 C 236.63363 135.97956 231.91811 136.98479 227.43056 138.49284 C 225.04908 135.2877 222.29797 132.37527 219.24553 129.80913 C 217.76005 123.57753 216.9511 117.08307 216.9511 110.39636 C 216.9511 74.690462 239.3973 44.27181 270.93333 32.364949 L 270.93333 31.782039 C 265.21036 33.930662 259.77799 36.670182 254.7245 39.9526 C 260.66218 34.562536 265.69782 28.199417 269.59439 21.121191 C 270.0622 21.692185 270.48289 22.301169 270.93333 22.886458 L 270.93333 22.019328 C 270.57256 21.559087 270.24312 21.073632 269.87138 20.622514 C 270.26943 19.885774 270.56023 19.087581 270.93333 18.335831 L 270.93333 17.089396 C 270.44312 18.116853 270.03847 19.192058 269.50189 20.192049 C 262.26218 11.541459 253.05068 4.6377808 242.60948 0 L 241.22713 0 C 252.14252 4.622317 261.76214 11.705425 269.23679 20.689176 C 256.99424 43.082489 233.22468 58.271378 205.90216 58.271378 C 197.00835 58.271378 188.49547 56.652935 180.62928 53.709899 C 193.08675 38.912976 201.15137 20.353871 203.06409 0 L 202.53389 0 C 200.61707 20.28809 192.55444 38.778528 180.11097 53.505261 C 171.0438 50.032119 162.86245 44.783685 155.98169 38.182165 C 159.67012 30.091121 162.37677 21.464658 163.95847 12.445752 C 169.82201 7.2896535 176.53211 3.0955081 183.82237 0 L 182.4638 0 C 175.76816 2.9790128 169.58078 6.8918467 164.10523 11.622546 C 164.7418 7.8174975 165.10714 3.9269896 165.33874 0 L 164.79924 0 C 164.55425 4.1162482 164.16097 8.1920094 163.47012 12.1729 C 157.65918 17.308775 152.6609 23.336703 148.68808 30.048811 C 144.17764 24.180657 140.54557 17.605449 137.99829 10.508402 C 142.23987 7.5460701 146.00236 3.9730605 149.29838 0 L 148.60695 0 C 145.44084 3.7606184 141.85485 7.1557849 137.82208 9.9880207 C 136.69206 6.7620968 135.82928 3.4153603 135.15971 0 L 134.6171 0 C 135.30318 3.5274901 136.19934 6.9804347 137.37301 10.307381 C 132.30846 13.791409 126.6488 16.466294 120.57869 18.164782 C 118.98277 11.883631 116.76778 5.870872 114.28191 0 L 113.70624 0 C 116.22257 5.9146084 118.46088 11.975432 120.06916 18.309476 C 115.34737 19.582856 110.38638 20.273181 105.26179 20.273181 C 87.815925 20.273181 72.227015 12.386392 61.821032 0 L 61.110481 0 C 71.613602 12.704763 87.492522 20.802864 105.26179 20.802864 C 110.42709 20.802864 115.42814 20.107297 120.18853 18.824691 C 122.6636 28.745529 123.99605 39.119148 123.99605 49.806778 C 123.99605 58.865976 123.0367 67.698784 121.24169 76.22377 C 115.3926 78.909882 110.31776 82.986503 106.44001 88.035452 C 106.21747 88.036949 105.99835 88.052505 105.77545 88.052505 C 101.92552 88.052505 98.135661 87.804203 94.402505 87.369343 C 94.624218 85.834291 94.744087 84.266241 94.744087 82.669888 C 94.744087 64.66118 80.139799 50.056892 62.131091 50.056892 C 57.803734 50.056892 53.676565 50.907517 49.897729 52.438659 C 40.257867 43.073652 29.017915 35.360223 16.622758 29.729451 C 12.575165 20.482763 9.9591242 10.478672 8.9648274 0 L 8.4268757 0 z M 137.54923 10.827763 C 140.13812 17.992222 143.82918 24.624819 148.40489 30.540771 C 142.59345 40.532909 139.03716 51.995894 138.46235 64.244657 C 135.55769 67.53956 132.4565 70.653765 129.16989 73.567602 C 126.62819 74.124544 124.17923 74.92693 121.84786 75.949885 C 123.59827 67.508871 124.52521 58.766551 124.52521 49.806778 C 124.52521 39.069268 123.18602 28.647025 120.69754 18.679997 C 126.7834 16.979236 132.46235 14.30825 137.54923 10.827763 z M 163.32336 12.996106 C 161.74638 21.676651 159.12122 29.986198 155.57758 37.796659 C 153.23616 35.515398 151.05365 33.075027 149.03845 30.495296 C 152.88809 23.948479 157.71093 18.045399 163.32336 12.996106 z M 16.95142 30.456539 C 29.004383 36.006237 39.945119 43.541887 49.362361 52.65415 C 46.601704 53.83036 44.039817 55.380236 41.731819 57.233715 C 38.47482 55.831267 35.097892 54.657682 31.623909 53.718167 C 25.694806 46.741961 20.739869 38.920362 16.95142 30.456539 z M 148.75578 30.987255 C 150.78826 33.573241 152.98946 36.017914 155.34814 38.304121 C 151.10845 47.519755 145.59484 56.020349 139.0282 63.591467 C 139.69156 51.758018 143.15638 40.679935 148.75578 30.987255 z M 155.75225 38.689628 C 162.61039 45.236198 170.74216 50.451147 179.7451 53.927974 C 172.23873 62.709375 163.20501 70.139135 153.04234 75.799507 C 148.73129 73.955785 144.02309 72.867806 139.08298 72.685485 C 138.97615 71.062073 138.90211 69.42979 138.90211 67.779325 C 138.90211 66.660191 138.9375 65.549522 138.98686 64.442577 C 145.74098 56.752828 151.4064 48.092313 155.75225 38.689628 z M 244.78764 47.505627 C 227.39886 62.889153 216.42193 85.356297 216.42193 110.39636 C 216.42193 116.88316 217.18208 123.18914 218.57477 129.25361 C 209.78773 122.11727 198.59053 117.83415 186.39069 117.83415 C 182.92995 117.83415 179.55109 118.18223 176.28329 118.83822 C 176.68089 116.59649 176.90031 114.29309 176.90031 111.93735 C 176.90031 95.950741 167.34176 82.201408 153.63403 76.067191 C 163.76662 70.370042 172.77633 62.923816 180.26341 54.132612 C 188.23824 57.141728 196.87491 58.800545 205.90216 58.800545 C 220.20996 58.800545 233.54092 54.647509 244.78764 47.505627 z M 62.131091 50.586059 C 79.853817 50.586059 94.21492 64.947163 94.21492 82.669888 C 94.21492 84.24373 94.096277 85.789562 93.877473 87.30268 C 86.703132 86.4274 79.768328 84.784061 73.164009 82.434761 C 72.164146 81.055325 71.128573 79.70396 70.040168 78.396764 C 64.651222 68.983146 58.008588 60.384543 50.318375 52.839668 C 53.975191 51.390711 57.957886 50.586059 62.131091 50.586059 z M 49.779907 53.052058 C 56.865849 59.97618 63.084865 67.781149 68.23356 76.311103 C 61.070432 68.315699 52.232199 61.860258 42.272355 57.478145 C 44.547298 55.682488 47.066981 54.184376 49.779907 53.052058 z M 32.254362 54.446288 C 35.343254 55.317008 38.358069 56.363112 41.271899 57.604752 C 40.148071 58.541077 39.088466 59.551268 38.1 60.62834 C 36.06217 58.65415 34.113837 56.590991 32.254362 54.446288 z M 41.804683 57.845564 C 52.636881 62.561952 62.143421 69.746507 69.60712 78.700622 C 70.184634 79.710538 70.759336 80.721516 71.307275 81.750048 C 58.966229 77.072924 47.834555 69.956339 38.480338 60.991108 C 39.512349 59.865803 40.622949 58.814237 41.804683 57.845564 z M 38.131005 61.384366 C 47.673096 70.526062 59.049392 77.763524 71.671077 82.460082 C 74.356027 87.584198 76.666549 92.931162 78.577632 98.46789 C 72.083595 99.7045 65.389204 100.37682 58.534928 100.37682 C 49.958938 100.37682 41.630613 99.336153 33.641357 97.422993 C 31.349513 93.005372 30.046744 87.99145 30.046744 82.669888 C 30.046744 74.499504 33.104327 67.048142 38.131005 61.384366 z M 138.44168 65.071996 C 138.40933 65.972082 138.37295 66.871348 138.37295 67.779325 C 138.37295 69.425018 138.44571 71.053019 138.55123 72.672049 C 138.23776 72.664661 137.92648 72.648278 137.61124 72.648278 C 135.08407 72.648278 132.61603 72.896506 130.22151 73.352628 C 133.11141 70.745531 135.85052 67.976499 138.44168 65.071996 z M 137.61124 73.177961 C 137.94004 73.177961 138.2647 73.194629 138.59154 73.202766 C 138.80612 76.169274 139.18759 79.088306 139.74082 81.947969 C 133.13263 84.410176 126.18176 86.15884 118.98343 87.136282 C 119.60001 85.109346 120.16617 83.061129 120.68359 80.992988 C 123.71356 78.828372 126.62782 76.515606 129.41122 74.054394 C 132.05517 73.484916 134.79681 73.177961 137.61124 73.177961 z M 139.12329 73.216202 C 143.83507 73.397158 148.33128 74.414033 152.46563 76.130753 C 148.5489 78.277222 144.46347 80.150941 140.2426 81.750565 C 139.7066 78.958895 139.3346 76.110354 139.12329 73.216202 z M 128.3162 74.307608 C 125.92151 76.386006 123.43674 78.359913 120.86187 80.220942 C 121.15492 79.017895 121.43971 77.811918 121.69851 76.595841 C 123.81136 75.643161 126.02215 74.872243 128.3162 74.307608 z M 153.07024 76.390685 C 166.78254 82.361318 176.37114 96.024766 176.37114 111.93735 C 176.37114 114.33586 176.14203 116.67966 175.72519 118.9576 C 171.57046 119.84034 167.6035 121.2274 163.88922 123.05295 C 152.02705 112.59595 143.55296 98.391575 140.33717 82.279731 C 144.74182 80.615271 148.99518 78.646341 153.07024 76.390685 z M 121.09287 76.869726 C 120.81686 78.147311 120.52677 79.419388 120.21282 80.682413 C 116.44896 83.360328 112.51165 85.806978 108.40682 87.985843 C 107.9787 87.997242 107.55163 88.012547 107.12214 88.018399 C 110.83055 83.297671 115.60613 79.458316 121.09287 76.869726 z M 71.662808 81.287027 C 71.880763 81.573059 72.100006 81.857694 72.313931 82.146923 C 72.224688 82.114241 72.138468 82.075472 72.049348 82.042536 C 71.9177 81.792337 71.796206 81.536156 71.662808 81.287027 z M 120.03453 81.454975 C 119.54021 83.391875 118.99525 85.308327 118.41344 87.208629 C 115.51782 87.584439 112.58582 87.839923 109.61605 87.955354 C 113.22498 85.992351 116.6916 83.805913 120.03453 81.454975 z M 139.83539 82.477652 C 143.07497 98.593878 151.54179 112.81207 163.38486 123.31082 C 157.56502 126.25214 152.38548 130.26981 148.10724 135.10855 C 139.19846 122.78299 124.71178 114.75372 108.34377 114.75372 C 107.82882 114.75372 107.3196 114.77672 106.80847 114.79247 C 111.80137 106.32904 115.86914 97.255468 118.82634 87.68922 C 126.11193 86.717093 133.14854 84.962094 139.83539 82.477652 z M 72.403848 82.734484 C 72.546439 82.786237 72.692966 82.829621 72.835863 82.880728 C 76.187753 87.527415 79.029808 92.564141 81.262222 97.922704 C 80.544414 98.078722 79.82631 98.23237 79.103181 98.373839 C 77.242047 92.970388 74.999605 87.748341 72.403848 82.734484 z M 73.685424 83.168049 C 80.111983 85.399847 86.840753 86.975553 93.797374 87.825646 C 93.389079 90.353578 92.688979 92.783492 91.7267 95.076883 C 88.477752 96.141421 85.160357 97.050665 81.782087 97.802815 C 79.622915 92.604081 76.893504 87.706121 73.685424 83.168049 z M 118.25583 87.761567 C 115.28454 97.311667 111.20076 106.36681 106.19197 114.80849 C 103.75469 114.91386 101.36516 115.19965 99.032714 115.64824 C 98.916666 114.42647 98.851329 113.18955 98.851329 111.93735 C 98.851329 103.7819 101.37505 96.219728 105.67572 89.976936 C 106.63799 89.504149 107.58923 89.012985 108.53498 88.512426 C 111.81883 88.421195 115.06053 88.168829 118.25583 87.761567 z M 94.322407 87.892308 C 98.081728 88.331067 101.89842 88.582189 105.77545 88.582189 C 105.85951 88.582189 105.94208 88.5762 106.02609 88.575988 C 105.7852 88.901101 105.55323 89.232892 105.32225 89.565591 C 101.15599 91.605632 96.830986 93.365325 92.380923 94.855708 C 93.273184 92.643649 93.932386 90.313665 94.322407 87.892308 z M 107.31851 88.542915 C 106.99207 88.711407 106.66609 88.880522 106.33769 89.045726 C 106.4571 88.882868 106.57601 88.719845 106.69788 88.558934 C 106.90557 88.557006 107.11113 88.546136 107.31851 88.542915 z M 104.72746 90.448742 C 100.6824 96.62531 98.322163 104.00438 98.322163 111.93735 C 98.322163 113.22114 98.388817 114.4895 98.509231 115.74177 C 94.54391 116.54919 90.752996 117.83631 87.198294 119.53792 C 86.761008 114.96144 85.905113 110.50977 84.68992 106.20747 C 87.833089 103.19408 90.377996 99.562461 92.118407 95.501663 C 96.446981 94.072239 100.66298 92.395775 104.72746 90.448742 z M 91.435245 95.732657 C 89.769215 99.465336 87.414182 102.8201 84.527139 105.63593 C 83.799292 103.13479 82.949542 100.68696 81.977941 98.299942 C 85.18637 97.582811 88.342611 96.730671 91.435245 95.732657 z M 33.961234 98.038976 C 41.855574 99.894209 50.074764 100.9065 58.534928 100.9065 C 65.448347 100.9065 72.200431 100.22634 78.749197 98.974319 C 79.782994 102.0148 80.709417 105.10343 81.493733 108.25076 C 76.112233 112.33018 69.406562 114.75372 62.131091 114.75372 C 49.977409 114.75372 39.405797 107.99907 33.961234 98.038976 z M 81.458593 98.420348 C 82.470506 100.89906 83.348345 103.44515 84.095124 106.04779 C 83.408679 106.69297 82.69384 107.30725 81.952619 107.89057 C 81.184241 104.83444 80.277099 101.8359 79.27423 98.880268 C 80.006066 98.73656 80.732183 98.578889 81.458593 98.420348 z M 84.257388 106.61985 C 85.441046 110.87259 86.267246 115.27256 86.686697 119.7932 C 85.925098 120.16881 85.176399 120.56583 84.437739 120.97918 C 83.872541 116.72965 83.090859 112.54962 82.083361 108.45643 C 82.834214 107.87454 83.560757 107.26379 84.257388 106.61985 z M 108.34377 115.2834 C 124.58421 115.2834 138.94773 123.26831 147.75274 135.51834 C 143.90331 139.96568 140.80857 145.08021 138.6675 150.67039 C 138.31551 150.67983 137.96552 150.69726 137.61124 150.69726 C 120.43171 150.69726 105.87519 139.52088 100.79023 124.04462 C 102.80344 121.21914 104.71633 118.31931 106.49944 115.32991 C 107.11236 115.30697 107.72524 115.2834 108.34377 115.2834 z M 105.88346 115.34541 C 104.22259 118.1139 102.44325 120.80074 100.58352 123.42761 C 99.861368 121.09725 99.35841 118.67155 99.086974 116.17585 C 101.30355 115.74757 103.57037 115.46091 105.88346 115.34541 z M 98.565042 116.26887 C 98.856197 118.92151 99.411607 121.49389 100.20422 123.96091 C 96.033 129.78929 91.405749 135.26701 86.334781 140.30616 C 87.121369 135.92981 87.554861 131.43057 87.554861 126.82792 C 87.554861 124.55937 87.436537 122.31956 87.241185 120.10171 C 90.795829 118.38217 94.591615 117.08185 98.565042 116.26887 z M 186.39069 118.36332 C 198.71016 118.36332 209.99617 122.77172 218.76804 130.09128 C 219.63314 133.68805 220.72915 137.19259 222.04071 140.59245 C 221.79682 140.70112 221.55324 140.8104 221.31104 140.92215 C 218.44517 141.26077 215.53521 141.45493 212.57824 141.45493 C 197.85983 141.45493 184.16186 137.12318 172.65664 129.68924 C 174.28366 126.48441 175.48502 123.02964 176.18408 119.39374 C 179.48069 118.71824 182.89408 118.36332 186.39069 118.36332 z M 175.6239 119.52345 C 174.93233 123.00918 173.76935 126.32251 172.21119 129.40347 C 169.44357 127.58694 166.8099 125.58744 164.31865 123.42502 C 167.87334 121.69788 171.6633 120.38245 175.6239 119.52345 z M 86.730106 120.36319 C 86.911794 122.49602 87.025178 124.64802 87.025178 126.82792 C 87.025178 131.64777 86.553955 136.3555 85.687792 140.92318 C 85.588155 141.02082 85.484923 141.11473 85.384968 141.21205 C 85.444705 139.67448 85.501757 138.13611 85.501757 136.58391 C 85.501757 131.48462 85.14063 126.47281 84.509569 121.54503 C 85.238643 121.13294 85.978198 120.73803 86.730106 120.36319 z M 84.012442 121.8308 C 84.622286 126.66638 84.97259 131.58278 84.97259 136.58391 C 84.97259 138.30966 84.916439 140.02184 84.842365 141.72933 C 77.36372 148.92603 69.013065 155.21308 59.958097 160.42638 C 61.092157 143.9229 70.470302 129.69822 84.012442 121.8308 z M 163.81429 123.68289 C 166.38421 125.92639 169.1068 127.99613 171.97038 129.87269 C 168.10321 137.26687 161.92811 143.26257 154.39109 146.88716 C 152.89908 142.82639 150.87528 139.02549 148.42091 135.54986 C 152.71763 130.66625 157.93819 126.62019 163.81429 123.68289 z M 100.41247 124.57586 C 105.67717 140.07029 120.33893 151.22643 137.61124 151.22643 C 137.89477 151.22643 138.17457 151.21122 138.45666 151.20524 C 137.48928 153.81947 136.73852 156.53682 136.20667 159.33239 C 126.94635 157.06142 117.27677 155.83183 107.31645 155.83183 C 99.156296 155.83183 91.188787 156.65247 83.481725 158.19344 C 84.223911 154.2095 84.760813 150.15576 85.089379 146.04121 C 85.507545 144.44222 85.864294 142.81939 86.178718 141.18104 C 91.382054 136.06838 96.138913 130.50978 100.41247 124.57586 z M 172.41635 130.15898 C 183.99536 137.62947 197.775 141.98255 212.57824 141.98255 C 215.02562 141.98255 217.44333 141.85601 219.82999 141.62443 C 205.07789 148.91691 193.68315 161.96035 188.56988 177.82945 C 179.43186 171.1248 168.85556 166.27252 157.38626 163.81894 C 157.38626 163.81218 157.38677 163.80555 157.38677 163.79879 C 157.38677 158.04182 156.3859 152.52028 154.56317 147.3879 C 162.21232 143.72274 168.48479 137.65143 172.41635 130.15898 z M 219.44655 130.67884 C 222.20884 133.0678 224.71938 135.74 226.91018 138.66854 C 225.42112 139.18393 223.95689 139.75055 222.52233 140.37489 C 221.31018 137.22861 220.27504 133.99577 219.44655 130.67884 z M 148.06641 135.95914 C 150.46728 139.37899 152.44783 143.11512 153.90947 147.10471 C 149.41889 149.18908 144.46472 150.43971 139.24059 150.65592 C 141.34017 145.24254 144.34248 140.28376 148.06641 135.95914 z M 239.73265 136.26662 C 236.06444 137.72219 232.25566 138.89525 228.3256 139.75116 C 228.13618 139.47951 227.94445 139.20966 227.74992 138.94191 C 231.58904 137.66351 235.59597 136.75789 239.73265 136.26662 z M 227.23005 139.11812 C 227.41366 139.36919 227.59205 139.62424 227.77111 139.8788 C 226.22899 140.20209 224.66724 140.47111 223.09129 140.69632 C 224.44456 140.11799 225.82844 139.59906 227.23005 139.11812 z M 228.10132 140.34337 C 232.86795 147.28454 235.94201 155.47381 236.74214 164.32278 C 230.94714 157.49057 226.24007 149.7145 222.8696 141.25546 C 224.63369 141.01052 226.37915 140.71008 228.10132 140.34337 z M 222.32906 141.32419 C 225.8141 150.11039 230.7351 158.1641 236.80932 165.20335 C 236.8993 166.43645 236.96073 167.67727 236.96073 168.93336 C 236.96073 186.23696 228.26772 201.50226 215.0153 210.61867 C 209.25229 197.68186 200.25159 186.50665 189.01895 178.14881 C 194.22041 161.84611 206.10653 148.54036 221.45676 141.43478 C 221.74825 141.39999 222.03863 141.36235 222.32906 141.32419 z M 85.531212 141.79858 C 85.474591 142.07897 85.408008 142.35545 85.348278 142.6347 C 85.359698 142.40992 85.356211 142.18131 85.366365 141.95619 C 85.421055 141.90338 85.476615 141.85148 85.531212 141.79858 z M 84.823762 142.47347 C 84.765784 143.64095 84.657389 144.79464 84.56538 145.95285 C 83.376429 150.48891 81.772932 154.85607 79.800813 159.0151 C 72.916284 160.61801 66.248514 162.78191 59.87128 165.50514 C 59.851634 164.93768 59.827872 164.37103 59.827872 163.79879 C 59.827872 162.8797 59.859097 161.96795 59.909521 161.06148 C 68.967079 155.87993 77.326249 149.62933 84.823762 142.47347 z M 154.08 147.60649 C 155.86188 152.64073 156.84325 158.05341 156.85502 163.69595 C 153.35332 162.9714 149.7642 162.49117 146.11459 162.22937 C 143.03487 161.18627 139.90834 160.24731 136.72292 159.45125 C 137.26267 156.60646 138.03509 153.84522 139.02975 151.19077 C 144.38996 151.0001 149.47481 149.7369 154.08 147.60649 z M 84.358157 148.61522 C 84.02347 151.88635 83.525689 155.10766 82.92672 158.29318 C 82.092339 158.46407 81.274276 158.67777 80.446251 158.86575 C 81.987223 155.57054 83.298453 152.14811 84.358157 148.61522 z M 107.31645 156.36151 C 117.2453 156.36151 126.88396 157.58702 136.11365 159.85277 C 135.97929 160.60128 135.86053 161.3547 135.75915 162.11413 C 109.78553 163.49568 87.036863 176.9888 73.019831 197.03913 C 72.121765 196.08512 71.261924 195.09568 70.442728 194.07136 C 76.542417 183.24381 80.970535 171.35748 83.382506 158.74793 C 91.118415 157.18771 99.120532 156.36151 107.31645 156.36151 z M 82.825951 158.85904 C 80.430625 171.26086 76.074609 182.95717 70.091845 193.62487 C 67.390067 190.16461 65.145832 186.33242 63.454007 182.21161 C 70.352213 175.77638 76.055234 168.07833 80.172883 159.4714 C 81.057443 159.26751 81.934056 159.04332 82.825951 158.85904 z M 79.514525 159.62333 C 75.471574 167.95555 69.927041 175.41755 63.246268 181.68452 C 61.314702 176.81779 60.139698 171.56947 59.88575 166.0772 C 66.168807 163.38146 72.734179 161.22659 79.514525 159.62333 z M 136.62938 159.97215 C 139.13743 160.5996 141.61186 161.30837 144.05477 162.09036 C 142.76923 162.03041 141.47784 161.99218 140.17749 161.99218 C 138.87542 161.99218 137.58277 162.03025 136.29555 162.09036 C 136.39179 161.37919 136.50391 160.6736 136.62938 159.97215 z M 59.3602 161.37723 C 59.321152 162.17977 59.298705 162.98658 59.298705 163.79879 C 59.298705 164.45031 59.322613 165.09593 59.347798 165.7413 C 55.606681 167.36006 51.968197 169.16702 48.434252 171.14149 C 48.118469 169.86485 47.76867 168.6026 47.407958 167.34431 C 51.510248 165.56159 55.494292 163.56346 59.3602 161.37723 z M 140.17749 162.52134 C 142.14183 162.52134 144.08331 162.6155 146.01279 162.75234 C 149.67216 163.99398 153.25065 165.40501 156.74237 166.97947 C 156.00419 178.37858 151.33917 188.70413 144.07492 196.61125 C 138.86307 188.65837 135.8222 179.15366 135.8222 168.93336 C 135.8222 166.79397 135.97005 164.69056 136.22786 162.62108 C 137.53703 162.5585 138.85281 162.52134 140.17749 162.52134 z M 135.69146 162.65002 C 135.43851 164.71069 135.29303 166.8044 135.29303 168.93336 C 135.29303 179.30311 138.39154 188.94606 143.70079 197.00348 C 134.85185 206.42331 122.29044 212.31469 108.34377 212.31469 C 94.607647 212.31469 82.215824 206.59863 73.389835 197.42671 C 87.292731 177.48255 109.88446 164.05253 135.69146 162.65002 z M 148.13773 162.91408 C 151.08972 163.20071 153.99567 163.643 156.84676 164.23648 C 156.84026 164.96773 156.82375 165.69664 156.78526 166.41981 C 153.95543 165.14903 151.07796 163.96859 148.13773 162.91408 z M 157.37282 164.35792 C 168.78716 166.81376 179.31035 171.65755 188.39367 178.34984 C 187.66485 180.68385 187.08756 183.08319 186.63925 185.52769 C 177.87471 177.9008 168.00655 171.52111 157.29789 166.65184 C 157.34152 165.89192 157.36419 165.12672 157.37282 164.35792 z M 59.362784 166.31388 C 59.643252 171.86361 60.858135 177.1642 62.83389 182.07726 C 59.318831 185.32519 55.493941 188.24005 51.407197 190.77595 C 51.025058 184.23508 50.052812 177.85548 48.558276 171.67789 C 52.056863 169.71756 55.659548 167.92385 59.362784 166.31388 z M 157.255 167.2115 C 167.94666 172.09306 177.79418 178.48707 186.53176 186.13024 C 185.93935 189.55343 185.61347 193.06798 185.61347 196.66035 C 185.61347 204.68259 187.16924 212.33739 189.96928 219.3618 C 188.78573 219.44462 187.59532 219.50184 186.39069 219.50184 C 168.8727 219.50184 153.44069 210.59591 144.36638 197.06601 C 151.72201 189.10514 156.464 178.70298 157.255 167.2115 z M 48.079235 171.95281 C 49.567823 178.14633 50.536067 184.54137 50.901285 191.10048 C 39.816533 197.85658 26.842467 201.80727 12.959932 202.01609 C 22.593094 189.8721 34.512254 179.63684 48.079235 171.95281 z M 188.84739 178.6723 C 199.96971 186.98435 208.87552 198.08508 214.57501 210.92511 C 213.21587 211.83901 211.80973 212.68754 210.36132 213.46862 C 204.0142 203.15764 196.15432 193.88647 187.10486 185.93077 C 187.54497 183.45814 188.11826 181.03182 188.84739 178.6723 z M 63.041629 182.60487 C 64.770579 186.76386 67.060946 190.62795 69.809175 194.1158 C 64.180866 204.03813 57.146575 213.04899 48.96962 220.88832 C 50.679678 213.25338 51.611319 205.32459 51.611319 197.17401 C 51.611319 195.22652 51.554406 193.29239 51.452673 191.37023 C 55.596985 188.81913 59.476499 185.88121 63.041629 182.60487 z M 186.99685 186.53331 C 195.89673 194.39868 203.63078 203.54769 209.89055 213.70995 C 204.01989 216.79683 197.46939 218.7579 190.52015 219.31994 C 187.70642 212.31463 186.14264 204.67247 186.14264 196.66035 C 186.14264 193.2083 186.44465 189.82831 186.99685 186.53331 z M 70.160058 194.56228 C 70.97112 195.56758 71.823238 196.5371 72.709773 197.47477 C 64.645996 209.17092 59.556459 223.06435 58.500304 238.07539 C 49.935841 242.13461 42.154441 247.56521 35.416442 254.07338 C 41.506657 244.25862 46.05326 233.39599 48.754646 221.81902 C 57.163321 213.86593 64.391129 204.68786 70.160058 194.56228 z M 214.79412 211.40983 C 217.25256 217.04804 219.08152 223.01886 220.21343 229.23613 C 219.82139 229.64161 219.43237 230.04988 219.04606 230.46087 C 216.65993 224.70985 213.85498 219.17686 210.64709 213.91407 C 212.07189 213.14406 213.45481 212.3072 214.79412 211.40983 z M 210.17632 214.1554 C 213.41862 219.4713 216.24564 225.0654 218.64505 230.88151 C 214.91776 234.88552 211.46924 239.14783 208.31493 243.63525 C 200.64948 237.31833 194.5668 229.15678 190.72324 219.83516 C 197.70105 219.24857 204.27863 217.26414 210.17632 214.1554 z M 220.32815 229.87744 C 220.67541 231.87587 220.96511 233.89345 221.16376 235.93908 C 220.56647 234.27376 219.92582 232.62994 219.25845 230.99933 C 219.6116 230.62206 219.97016 230.25008 220.32815 229.87744 z M 218.85744 231.4205 C 219.7454 233.60276 220.56356 235.81906 221.32499 238.06299 C 221.46194 239.99325 221.5565 241.9352 221.5565 243.90036 C 221.5565 246.55199 221.41938 249.17113 221.17151 251.75776 C 216.69975 249.65953 212.52631 247.03523 208.72938 243.96082 C 211.82613 239.55269 215.20498 235.36062 218.85744 231.4205 z M 221.98748 240.02152 C 223.39987 244.43359 224.56221 248.95539 225.46324 253.57263 C 224.1816 253.08784 222.92328 252.55698 221.68466 251.98978 C 221.94572 249.32807 222.08618 246.63062 222.08618 243.90036 C 222.08618 242.59948 222.04748 241.30757 221.98748 240.02152 z M 32.011482 258.30206 C 29.553293 261.85407 26.886182 265.24798 24.029024 268.47198 C 26.436163 264.88148 29.105254 261.48203 32.011482 258.30206 z " />
  </g>
</svg>
