<?xml version="1.0" encoding="UTF-8" standalone="no"?>
<!-- Created with Inkscape (http://www.inkscape.org/) -->

<svg
   width="6.3000002cm"
   height="6.3000002cm"
   viewBox="0 0 63.000002 63.000002"
   version="1.1"
   id="svg1"
   inkscape:version="1.3 (0e150ed6c4, 2023-07-21)"
   sodipodi:docname="inner-ring.svg"
   xml:space="preserve"
   inkscape:export-filename="inner-ring_2048x2048.png"
   inkscape:export-xdpi="825.70001"
   inkscape:export-ydpi="825.70001"
   xmlns:inkscape="http://www.inkscape.org/namespaces/inkscape"
   xmlns:sodipodi="http://sodipodi.sourceforge.net/DTD/sodipodi-0.dtd"
   xmlns="http://www.w3.org/2000/svg"
   xmlns:svg="http://www.w3.org/2000/svg"><sodipodi:namedview
     id="namedview1"
     pagecolor="#ffffff"
     bordercolor="#000000"
     borderopacity="0.25"
     inkscape:showpageshadow="2"
     inkscape:pageopacity="0.0"
     inkscape:pagecheckerboard="0"
     inkscape:deskcolor="#d1d1d1"
     inkscape:document-units="cm"
     inkscape:zoom="2.8721099"
     inkscape:cx="98.707921"
     inkscape:cy="126.7361"
     inkscape:window-width="1920"
     inkscape:window-height="1023"
     inkscape:window-x="0"
     inkscape:window-y="0"
     inkscape:window-maximized="1"
     inkscape:current-layer="layer1"
     showguides="false"
     showgrid="false" /><defs
     id="defs1" /><g
     inkscape:label="Layer 1"
     inkscape:groupmode="layer"
     id="layer1"><g
       id="g58"
       style="stroke:none;stroke-opacity:1"><path
         id="path1"
         style="fill:#ededed;stroke:none;stroke-width:0.0264583;stroke-dasharray:none;stroke-opacity:1"
         inkscape:transform-center-x="-15.750001"
         inkscape:transform-center-y="1.9055749e-06"
         d="m 62.73054,27.388515 -4.48345,0.590142 a 26.985222,26.985222 0 0 1 0.238228,3.521233 26.985222,26.985222 0 0 1 -0.252181,3.519682 l 4.497398,0.592213 a 31.499999,31.499998 4.854053e-8 0 0 5e-6,-8.22327 z" /><path
         id="path2"
         style="fill:#ededed;stroke:none;stroke-width:0.0264583;stroke-dasharray:none;stroke-opacity:1"
         inkscape:transform-center-x="-15.615272"
         inkscape:transform-center-y="-6.0272727"
         d="m 60.601983,19.445331 -4.170805,1.72754 a 26.985222,26.985222 0 0 1 1.815942,6.80578 l 4.483449,-0.590147 A 31.499999,31.499998 4.854053e-8 0 0 60.602016,19.44532 Z" /><path
         id="path3"
         style="fill:#ededed;stroke:none;stroke-width:0.0264583;stroke-dasharray:none;stroke-opacity:1"
         inkscape:transform-center-x="-14.551124"
         inkscape:transform-center-y="-9.5880147"
         d="m 56.490605,12.3238 -3.587374,2.752802 a 26.985222,26.985222 0 0 1 3.527984,6.096249 l 4.170805,-1.72754 a 31.499999,31.499998 4.854053e-8 0 0 -4.111378,-7.121533 z" /><path
         id="path4"
         style="fill:#ededed;stroke:none;stroke-width:0.0264583;stroke-dasharray:none;stroke-opacity:1"
         d="m 50.675972,6.5091674 -2.752801,3.5878936 a 26.985222,26.985222 0 0 1 4.98006,4.979541 L 56.490605,12.3238 A 31.499999,31.499998 4.854053e-8 0 0 50.675972,6.5091674 Z"
         inkscape:transform-center-x="-12.495317"
         inkscape:transform-center-y="-12.495316" /><path
         id="path5"
         style="fill:#ededed;stroke:none;stroke-width:0.0264583;stroke-dasharray:none;stroke-opacity:1"
         inkscape:transform-center-x="-9.587982"
         inkscape:transform-center-y="-14.551084"
         d="M 43.554446,2.3977919 41.826901,6.5691133 A 26.985222,26.985222 0 0 1 47.92315,10.097097 L 50.675954,6.5092024 A 31.499999,31.499998 4.854053e-8 0 0 43.554428,2.3978264 Z" /><path
         id="path6"
         style="fill:#ededed;stroke:none;stroke-width:0.0264583;stroke-dasharray:none;stroke-opacity:1"
         inkscape:transform-center-x="-6.027263"
         inkscape:transform-center-y="-15.615258"
         d="M 35.611776,0.26923657 35.021633,4.7526854 a 26.985222,26.985222 0 0 1 6.805269,1.8164264 l 1.727544,-4.1713199 a 31.499999,31.499998 4.854053e-8 0 0 -7.94267,-2.12855533 z" /><path
         id="path7"
         style="fill:#ededed;stroke:none;stroke-width:0.0264583;stroke-dasharray:none;stroke-opacity:1"
         inkscape:transform-center-y="-15.750001"
         d="m 30.125809,0.02997545 a 31.499999,31.499998 4.854053e-8 0 0 -2.737303,0.23926099 l 0.592212,4.49739916 a 26.985222,26.985222 0 0 1 3.519167,-0.2516615 26.985222,26.985222 0 0 1 3.521748,0.2377113 L 35.611776,0.26923657 A 31.499999,31.499998 4.854053e-8 0 0 30.125809,0.02997545 Z" /><path
         id="path8"
         style="fill:#ededed;stroke:none;stroke-width:0.0264583;stroke-dasharray:none;stroke-opacity:1"
         inkscape:transform-center-x="6.0272653"
         inkscape:transform-center-y="-15.615258"
         d="M 27.388506,0.26923644 A 31.499999,31.499998 4.854053e-8 0 0 19.44532,2.3977901 l 1.747701,4.2188646 a 26.985222,26.985222 0 0 1 6.787698,-1.8500131 z" /><path
         id="path9"
         style="fill:#ededed;stroke:none;stroke-width:0.0264583;stroke-dasharray:none;stroke-opacity:1"
         inkscape:transform-center-x="9.5879925"
         inkscape:transform-center-y="-14.551105"
         d="m 19.44532,2.3977901 a 31.499999,31.499998 4.854053e-8 0 0 -7.121526,4.1113761 l 2.789494,3.6349208 a 26.985222,26.985222 0 0 1 6.079733,-3.5274323 z" /><path
         id="path10"
         style="fill:#ededed;stroke:none;stroke-width:0.0264583;stroke-dasharray:none;stroke-opacity:1"
         inkscape:transform-center-x="12.495315"
         inkscape:transform-center-y="-12.495322"
         d="M 12.323794,6.5091662 A 31.499999,31.499998 4.854053e-8 0 0 6.5091614,12.3238 l 3.6349216,2.789491 a 26.985222,26.985222 0 0 1 4.969205,-4.969204 z" /><path
         id="path11"
         style="fill:#ededed;stroke:none;stroke-width:0.0264583;stroke-dasharray:none;stroke-opacity:1"
         inkscape:transform-center-x="14.551103"
         inkscape:transform-center-y="-9.5879955"
         d="m 6.5091614,12.3238 a 31.499999,31.499998 4.854053e-8 0 0 -4.111376,7.121528 l 4.2188605,1.747696 A 26.985222,26.985222 0 0 1 10.14408,15.113291 Z" /><path
         id="path12"
         style="fill:#ededed;stroke:none;stroke-width:0.0264583;stroke-dasharray:none;stroke-opacity:1"
         inkscape:transform-center-x="15.615257"
         inkscape:transform-center-y="-6.0272654"
         d="m 2.3977854,19.445328 a 31.499999,31.499998 4.854053e-8 0 0 -2.1285523,7.943185 l 4.4973995,0.592215 a 26.985222,26.985222 0 0 1 1.8500135,-6.787704 z" /><path
         id="path13"
         style="fill:#ededed;stroke:none;stroke-width:0.0264583;stroke-dasharray:none;stroke-opacity:1"
         inkscape:transform-center-x="15.749999"
         inkscape:transform-center-y="-5.9017047e-06"
         d="m 0.2692331,27.388513 a 31.499999,31.499998 4.854053e-8 0 0 -7.6e-7,8.223268 L 4.766631,35.019574 A 26.985222,26.985222 0 0 1 4.5149671,31.499891 26.985222,26.985222 0 0 1 4.7666326,27.980728 Z" /><path
         id="path14"
         style="fill:#ededed;stroke:none;stroke-width:0.0264583;stroke-dasharray:none;stroke-opacity:1"
         inkscape:transform-center-x="15.615256"
         inkscape:transform-center-y="6.0272628"
         d="m 4.766631,35.019574 -4.49739866,0.592207 a 31.499999,31.499998 4.854053e-8 0 0 2.12855126,7.942673 l 4.218864,-1.747697 A 26.985222,26.985222 0 0 1 4.7666267,35.019575 Z" /><path
         id="path15"
         style="fill:#ededed;stroke:none;stroke-width:0.0264583;stroke-dasharray:none;stroke-opacity:1"
         inkscape:transform-center-x="14.551103"
         inkscape:transform-center-y="9.58799"
         d="m 6.6166476,41.806757 -4.218864,1.747697 a 31.499999,31.499998 4.854053e-8 0 0 4.1113782,7.121528 L 10.144081,47.887005 A 26.985222,26.985222 0 0 1 6.616649,41.806754 Z" /><path
         id="path16"
         style="fill:#ededed;stroke:none;stroke-width:0.0264583;stroke-dasharray:none;stroke-opacity:1"
         inkscape:transform-center-x="12.495315"
         inkscape:transform-center-y="12.495313"
         d="m 10.144081,47.887005 -3.6349192,2.788977 a 31.499999,31.499998 4.854053e-8 0 0 5.8146292,5.814632 l 2.789497,-3.634921 a 26.985222,26.985222 0 0 1 -4.969207,-4.968688 z" /><path
         id="path17"
         style="fill:#ededed;stroke:none;stroke-width:0.0264583;stroke-dasharray:none;stroke-opacity:1"
         inkscape:transform-center-x="9.587995"
         inkscape:transform-center-y="14.551102"
         d="m 15.113288,52.855693 -2.789497,3.634921 a 31.499999,31.499998 4.854053e-8 0 0 7.121529,4.111376 l 1.747184,-4.218344 a 26.985222,26.985222 0 0 1 -6.079216,-3.527953 z" /><path
         id="path18"
         style="fill:#ededed;stroke:none;stroke-width:0.0264583;stroke-dasharray:none;stroke-opacity:1"
         inkscape:transform-center-x="6.0272661"
         inkscape:transform-center-y="15.615255"
         d="M 21.192504,56.383646 19.44532,60.60199 a 31.499999,31.499998 4.854053e-8 0 0 7.943185,2.128554 l 0.592216,-4.497399 a 26.985222,26.985222 0 0 1 -6.788217,-1.849499 z" /><path
         id="path19"
         style="fill:#ededed;stroke:none;stroke-width:0.0264583;stroke-dasharray:none;stroke-opacity:1"
         inkscape:transform-center-x="5.3949182e-06"
         inkscape:transform-center-y="15.75"
         d="m 27.980721,58.233145 -0.592216,4.497399 a 31.499999,31.499998 4.854053e-8 0 0 8.223271,-1e-6 l -0.592211,-4.497397 a 26.985222,26.985222 0 0 1 -3.519682,0.252178 26.985222,26.985222 0 0 1 -3.519162,-0.252179 z" /><path
         id="path20"
         style="fill:#ededed;stroke:none;stroke-width:0.0264583;stroke-dasharray:none;stroke-opacity:1"
         inkscape:transform-center-x="-6.0272674"
         inkscape:transform-center-y="15.615257"
         d="m 41.807265,56.383642 a 26.985222,26.985222 0 0 1 -6.787699,1.849507 l 0.592214,4.4974 a 31.499999,31.499998 4.854053e-8 0 0 7.94267,-2.128557 z" /><path
         id="path21"
         style="fill:#ededed;stroke:none;stroke-width:0.0264583;stroke-dasharray:none;stroke-opacity:1"
         inkscape:transform-center-x="-9.5879917"
         inkscape:transform-center-y="14.5511"
         d="m 47.886997,52.855693 a 26.985222,26.985222 0 0 1 -6.079734,3.527953 l 1.747186,4.218346 a 31.499999,31.499998 4.854053e-8 0 0 7.121527,-4.111378 z" /><path
         id="path22"
         style="fill:#ededed;stroke:none;stroke-width:0.0264583;stroke-dasharray:none;stroke-opacity:1"
         inkscape:transform-center-y="12.495317"
         d="m 52.855687,47.887006 a 26.985222,26.985222 0 0 1 -4.96869,4.968687 l 2.788977,3.634923 a 31.499999,31.499998 4.854053e-8 0 0 5.81463,-5.814634 z"
         inkscape:transform-center-x="-12.495315" /><path
         id="path23"
         style="fill:#ededed;stroke:none;stroke-width:0.0264583;stroke-dasharray:none;stroke-opacity:1"
         inkscape:transform-center-x="-14.551099"
         inkscape:transform-center-y="9.5879903"
         d="m 56.383636,41.807273 a 26.985222,26.985222 0 0 1 -3.527951,6.079732 l 3.634919,2.788975 a 31.499999,31.499998 4.854053e-8 0 0 4.111377,-7.121529 z" /><path
         id="path24"
         style="fill:#ededed;stroke:none;stroke-width:0.0264583;stroke-dasharray:none;stroke-opacity:1"
         inkscape:transform-center-x="-15.61526"
         inkscape:transform-center-y="6.0272601"
         d="m 58.233137,35.019572 a 26.985222,26.985222 0 0 1 -1.849496,6.787697 l 4.218347,1.747183 a 31.499999,31.499998 4.854053e-8 0 0 2.12855,-7.942669 z" /></g><path
       id="path182"
       style="color:#000000;fill:#666666;-inkscape-stroke:none"
       d="M 28.27321 0.25373128 A 31.5 31.5 0 0 0 28.208614 0.25889892 C 27.965583 0.72166549 27.759229 1.2065358 27.605033 1.7151408 L 27.421065 0.32091064 A 31.5 31.5 0 0 0 27.367838 0.32504476 L 27.568343 1.8443319 C 27.503443 2.0715098 27.44723 2.3021948 27.401428 2.5367961 C 26.486941 2.0917816 25.46042 1.841748 24.375256 1.841748 C 21.296237 1.841748 18.687365 3.8522728 17.787545 6.6316365 C 17.734725 6.6564628 17.680457 6.6787624 17.627865 6.7039835 C 17.462228 6.5935707 17.291543 6.4900255 17.116268 6.3939249 C 16.84377 5.5973657 16.45239 4.856731 15.967501 4.1883748 A 31.5 31.5 0 0 0 15.922025 4.2162801 C 16.393991 4.8662253 16.777895 5.5846906 17.048055 6.3572347 C 16.077574 5.8392005 14.969856 5.5448812 13.792956 5.5448812 C 13.778479 5.5448812 13.764522 5.5468595 13.750065 5.5469482 A 31.5 31.5 0 0 0 13.656531 5.6043091 C 13.702357 5.6034078 13.746915 5.5975911 13.792956 5.5975911 C 14.980709 5.5975911 16.097742 5.8992982 17.072343 6.4295817 C 17.126042 6.5878038 17.175839 6.747843 17.220137 6.9101725 C 13.276364 8.900671 9.9963381 12.008868 7.7933227 15.82074 C 7.2377739 14.829104 6.919991 13.686504 6.919991 12.469006 C 6.919991 12.274358 6.9335736 12.082845 6.9494466 11.892297 A 31.5 31.5 0 0 0 6.8931193 11.957926 C 6.8807089 12.12729 6.8672811 12.296479 6.8672811 12.469006 C 6.8672811 13.706793 7.1940161 14.867679 7.7633504 15.87345 C 7.5168888 16.302551 7.280661 16.738288 7.0621012 17.184481 C 6.0374705 16.917063 5.0935913 16.454509 4.2622721 15.847095 A 31.5 31.5 0 0 0 4.2348836 15.891536 C 5.0678586 16.499342 6.0123756 16.963371 7.0378133 17.23254 C 6.9126153 17.489688 6.7953273 17.750885 6.6796956 18.013371 C 5.0752282 19.169728 3.9869562 20.995301 3.8225057 23.081795 C 2.4857766 24.542355 1.6696655 26.487239 1.6696655 28.623059 C 1.6696655 30.262024 2.1521786 31.787816 2.9796631 33.069816 C 2.8466982 33.464577 2.7734741 33.88658 2.7734741 34.32607 C 2.7734741 34.838746 2.8725716 35.328034 3.0509766 35.777144 C 2.8896756 36.567206 2.80448 37.384788 2.80448 38.222473 C 2.80448 41.064985 3.7825903 43.678144 5.4167236 45.749145 C 5.4082811 45.939289 5.4022542 46.130012 5.4022542 46.322237 C 5.4022542 47.541148 5.5837831 48.716107 5.9040324 49.8321 A 31.5 31.5 0 0 0 5.9980835 49.985579 C 5.6478687 48.825423 5.4549642 47.596657 5.4549642 46.322237 C 5.4549642 46.151872 5.461218 45.982984 5.4678833 45.814258 C 6.2215672 46.756236 7.1108737 47.584586 8.108549 48.267338 C 8.3954216 52.179304 11.222177 55.382991 14.947925 56.237911 C 15.862022 57.514813 17.35663 58.347859 19.046899 58.347859 C 19.619419 58.347859 20.168961 58.250881 20.681942 58.075008 C 20.989181 58.22884 21.305345 58.367558 21.631238 58.486352 C 20.515126 58.808194 19.337002 58.984513 18.11724 58.984513 C 17.365409 58.984513 16.633191 58.906545 15.917375 58.780908 A 31.5 31.5 0 0 0 16.033647 58.852221 C 16.713053 58.964486 17.406033 59.037223 18.11724 59.037223 C 19.36899 59.037223 20.577054 58.853402 21.719604 58.516325 C 22.225728 58.694913 22.751965 58.830397 23.294702 58.917334 C 24.048938 59.785069 25.089739 60.396182 26.269714 60.605086 C 27.185784 61.67811 28.547288 62.359501 30.068449 62.359501 C 31.943697 62.359501 33.576598 61.324734 34.430456 59.795833 C 35.180865 59.688619 35.908299 59.510976 36.607584 59.272351 C 37.406798 59.619225 38.287709 59.81237 39.21466 59.81237 C 41.961092 59.81237 44.312252 58.123795 45.288192 55.728381 C 46.055596 56.762717 47.122354 57.558501 48.357772 57.999044 A 31.5 31.5 0 0 0 48.418233 57.962353 C 47.164108 57.524684 46.082336 56.720161 45.311446 55.668953 C 45.444174 55.333816 45.550794 54.985729 45.627189 54.626123 C 45.713234 54.630375 45.799505 54.632841 45.886605 54.632841 C 47.150049 54.632841 48.307429 54.179737 49.206299 53.427746 C 49.984846 54.217341 50.892994 54.877839 51.89554 55.377498 A 31.5 31.5 0 0 0 51.939982 55.339258 C 50.935575 54.841759 50.025895 54.182122 49.246606 53.392606 C 49.491104 53.183761 49.716427 52.953134 49.9184 52.702726 C 52.477637 52.076171 54.652562 50.474468 56.029138 48.31333 C 56.394584 48.881464 56.662993 49.514391 56.838391 50.18505 A 31.5 31.5 0 0 0 56.880766 50.135441 C 56.701359 49.464892 56.428905 48.832633 56.060661 48.264754 C 57.038218 46.710457 57.605269 44.872028 57.605269 42.900224 C 57.605269 42.761362 57.600489 42.623794 57.594934 42.486295 C 58.408523 41.002049 58.968844 39.360149 59.220674 37.617859 C 59.804969 37.590951 60.374632 37.508868 60.925997 37.379114 C 61.371374 37.604894 61.793064 37.868738 62.197237 38.15581 A 31.5 31.5 0 0 0 62.211706 38.096382 C 61.827691 37.82489 61.426022 37.577216 61.005062 37.36051 C 61.525817 37.233125 62.028604 37.060732 62.510913 36.849947 A 31.5 31.5 0 0 0 62.527449 36.781217 C 62.017476 37.006884 61.485554 37.191886 60.932198 37.323303 C 60.419162 37.064454 59.881585 36.847112 59.322994 36.677864 C 59.352955 36.297185 59.37312 35.913864 59.37312 35.52548 C 59.37312 33.763202 59.051245 32.077885 58.4755 30.51545 A 27 27 0 0 1 58.479634 30.686499 C 59.018216 32.200524 59.32041 33.82662 59.32041 35.52548 C 59.32041 35.908743 59.3006 36.287144 59.271317 36.662878 C 58.858511 36.540216 58.433435 36.446417 58.000594 36.376591 A 27 27 0 0 1 57.989225 36.428267 C 58.42479 36.498383 58.8521 36.592808 59.267183 36.716622 C 59.243871 37.002105 59.213828 37.285641 59.174166 37.566182 C 59.045069 37.57152 58.91545 37.576001 58.785042 37.576001 C 58.435484 37.576001 58.092896 37.549389 57.75358 37.511405 A 27 27 0 0 1 57.742212 37.563082 C 58.085149 37.601762 58.431674 37.628711 58.785042 37.628711 C 58.913218 37.628711 59.040529 37.624539 59.167448 37.619409 C 58.92041 39.321262 58.378355 40.926932 57.59235 42.382426 C 57.547885 41.502767 57.385318 40.655559 57.129329 39.849764 A 27 27 0 0 1 57.097807 39.93348 C 57.348006 40.742126 57.504829 41.591882 57.541707 42.473893 C 56.709939 43.987751 55.613346 45.334179 54.316581 46.456079 C 54.235197 46.398988 54.143779 46.356557 54.059749 46.303117 A 27 27 0 0 1 54.028227 46.344975 C 54.109124 46.396349 54.197324 46.436951 54.275757 46.491736 C 53.994796 46.732981 53.702397 46.960564 53.403458 47.180066 A 27 27 0 0 1 53.303206 47.313908 C 53.652682 47.06317 53.9947 46.80277 54.320198 46.522742 C 54.982195 46.993363 55.552088 47.584638 55.998132 48.264754 C 54.640947 50.407135 52.496674 52.000474 49.970076 52.63658 C 50.534484 51.913253 50.896459 51.032268 51.011873 50.074979 A 27 27 0 0 1 50.952962 50.133891 C 50.826799 51.079091 50.456239 51.94658 49.887911 52.6557 C 49.519431 52.74517 49.142939 52.813791 48.759814 52.861373 C 48.648765 52.731512 48.547974 52.593224 48.443554 52.45778 A 27 27 0 0 1 48.40118 52.489302 C 48.499127 52.616413 48.593009 52.746894 48.696769 52.869124 C 48.409985 52.902902 48.11634 52.912432 47.822921 52.922351 A 27 27 0 0 1 47.746439 52.979195 C 48.080272 52.970674 48.412806 52.956668 48.73811 52.917183 C 48.877185 53.078955 49.020705 53.236374 49.169608 53.388989 C 48.280409 54.13115 47.135845 54.578064 45.886605 54.578064 C 45.803696 54.578064 45.721535 54.575751 45.639591 54.571863 C 45.647454 54.533229 45.650498 54.49292 45.657678 54.45404 A 27 27 0 0 1 45.598767 54.48608 C 45.593561 54.513287 45.591907 54.541679 45.586365 54.568762 C 45.547038 54.56649 45.509173 54.559509 45.470093 54.55636 A 27 27 0 0 1 45.398262 54.595634 C 45.457927 54.601245 45.513751 54.618912 45.573962 54.622505 C 45.500717 54.965439 45.400252 55.297783 45.275272 55.61831 C 45.112172 55.391392 44.969289 55.150049 44.836023 54.902592 A 27 27 0 0 1 44.788997 54.92843 C 44.928893 55.187772 45.079706 55.440301 45.252018 55.677221 C 44.291883 58.070102 41.951398 59.75966 39.21466 59.75966 C 38.315388 59.75966 37.459239 59.577317 36.680448 59.247546 C 38.232535 58.706768 39.631819 57.849666 40.821798 56.766561 A 27 27 0 0 1 40.689506 56.81617 C 39.512055 57.864672 38.134476 58.693091 36.610685 59.216024 C 36.043762 58.968001 35.522845 58.637367 35.054191 58.246057 A 27 27 0 0 1 34.925517 58.255359 C 34.828759 58.786573 34.650467 59.289387 34.398417 59.74674 C 33.846191 59.824459 33.282776 59.867147 32.709114 59.867147 C 31.8817 59.867147 31.073565 59.7835 30.293241 59.624267 C 30.708584 59.30505 31.068615 58.919925 31.369661 58.490486 A 27 27 0 0 1 31.308683 58.486352 C 31.005917 58.912784 30.6441 59.294395 30.227095 59.609281 C 29.236617 59.401285 28.291865 59.070672 27.407629 58.63518 C 27.734635 58.534972 28.050424 58.410493 28.360543 58.275512 A 27 27 0 0 1 28.246338 58.267244 C 27.95062 58.391942 27.64968 58.506888 27.3389 58.60004 C 26.915296 58.388007 26.50861 58.148407 26.115202 57.890006 A 27 27 0 0 1 25.987044 57.862101 C 26.397523 58.137882 26.820405 58.396331 27.264486 58.621228 C 26.663029 58.795867 26.035808 58.908713 25.389665 58.954541 C 25.252935 58.55195 25.182007 58.122161 25.153503 57.680717 A 27 27 0 0 1 25.099243 57.668831 C 25.126702 58.115821 25.198104 58.550866 25.335404 58.958675 C 25.139038 58.971423 24.941754 58.980379 24.742159 58.980379 C 24.258937 58.980379 23.784753 58.941823 23.322091 58.868758 C 23.127497 58.643219 22.952605 58.400737 22.799642 58.143221 C 23.283894 57.951219 23.746808 57.720477 24.199556 57.472977 A 27 27 0 0 1 24.123075 57.456441 C 23.685972 57.69259 23.239 57.912743 22.77277 58.097229 C 22.595419 57.791386 22.448682 57.465627 22.337655 57.123645 C 22.414565 57.057288 22.475739 56.975331 22.548494 56.904537 A 27 27 0 0 1 22.495784 56.8849 C 22.43439 56.944063 22.383921 57.013907 22.319568 57.069901 C 22.291831 56.981067 22.278923 56.886363 22.256006 56.795499 A 27 27 0 0 1 22.198128 56.774312 C 22.225281 56.884905 22.242524 56.999456 22.276676 57.107108 C 21.811969 57.502304 21.274277 57.813631 20.686076 58.018164 C 19.826236 57.585116 19.044171 57.02059 18.368905 56.347982 C 18.93392 56.255999 19.475153 56.098223 19.998779 55.904598 A 27 27 0 0 1 19.936251 55.869975 C 19.417701 56.058642 18.882904 56.213419 18.323946 56.30199 C 17.679217 55.65064 17.14088 54.897163 16.717326 54.074735 A 27 27 0 0 1 16.623275 54.004455 C 17.050508 54.857386 17.600177 55.638489 18.261934 56.312325 C 17.829237 56.377712 17.386343 56.41206 16.9354 56.41206 C 16.262459 56.41206 15.608537 56.33386 14.978931 56.190885 C 14.401227 55.376943 14.06064 54.38283 14.06064 53.308374 C 14.06064 52.922347 14.118633 52.552244 14.201717 52.191646 A 27 27 0 0 1 14.156242 52.15754 C 14.068842 52.528784 14.00793 52.910372 14.00793 53.308374 C 14.00793 54.372797 14.338696 55.359839 14.901933 56.173315 C 11.240636 55.307046 8.4661307 52.156075 8.1648763 48.307129 C 9.289681 49.067566 10.551637 49.637228 11.901599 49.988163 A 27 27 0 0 1 11.826668 49.913232 C 10.502154 49.557756 9.2640154 48.991129 8.1597086 48.238916 C 8.1450738 48.031366 8.1349039 47.822844 8.1349039 47.611564 C 8.1349039 46.854273 8.236514 46.121525 8.4165405 45.420483 A 27 27 0 0 1 8.3788167 45.351237 C 8.1882464 46.07327 8.082194 46.829593 8.082194 47.611564 C 8.082194 47.809333 8.0906154 48.004588 8.1033813 48.199125 C 7.1069659 47.512081 6.2197568 46.678771 5.4699503 45.731575 C 5.5401585 44.203232 5.8875482 42.748981 6.4523193 41.408842 A 27 27 0 0 1 6.4254476 41.336495 C 5.8523153 42.677993 5.4966226 44.134751 5.4187907 45.666463 C 3.8154695 43.612466 2.8571899 41.030035 2.8571899 38.222473 C 2.8571899 37.416971 2.938167 36.630644 3.0881836 35.869128 C 3.512249 36.862491 4.3368962 37.637461 5.3552287 38.01215 A 27 27 0 0 1 5.3417928 37.950655 C 4.3262633 37.566752 3.5098143 36.778049 3.1057536 35.772493 C 3.2345161 35.145787 3.4134124 34.537687 3.6349202 33.950382 C 3.970082 34.34312 4.3492309 34.694754 4.7516479 35.018534 A 27 27 0 0 1 4.7464803 34.945154 C 4.3542273 34.626155 3.984089 34.280662 3.6571411 33.895089 C 3.9001088 33.260447 4.1999378 32.655064 4.5413249 32.077112 A 27 27 0 0 1 4.5346069 31.984611 C 4.1798549 32.576699 3.8692496 33.198099 3.617867 33.85013 C 3.4088078 33.599915 3.2158422 33.336389 3.0375407 33.062064 C 3.3116512 32.265643 3.8440719 31.596082 4.5263387 31.128849 A 27 27 0 0 1 4.5309896 31.064254 C 3.8345717 31.530683 3.287475 32.202365 3.0013672 33.00522 C 2.1932119 31.739122 1.7228923 30.236608 1.7228922 28.623059 C 1.7228923 26.525114 2.5153104 24.612933 3.8163045 23.167578 C 3.8060793 23.321511 3.7987345 23.476144 3.7987345 23.632666 C 3.7987345 24.920641 4.1514489 26.126142 4.7640503 27.159066 C 4.7642522 27.313954 4.7797839 27.464877 4.7831706 27.618986 A 27 27 0 0 1 4.8265788 27.419515 C 4.8258591 27.363084 4.8196459 27.308098 4.8193441 27.251566 C 4.8296202 27.268294 4.8420025 27.28351 4.852417 27.300142 A 27 27 0 0 1 4.8694702 27.223144 C 4.8529181 27.196221 4.8329492 27.171765 4.8167602 27.144596 C 4.8167567 27.139395 4.8162435 27.134295 4.8162435 27.129093 C 4.8162435 25.280569 5.0433547 23.485631 5.4621989 21.766113 C 5.825779 21.531339 6.2139452 21.333508 6.6140665 21.157882 A 27 27 0 0 1 6.639388 21.090185 C 6.2366363 21.264084 5.8457243 21.459972 5.4792521 21.693249 C 5.7907755 20.432598 6.2087901 19.214684 6.7220703 18.047477 C 7.0692936 17.798336 7.4406717 17.58125 7.83208 17.399455 C 8.0447471 17.43365 8.2660954 17.438505 8.4837199 17.456299 A 27 27 0 0 1 8.5090413 17.410307 C 8.311332 17.395159 8.110817 17.389936 7.9173462 17.360697 C 8.1496309 17.256653 8.3879694 17.164438 8.6330647 17.086296 C 8.6438829 17.098374 8.6557422 17.109447 8.6666544 17.121435 A 27 27 0 0 1 8.6930094 17.073376 C 8.6913753 17.071569 8.6894736 17.070018 8.6878418 17.068209 C 8.6906888 17.067328 8.6937781 17.067019 8.6966268 17.066142 A 27 27 0 0 1 8.7296997 17.006197 C 8.7036477 17.014023 8.6755222 17.016677 8.6496012 17.024801 C 8.3362278 16.671515 8.059772 16.285546 7.8238118 15.872933 C 10.020034 12.060933 13.295023 8.9523905 17.234607 6.9618489 C 17.346151 7.381268 17.426715 7.8131697 17.471802 8.2558268 C 17.466388 8.3301138 17.466016 8.405789 17.4625 8.4806193 A 27 27 0 0 1 17.53433 8.4413452 C 17.529373 8.3787715 17.531354 8.3144222 17.525028 8.2522094 C 17.560268 7.7755181 17.643987 7.3124685 17.771525 6.8677978 C 18.139164 7.1293906 18.472769 7.4331013 18.781799 7.7602498 A 27 27 0 0 1 18.829342 7.7344116 C 18.51124 7.396374 18.166417 7.083411 17.786511 6.8145711 C 17.800861 6.7660264 17.815049 6.7174503 17.830436 6.6693603 C 20.695003 5.3266119 23.886454 4.5667254 27.25415 4.5444254 C 27.258979 4.6499021 27.278536 4.7510956 27.287223 4.8555176 A 27 27 0 0 1 27.338383 4.8441487 C 27.330074 4.7431883 27.311542 4.6453439 27.30686 4.5433919 C 27.340111 4.5432481 27.372794 4.5408081 27.406079 4.5408081 C 27.580573 4.5408081 27.752912 4.5503091 27.926461 4.554244 L 27.952816 4.753715 A 27 27 0 0 1 28.006042 4.7500976 L 27.980204 4.5552775 C 28.463678 4.5673715 28.93956 4.6082792 29.415259 4.6493286 A 27 27 0 0 1 29.820402 4.6203898 C 29.211613 4.5559902 28.595149 4.5179024 27.972969 4.5025675 L 27.745593 2.7786418 C 28.56779 3.2424478 29.285089 3.8697561 29.852441 4.617806 A 27 27 0 0 1 29.915487 4.6131551 C 29.332318 3.8368825 28.590078 3.187228 27.736808 2.7124959 L 27.622603 1.8469157 C 27.783045 1.2884672 28.006001 0.75751559 28.27321 0.25373128 z M 24.375256 1.894458 C 25.457801 1.894458 26.480811 2.1457559 27.39161 2.5915731 C 27.296205 3.0981285 27.244332 3.6200433 27.244332 4.1542684 C 27.244332 4.2676035 27.24815 4.3799885 27.2526 4.4922322 C 23.895141 4.5146453 20.713073 5.268921 17.853691 6.6016642 C 18.76038 3.8672884 21.336355 1.894458 24.375256 1.894458 z M 27.585913 1.9761068 L 27.678931 2.6789062 C 27.603934 2.6381274 27.527159 2.6001742 27.450521 2.5621175 C 27.488783 2.3641932 27.533927 2.1687728 27.585913 1.9761068 z M 43.826782 2.615861 C 43.910509 3.0642088 43.967149 3.5220049 43.976127 3.9925211 C 42.970595 4.5413116 42.198539 5.4532483 41.812951 6.5474039 A 27 27 0 0 1 41.861527 6.5680745 C 42.23937 5.493398 42.994006 4.5963299 43.977677 4.051949 C 43.97809 4.0861577 43.980261 4.1199617 43.980261 4.1542684 C 43.980261 5.2529373 43.75782 6.2966061 43.371513 7.2569214 A 27 27 0 0 1 43.418021 7.2801758 C 43.807734 6.3126133 44.032971 5.2613449 44.032971 4.1542684 C 44.032971 4.1104254 44.03054 4.0672109 44.02987 4.023527 C 44.593521 3.721026 45.229442 3.5406999 45.902624 3.4959106 A 31.5 31.5 0 0 0 45.824593 3.4483683 C 45.180754 3.5015971 44.571635 3.6774571 44.02832 3.9651326 C 44.018281 3.5125568 43.963049 3.0718632 43.884143 2.6396322 A 31.5 31.5 0 0 0 43.826782 2.615861 z M 27.440702 2.6163778 C 27.523779 2.6578727 27.606598 2.7003318 27.687716 2.7450521 L 27.919226 4.5010172 C 27.748065 4.4971987 27.578156 4.4880981 27.406079 4.4880981 C 27.372272 4.4880981 27.339082 4.4905339 27.30531 4.4906819 C 27.300876 4.378977 27.297042 4.2670622 27.297042 4.1542684 C 27.297042 3.6285184 27.347707 3.1151379 27.440702 2.6163778 z M 50.511645 6.4404337 C 50.710055 6.9556071 50.829972 7.5104138 50.829972 8.0956298 C 50.829972 8.3355666 50.81148 8.571468 50.776229 8.8015299 C 50.322769 8.7439023 49.861432 8.7110962 49.392334 8.7110962 C 48.969711 8.7110962 48.553901 8.7375595 48.143831 8.7844767 C 47.308867 8.0039853 46.187932 7.5256388 44.954879 7.5256388 C 44.654831 7.5256388 44.362718 7.5588886 44.078446 7.612972 A 27 27 0 0 1 44.157511 7.6527628 C 44.417072 7.6073288 44.682176 7.5783488 44.954879 7.5783488 C 46.158786 7.5783488 47.255085 8.0384569 48.077169 8.7927449 C 47.559401 8.8552242 47.056228 8.9619887 46.563566 9.0945353 A 27 27 0 0 1 46.61886 9.1332926 C 47.109627 9.0033637 47.610675 8.8998933 48.126261 8.8397705 C 48.820993 9.4962035 49.311424 10.365615 49.494136 11.34401 C 49.488457 11.349751 49.481242 11.353802 49.475533 11.359513 A 27 27 0 0 1 49.557182 11.429793 C 49.553504 11.407715 49.554949 11.384074 49.55098 11.362097 C 50.206633 10.69232 50.661909 9.8263567 50.821187 8.860441 C 52.118426 9.0316165 53.342382 9.4334608 54.45249 10.02161 A 31.5 31.5 0 0 0 54.365157 9.9192911 C 53.280029 9.3601971 52.090413 8.9747889 50.831006 8.8082478 C 50.866586 8.5759491 50.884749 8.3378648 50.884749 8.0956298 C 50.884749 7.5347669 50.769476 7.0042803 50.588126 6.5060628 A 31.5 31.5 0 0 0 50.511645 6.4404337 z M 17.141589 6.4693725 C 17.288156 6.5513486 17.431848 6.6381857 17.571537 6.7303385 C 17.468925 6.779893 17.369423 6.8348346 17.26768 6.8858846 C 17.229166 6.7455198 17.187106 6.6066953 17.141589 6.4693725 z M 17.764807 6.6993327 C 17.756279 6.7266429 17.749234 6.7545605 17.741036 6.7820149 C 17.720233 6.7675442 17.699993 6.7523377 17.679024 6.73809 C 17.707287 6.7245865 17.736479 6.7127217 17.764807 6.6993327 z M 17.622697 6.7634114 C 17.657537 6.78684 17.69115 6.8117127 17.725533 6.8357584 C 17.616174 7.2131666 17.537371 7.6037004 17.493506 8.0046793 C 17.445571 7.6410333 17.375094 7.2844725 17.282149 6.9370442 C 17.396093 6.8798133 17.507661 6.8187612 17.622697 6.7634114 z M 49.392334 8.7638061 C 49.858309 8.7638061 50.316464 8.7965954 50.766927 8.8537231 C 50.611592 9.794779 50.171939 10.639142 49.539095 11.296985 C 49.351677 10.337238 48.870553 9.4835197 48.192924 8.8315022 C 48.587055 8.788021 48.98661 8.7638061 49.392334 8.7638061 z M 52.087776 14.042554 A 27 27 0 0 1 52.145654 14.109216 C 54.642497 14.649735 56.598876 16.639822 57.08127 19.158004 C 56.604687 19.24617 56.144412 19.378535 55.696342 19.536275 A 27 27 0 0 1 55.72063 19.583817 C 56.164024 19.428208 56.619166 19.297406 57.090572 19.210197 C 57.159509 19.586936 57.197025 19.974187 57.197025 20.37085 C 57.197025 21.051624 57.086247 21.705317 56.889551 22.320601 A 27 27 0 0 1 56.92159 22.4038 C 57.133558 21.764427 57.250252 21.081345 57.250252 20.37085 C 57.250252 19.971145 57.211708 19.580556 57.142248 19.200895 C 57.675761 19.105331 58.224039 19.052584 58.785042 19.052584 C 59.268193 19.052584 59.742953 19.089793 60.206144 19.161104 C 60.21165 19.302899 60.216996 19.444808 60.216996 19.587952 C 60.216996 22.068535 59.37102 24.344623 57.967004 26.169462 A 27 27 0 0 1 57.981474 26.236125 C 59.408714 24.396572 60.269706 22.09627 60.269706 19.587952 C 60.269706 19.448078 60.264088 19.309517 60.258854 19.170923 C 60.304855 19.17828 60.34899 19.190797 60.394763 19.198828 A 31.5 31.5 0 0 0 60.370475 19.140434 C 60.332325 19.133883 60.295611 19.123265 60.257304 19.117179 C 60.252737 19.010083 60.23704 18.906157 60.229398 18.799886 A 31.5 31.5 0 0 0 60.163253 18.639689 C 60.176836 18.795649 60.197695 18.949572 60.204594 19.107361 C 59.741787 19.036581 59.267618 18.999874 58.785042 18.999874 C 58.220894 18.999874 57.669467 19.053097 57.132947 19.149219 C 56.642511 16.586702 54.638336 14.565462 52.087776 14.042554 z M 7.7933227 15.925643 C 8.024048 16.325085 8.2928087 16.699415 8.5958577 17.043404 C 8.3312363 17.128755 8.0739641 17.229926 7.8243286 17.345194 C 7.5841334 17.306098 7.3471352 17.257068 7.1142944 17.197917 C 7.3265084 16.765167 7.5547811 16.342275 7.7933227 15.925643 z M 7.0894897 17.246492 C 7.3029681 17.301063 7.520432 17.345071 7.740096 17.382918 C 7.3984196 17.546276 7.0728639 17.737968 6.7649617 17.952909 C 6.8704681 17.715969 6.9761484 17.479047 7.0894897 17.246492 z M 6.6368042 18.108455 C 6.131704 19.269613 5.7220345 20.481416 5.4156901 21.734074 C 4.8524997 22.099882 4.336921 22.53254 3.8803833 23.021334 C 4.0579446 21.009217 5.1010825 19.246134 6.6368042 18.108455 z M 5.3986369 21.806938 C 4.9926417 23.491308 4.7714095 25.247511 4.7656006 27.055196 C 4.1853743 26.047311 3.8514445 24.879309 3.8514445 23.632666 C 3.8514445 23.454495 3.8608682 23.278772 3.8741821 23.104016 C 4.3264826 22.611999 4.8384648 22.17604 5.3986369 21.806938 z M 3.0158366 33.12666 C 3.194118 33.397965 3.3878875 33.657786 3.5961629 33.905424 C 3.3780429 34.479585 3.2015204 35.074244 3.0716471 35.686194 C 2.9132529 35.262873 2.8261841 34.804786 2.8261841 34.32607 C 2.8261841 33.907295 2.8932047 33.504579 3.0158366 33.12666 z M 59.319376 36.731091 C 59.850729 36.892729 60.362631 37.098055 60.852616 37.34139 C 60.326134 37.461502 59.7838 37.538994 59.227392 37.565149 C 59.266186 37.289646 59.29629 37.01134 59.319376 36.731091 z M 57.544291 42.574662 C 57.54775 42.683022 57.552559 42.791023 57.552559 42.900224 C 57.552559 44.853082 56.993472 46.674428 56.029138 48.216178 C 55.583688 47.542328 55.017121 46.956322 54.360506 46.487602 C 55.635955 45.382163 56.716852 44.059284 57.544291 42.574662 z M 49.835201 52.721846 C 49.645668 52.950539 49.435916 53.161201 49.209916 53.353849 C 49.069122 53.209691 48.933132 53.061312 48.801155 52.908915 C 49.1518 52.864114 49.496751 52.801662 49.835201 52.721846 z M 15.024923 56.255997 C 15.640423 56.391415 16.279197 56.46477 16.9354 56.46477 C 17.401633 56.46477 17.859589 56.428266 18.306376 56.358834 C 18.979323 57.034479 19.75889 57.603346 20.616313 58.041418 C 20.122621 58.20492 19.595423 58.29515 19.046899 58.29515 C 17.395423 58.29515 15.932261 57.492127 15.024923 56.255997 z M 22.294763 57.160852 C 22.405245 57.496063 22.549932 57.81567 22.723677 58.116349 C 22.395553 58.244601 22.061427 58.360028 21.720638 58.461031 C 21.388071 58.342973 21.064519 58.205865 20.751188 58.051237 C 21.320164 57.846818 21.841499 57.54313 22.294763 57.160852 z M 22.750032 58.162858 C 22.894497 58.40695 23.058333 58.637855 23.239925 58.853772 C 22.748166 58.771416 22.270404 58.649412 21.809005 58.491003 C 22.128379 58.394219 22.441831 58.283553 22.750032 58.162858 z M 34.98081 58.26001 C 35.448009 58.655842 35.971342 58.987192 36.537305 59.240828 C 35.869743 59.465085 35.177135 59.634027 34.463013 59.738472 C 34.709123 59.283722 34.885585 58.785888 34.98081 58.26001 z M 27.333215 58.656368 C 28.222791 59.099722 29.174143 59.437123 30.171802 59.650622 C 29.330935 60.267853 28.293362 60.632991 27.169918 60.632991 C 26.871969 60.632991 26.580475 60.6057 26.296586 60.55651 C 25.91225 60.102719 25.608747 59.578568 25.407235 59.006217 C 26.071533 58.958095 26.71611 58.839715 27.333215 58.656368 z M 23.375834 58.93077 C 23.821533 58.998014 24.277707 59.033089 24.742159 59.033089 C 24.947618 59.033089 25.150912 59.02378 25.352974 59.010351 C 25.549458 59.573364 25.842939 60.091297 26.214937 60.542041 C 25.094763 60.328991 24.104919 59.748864 23.375834 58.93077 z M 30.240015 59.666125 C 31.037132 59.831844 31.86288 59.919857 32.709114 59.919857 C 33.271557 59.919857 33.82386 59.878562 34.365861 59.804101 C 33.516061 61.298398 31.91048 62.306791 30.068449 62.306791 C 28.586192 62.306791 27.257568 61.653059 26.35188 60.619555 C 26.618417 60.662266 26.891367 60.685701 27.169918 60.685701 C 28.321197 60.685701 29.383982 60.306293 30.240015 59.666125 z " /><g
       id="g180"
       style="fill:#9c9c9c;fill-opacity:1"
       transform="translate(0.05699733,0.0651398)"><g
         id="g131"
         style="fill:#9c9c9c;fill-opacity:1"><path
           id="path108"
           style="fill:#9c9c9c;fill-opacity:1;stroke:none;stroke-width:0.125444;stroke-linecap:round;stroke-linejoin:round"
           d="m 30.615061,0.60000343 1e-6,3.54031457 0.221298,6e-6 V 2.3658456 c 0.863778,-0.05725 1.548862,-0.777476 1.548858,-1.65541827 l 2e-6,-0.1101965 -0.22151,-1.4e-6 A 1.3271266,1.5264011 0 0 1 32.106,1.0455767 c -0.03778,0.1572394 -0.100799,0.3037072 -0.184993,0.4349764 a 1.3271266,1.5264011 0 0 1 -0.0028,0.00435 1.3271266,1.5264011 0 0 1 -1.081414,0.6417675 l -1.9e-5,-0.2044235 c 0.619003,-0.056449 1.105894,-0.5785131 1.105891,-1.21180188 l -2e-5,-0.11022772 -0.247701,2.453e-5 a 0.85827815,1.0600689 0 0 1 -0.02159,0.2363878 C 31.649857,1.0019451 31.588789,1.1512164 31.4981,1.276135 a 0.85827815,1.0600689 0 0 1 -0.66132,0.3842282 l 10e-7,-0.83862274 -5e-6,-0.22148665 -4.29e-4,1.3e-7 1e-6,-2.1808e-4 z" /><path
           style="color:#000000;fill:#9c9c9c;fill-opacity:1;stroke:none;stroke-width:0.418147;stroke-linejoin:bevel;-inkscape-stroke:none"
           d="m 38.794887,1.4646614 -0.178066,0.055488 -0.890509,3.3234422 0.213828,0.057301 0.845276,-3.1546262 1.120695,0.9462405 -0.683793,2.5519451 0.213831,0.057289 0.701969,-2.619784 -0.0358,-0.1127253 z"
           id="path109" /><path
           id="path110"
           style="fill:#9c9c9c;fill-opacity:1;stroke:none;stroke-width:0.221269;stroke-linecap:round;stroke-linejoin:bevel;stroke-dasharray:none;stroke-opacity:1"
           d="m 46.183386,4.2972905 -1.770156,3.0660027 0.191625,0.1106343 0.666512,-1.15443 0.08606,-0.00819 1.79325,-0.1490957 0.07495,-0.1820433 -1.015148,-1.1756948 -0.03863,-0.044566 0.203226,-0.3519997 z m -0.128717,0.6654858 0.861113,0.9969328 -1.509035,0.1253087 z" /><path
           id="path111"
           style="color:#000000;fill:#9c9c9c;fill-opacity:1;stroke:none;stroke-width:0.418146;-inkscape-stroke:none"
           d="M 23.396065,1.6813822 23.752373,3.0111423 22.995274,2.5742069 22.88433,2.7654498 23.77672,3.2806719 23.261442,4.172854 23.453312,4.28363 23.890456,3.5264744 24.312366,5.1010639 24.526097,5.043795 24.10441,3.47004 24.860508,3.9065731 24.971284,3.7147034 24.078949,3.19969 24.594171,2.3072992 24.402469,2.19715 23.96588,2.9530389 23.609796,1.6241133 Z" /><path
           id="path112"
           style="color:#000000;fill:#9c9c9c;fill-opacity:1;stroke:none;stroke-width:0.418146;stroke-linejoin:bevel;-inkscape-stroke:none"
           d="m 52.840759,9.1417153 -0.18534,-0.049052 -2.435232,2.4352347 0.156464,0.156462 1.449862,-1.449862 0.441424,1.594101 0.213138,-0.05825 -0.474729,-1.715727 0.67153,-0.6715309 0.44158,1.5942559 0.212976,-0.05841 z" /><path
           style="color:#000000;fill:#9c9c9c;fill-opacity:1;stroke:none;stroke-width:0.418146;stroke-linejoin:bevel;-inkscape-stroke:none"
           d="m 58.557137,16.564638 -2.287974,-0.387398 -0.125026,0.08073 -0.586025,2.192879 0.214185,0.05736 0.559391,-2.095403 2.189238,0.369923 z"
           id="path113" /><path
           style="color:#000000;fill:#9c9c9c;fill-opacity:1;stroke:none;stroke-width:0.418146;stroke-linejoin:bevel;-inkscape-stroke:none"
           d="m 61.164964,22.823448 -0.129172,-0.15389 -3.337691,0.89433 0.05727,0.213734 1.234575,-0.330806 1.111252,1.282095 0.18341,-0.02548 z m -0.300673,0.121138 -0.707847,1.510865 -0.929048,-1.072257 z"
           id="path114" /><path
           id="path115"
           style="color:#000000;fill:#9c9c9c;fill-opacity:1;stroke:none;stroke-width:0.418146;-inkscape-stroke:none"
           d="m 62.399783,30.615073 -3.54053,-10e-7 v 0.221272 l 2.166664,1e-6 -0.797998,1.327617 -1.368675,-2e-6 v 0.221271 l 3.540531,-2e-6 1e-6,-0.221271 -1.914068,-10e-7 0.799294,-1.327618 1.114773,1e-6 z" /><path
           id="path116"
           style="color:#000000;fill:#9c9c9c;fill-opacity:1;stroke:none;stroke-width:0.418147;-inkscape-stroke:none"
           d="m 61.375509,39.390674 -0.894577,-0.239702 0.603895,-0.50886 -0.14235,-0.169226 -0.722036,0.608292 -2.26462,-0.606804 -0.05727,0.213732 2.115594,0.566875 -0.603891,0.508857 0.142551,0.169284 0.721826,-0.608349 1.043604,0.279633 z" /><path
           id="path117"
           style="color:#000000;fill:#9c9c9c;fill-opacity:1;stroke:none;stroke-width:0.418147;stroke-linejoin:bevel;-inkscape-stroke:none"
           d="m 58.225825,47.00904 -0.555925,-1.421811 -0.128002,-0.06743 -1.360141,0.315574 0.05006,0.215798 1.266509,-0.294274 0.521367,1.332994 z m -0.953092,-0.714448 -0.04992,-0.215672 -1.266506,0.294273 -0.52137,-1.332992 -0.206869,0.08042 0.556673,1.422238 0.127993,0.06743 z" /><path
           style="color:#000000;fill:#9c9c9c;fill-opacity:1;stroke:none;stroke-width:0.418147;stroke-linejoin:bevel;-inkscape-stroke:none"
           d="m 53.301774,53.397085 0.09416,-0.187713 -2.188687,-2.188686 0.910789,0.08711 0.0214,-0.220048 -1.218045,-0.117114 -0.0884,0.188865 2.170787,2.170784 -1.022828,-0.148319 -0.03179,0.218896 z"
           id="path118" /><path
           style="color:#000000;fill:#9c9c9c;fill-opacity:1;stroke:none;stroke-width:0.418147;stroke-linejoin:bevel;-inkscape-stroke:none"
           d="m 46.344691,58.609389 0.06606,-1.279157 1.128378,0.588608 0.147486,-0.153002 -1.710947,-2.963448 -0.206544,0.05234 -0.03005,1.312121 -1.16308,-0.624208 -0.104315,0.19508 1.321507,0.709082 0.163007,-0.09507 0.02501,-1.097029 1.323019,2.291538 -0.943671,-0.492496 -0.161712,0.0924 -0.07473,1.452023 z"
           id="path119" /><path
           id="path120"
           style="color:#000000;fill:#9c9c9c;fill-opacity:1;stroke:none;stroke-width:0.418146;-inkscape-stroke:none"
           d="m 39.604814,61.318129 -0.248425,-0.927135 0.772007,0.553522 0.129376,-0.180073 -0.991702,-0.710531 -0.577551,-2.155459 -0.213731,0.05727 0.582306,2.173202 -0.509387,1.092834 0.200858,0.09338 0.397676,-0.853515 0.244846,0.91378 z" /><path
           style="color:#000000;fill:#9c9c9c;fill-opacity:1;stroke:none;stroke-width:0.418146;stroke-linejoin:bevel;-inkscape-stroke:none"
           d="m 30.7506,62.399811 1.632989,-1.231574 -0.01633,-0.187022 -1.480304,-0.76851 1.498266,-1.179308 -0.137185,-0.173946 -1.632982,1.285473 0.01796,0.184573 1.47622,0.766875 -1.492549,1.127038 z"
           id="path121" /><path
           id="path122"
           style="color:#000000;fill:#9c9c9c;fill-opacity:1;stroke:none;stroke-width:0.418147;stroke-linejoin:bevel;-inkscape-stroke:none"
           d="m 23.557665,61.361729 1.046185,-0.705491 -0.124065,-0.183788 -0.794928,0.537264 0.819779,-3.059451 -0.213652,-0.05725 -0.817316,3.050267 -0.372563,-0.84875 -0.203064,0.08853 0.49647,1.131592 z" /><path
           style="color:#000000;fill:#9c9c9c;fill-opacity:1;stroke:none;stroke-width:0.418147;stroke-linejoin:bevel;-inkscape-stroke:none"
           d="m 16.666398,58.61592 0.195299,0.0081 1.67708,-2.904792 -0.09725,-0.166474 -1.860478,0.03015 -0.08882,0.175055 0.848576,1.191546 -1.383789,-0.248198 -0.119542,0.15637 z m 0.109648,-0.284676 -0.646975,-1.374092 1.305232,0.233962 z m 0.815062,-1.411725 -0.795506,-1.118468 1.454578,-0.02308 z"
           id="path123" /><path
           style="color:#000000;fill:#9c9c9c;fill-opacity:1;stroke:none;stroke-width:0.418147;stroke-linejoin:bevel;-inkscape-stroke:none"
           d="m 10.134094,53.833177 0.186568,0.09762 2.458951,-2.458952 -0.156536,-0.156535 -2.2089,2.208898 0.179523,-0.989323 -0.128808,-0.128808 -0.9893281,0.179514 2.2088981,-2.2089 -0.156535,-0.156534 -2.4589504,2.458952 0.098199,0.187146 1.1804904,-0.21357 z"
           id="path124" /><path
           id="path125"
           style="color:#000000;fill:#9c9c9c;fill-opacity:1;stroke:none;stroke-width:0.418147;stroke-linejoin:bevel;-inkscape-stroke:none"
           d="M 5.0818668,47.542369 5.2368038,47.68496 8.248351,45.946241 8.1377155,45.754614 5.4325087,47.316469 5.7950423,46.5485 6.6408002,46.618359 6.976144,46.42475 5.8161995,46.328439 6.3130317,45.275342 7.4740089,44.60505 7.3632674,44.41324 l -3.0115456,1.738718 0.046456,0.206219 1.1955507,0.09921 z M 4.7688045,46.16691 5.9767523,45.469499 5.6145638,46.236769 Z" /><path
           style="color:#000000;fill:#9c9c9c;fill-opacity:1;stroke:none;stroke-width:0.418146;stroke-linejoin:bevel;-inkscape-stroke:none"
           d="M 1.8390094,40.192097 1.9749961,40.327249 5.3016426,39.435876 5.2443752,39.222148 2.1007444,40.064481 2.5154682,38.463096 2.301768,38.407081 Z"
           id="path126" /><path
           id="path127"
           style="color:#000000;fill:#9c9c9c;fill-opacity:1;stroke:none;stroke-width:0.418147;stroke-linejoin:bevel;-inkscape-stroke:none"
           d="m 0.59997559,32.209401 0.15104125,0.161634 0.76752686,-0.719346 0.7817937,0.733173 0.1519082,-8.56e-4 0.7673151,-0.731226 0.7679591,0.732096 0.1527663,-0.16013 L 3.3798902,31.500002 4.1402856,30.775473 3.9875467,30.614673 3.219585,31.346982 2.4522732,30.615535 2.3003714,30.61467 1.5183628,31.348058 0.75104954,30.628503 0.60001046,30.790137 1.3567353,31.499754 Z M 1.6801762,31.5 2.3755371,30.848295 3.0592233,31.500006 2.3755331,32.152145 Z" /><path
           id="path128"
           style="color:#000000;fill:#9c9c9c;fill-opacity:1;stroke:none;stroke-width:0.418144;stroke-linejoin:bevel;-inkscape-stroke:none"
           d="m 1.4792076,24.150591 -0.01759,0.216758 3.3353576,0.893707 0.1010787,-0.191032 -1.1710765,-1.011977 1.5201691,-0.290857 0.00798,-0.215974 -3.3353584,-0.893706 -0.093144,0.196508 1.5100418,1.099447 z m 0.6149014,0.157206 1.4096632,-0.149782 0.8841817,0.764412 z m 0.3436134,-1.282382 2.2938421,0.614633 -1.1479304,0.219909 z" /><path
           style="color:#000000;fill:#9c9c9c;fill-opacity:1;stroke:none;stroke-width:0.418147;stroke-linejoin:bevel;-inkscape-stroke:none"
           d="m 4.6924742,16.131905 0.7845183,1.365626 0.1101963,0.05414 1.2004113,-0.158307 0.463107,1.118739 0.2044753,-0.08465 L 7.0144267,17.36311 8.1565623,17.212635 8.1276306,16.993231 6.9272505,17.151519 6.4641428,16.032781 6.3621469,15.964431 4.788036,15.96638 Z m 0.2861169,0.05488 1.3095307,-0.001 0.4122805,0.996064 -1.0687534,0.140981 z"
           id="path129" /><path
           style="color:#000000;fill:#9c9c9c;fill-opacity:1;stroke:none;stroke-width:0.418146;stroke-linejoin:bevel;-inkscape-stroke:none"
           d="m 9.0246009,10.276137 1.7988811,1.798882 0.189385,-0.07389 0.06849,-1.858703 1.541897,1.541898 0.15646,-0.156461 -1.721496,-1.721497 -0.188805,0.074465 -0.06906,1.858126 -1.6192814,-1.619282 z"
           id="path130" /><path
           id="path131"
           style="color:#000000;fill:#9c9c9c;fill-opacity:1;stroke:none;stroke-width:0.418146;-inkscape-stroke:none"
           d="m 15.953853,4.7952826 0.494075,0.8557639 -0.670313,0.3870055 0.110636,0.1916242 0.670314,-0.3870056 0.401483,0.6953898 -0.670313,0.3870054 0.110636,0.1916252 0.670314,-0.3870058 0.653329,1.131599 0.191625,-0.110635 L 17.262306,6.6190514 17.933369,6.2316134 17.822734,6.039988 17.151671,6.427426 16.750188,5.7320362 17.421251,5.3445981 17.310616,5.1529736 16.639553,5.5404116 16.145478,4.6846477 Z" /></g><g
         id="g133"
         style="fill:#9c9c9c;fill-opacity:1"><path
           style="color:#000000;fill:#9c9c9c;fill-opacity:1;-inkscape-stroke:none"
           d="M 35.021633,4.7526855 35.611776,0.26923656"
           id="path132" /><path
           style="color:#000000;fill:#9c9c9c;fill-opacity:1;-inkscape-stroke:none"
           d="m 35.546875,0.25976563 -0.591797,4.48437497 0.132813,0.017578 0.589843,-4.48437495 z"
           id="path133" /></g><g
         id="g135"
         style="fill:#9c9c9c;fill-opacity:1"><path
           style="color:#000000;fill:#9c9c9c;fill-opacity:1;-inkscape-stroke:none"
           d="M 41.826902,6.5691133 43.554427,2.3978264"
           id="path134" /><path
           style="color:#000000;fill:#9c9c9c;fill-opacity:1;-inkscape-stroke:none"
           d="M 43.494141,2.3730469 41.765625,6.5429687 41.888672,6.59375 43.615234,2.4238281 Z"
           id="path135" /></g><g
         id="g137"
         style="fill:#9c9c9c;fill-opacity:1"><path
           style="color:#000000;fill:#9c9c9c;fill-opacity:1;-inkscape-stroke:none"
           d="M 47.92315,10.097097 50.675971,6.5091674"
           id="path136" /><path
           style="color:#000000;fill:#9c9c9c;fill-opacity:1;-inkscape-stroke:none"
           d="m 50.623047,6.46875 -2.751953,3.587891 0.105468,0.08008 2.751954,-3.5878909 z"
           id="path137" /></g><g
         id="g139"
         style="fill:#9c9c9c;fill-opacity:1"><path
           style="color:#000000;fill:#9c9c9c;fill-opacity:1;-inkscape-stroke:none"
           d="m 52.90323,15.076602 3.587412,-2.752824"
           id="path138" /><path
           style="color:#000000;fill:#9c9c9c;fill-opacity:1;-inkscape-stroke:none"
           d="m 56.451172,12.271484 -3.587891,2.751954 0.08008,0.105468 3.587891,-2.751953 z"
           id="path139" /></g><g
         id="g141"
         style="fill:#9c9c9c;fill-opacity:1"><path
           style="color:#000000;fill:#9c9c9c;fill-opacity:1;-inkscape-stroke:none"
           d="m 56.431214,21.172851 4.170807,-1.72754"
           id="path140" /><path
           style="color:#000000;fill:#9c9c9c;fill-opacity:1;-inkscape-stroke:none"
           d="m 60.576172,19.384766 -4.169922,1.726562 0.05078,0.123047 4.169922,-1.728516 z"
           id="path141" /></g><g
         id="g143"
         style="fill:#9c9c9c;fill-opacity:1"><path
           style="color:#000000;fill:#9c9c9c;fill-opacity:1;-inkscape-stroke:none"
           d="m 58.247121,27.97865 4.48342,-0.590135"
           id="path142" /><path
           style="color:#000000;fill:#9c9c9c;fill-opacity:1;-inkscape-stroke:none"
           d="m 62.722656,27.322266 -4.484375,0.589843 0.01758,0.132813 4.482422,-0.591797 z"
           id="path143" /></g><g
         id="g145"
         style="fill:#9c9c9c;fill-opacity:1"><path
           style="color:#000000;fill:#9c9c9c;fill-opacity:1;-inkscape-stroke:none"
           d="m 58.233137,35.019572 4.497398,0.592212"
           id="path144" /><path
           style="color:#000000;fill:#9c9c9c;fill-opacity:1;-inkscape-stroke:none"
           d="m 58.242187,34.953125 -0.01758,0.132812 4.498047,0.591797 0.01563,-0.130859 z"
           id="path145" /></g><g
         id="g147"
         style="fill:#9c9c9c;fill-opacity:1"><path
           style="color:#000000;fill:#9c9c9c;fill-opacity:1;-inkscape-stroke:none"
           d="m 56.383636,41.807272 4.21835,1.747179"
           id="path146" /><path
           style="color:#000000;fill:#9c9c9c;fill-opacity:1;-inkscape-stroke:none"
           d="m 56.408203,41.746094 -0.05078,0.123047 4.21875,1.746093 0.05078,-0.121093 z"
           id="path147" /></g><g
         id="g149"
         style="fill:#9c9c9c;fill-opacity:1"><path
           style="color:#000000;fill:#9c9c9c;fill-opacity:1;-inkscape-stroke:none"
           d="m 52.855687,47.887006 3.634918,2.788973"
           id="path148" /><path
           style="color:#000000;fill:#9c9c9c;fill-opacity:1;-inkscape-stroke:none"
           d="m 52.896484,47.833984 -0.08203,0.105469 3.636719,2.789063 0.08008,-0.105469 z"
           id="path149" /></g><g
         id="g151"
         style="fill:#9c9c9c;fill-opacity:1"><path
           style="color:#000000;fill:#9c9c9c;fill-opacity:1;-inkscape-stroke:none"
           d="m 47.886998,52.855693 2.788978,3.63492"
           id="path150" /><path
           style="color:#000000;fill:#9c9c9c;fill-opacity:1;-inkscape-stroke:none"
           d="m 47.939453,52.814453 -0.105469,0.08203 2.789063,3.634766 0.105469,-0.08008 z"
           id="path151" /></g><g
         id="g153"
         style="fill:#9c9c9c;fill-opacity:1"><path
           style="color:#000000;fill:#9c9c9c;fill-opacity:1;-inkscape-stroke:none"
           d="m 41.807264,56.383642 1.747184,4.21835"
           id="path152" /><path
           style="color:#000000;fill:#9c9c9c;fill-opacity:1;-inkscape-stroke:none"
           d="m 41.869141,56.357422 -0.123047,0.05078 1.748047,4.21875 0.121093,-0.05078 z"
           id="path153" /></g><g
         id="g155"
         style="fill:#9c9c9c;fill-opacity:1"><path
           style="color:#000000;fill:#9c9c9c;fill-opacity:1;-inkscape-stroke:none"
           d="m 35.019567,58.233148 0.592212,4.497401"
           id="path154" /><path
           style="color:#000000;fill:#9c9c9c;fill-opacity:1;-inkscape-stroke:none"
           d="m 35.085937,58.224609 -0.132812,0.01758 0.59375,4.496094 0.130859,-0.01563 z"
           id="path155" /></g><g
         id="g157"
         style="fill:#9c9c9c;fill-opacity:1"><path
           style="color:#000000;fill:#9c9c9c;fill-opacity:1;-inkscape-stroke:none"
           d="m 27.980722,58.233145 -0.592217,4.497398"
           id="path156" /><path
           style="color:#000000;fill:#9c9c9c;fill-opacity:1;-inkscape-stroke:none"
           d="m 27.916016,58.224609 -0.59375,4.498047 0.130859,0.01563 0.59375,-4.496094 z"
           id="path157" /></g><g
         id="g159"
         style="fill:#9c9c9c;fill-opacity:1"><path
           style="color:#000000;fill:#9c9c9c;fill-opacity:1;-inkscape-stroke:none"
           d="M 21.192504,56.383644 19.44532,60.601989"
           id="path158" /><path
           style="color:#000000;fill:#9c9c9c;fill-opacity:1;-inkscape-stroke:none"
           d="m 21.130859,56.357422 -1.746093,4.21875 0.121093,0.05078 1.748047,-4.21875 z"
           id="path159" /></g><g
         id="g161"
         style="fill:#9c9c9c;fill-opacity:1"><path
           style="color:#000000;fill:#9c9c9c;fill-opacity:1;-inkscape-stroke:none"
           d="m 15.113288,52.855693 -2.789497,3.63492"
           id="path160" /><path
           style="color:#000000;fill:#9c9c9c;fill-opacity:1;-inkscape-stroke:none"
           d="m 15.060547,52.814453 -2.789063,3.636719 0.105469,0.08008 2.789063,-3.634766 z"
           id="path161" /></g><g
         id="g163"
         style="fill:#9c9c9c;fill-opacity:1"><path
           style="color:#000000;fill:#9c9c9c;fill-opacity:1;-inkscape-stroke:none"
           d="M 10.144081,47.887006 6.5091619,50.675981"
           id="path162" /><path
           style="color:#000000;fill:#9c9c9c;fill-opacity:1;-inkscape-stroke:none"
           d="m 10.103516,47.833984 -3.634766,2.789063 0.080078,0.105469 3.634766,-2.789063 z"
           id="path163" /></g><g
         id="g165"
         style="fill:#9c9c9c;fill-opacity:1"><path
           style="color:#000000;fill:#9c9c9c;fill-opacity:1;-inkscape-stroke:none"
           d="M 6.6166475,41.806756 2.3977836,43.554454"
           id="path164" /><path
           style="color:#000000;fill:#9c9c9c;fill-opacity:1;-inkscape-stroke:none"
           d="m 6.5917969,41.746094 -4.21875,1.748047 0.050781,0.121093 4.21875,-1.748047 z"
           id="path165" /></g><g
         id="g167"
         style="fill:#9c9c9c;fill-opacity:1"><path
           style="color:#000000;fill:#9c9c9c;fill-opacity:1;-inkscape-stroke:none"
           d="M 4.7666309,35.019575 0.26923235,35.611781"
           id="path166" /><path
           style="color:#000000;fill:#9c9c9c;fill-opacity:1;-inkscape-stroke:none"
           d="m 4.7578125,34.953125 -4.49804687,0.59375 0.0175781,0.130859 4.49804687,-0.591797 z"
           id="path167" /></g><g
         id="g169"
         style="fill:#9c9c9c;fill-opacity:1"><path
           style="color:#000000;fill:#9c9c9c;fill-opacity:1;-inkscape-stroke:none"
           d="M 4.7666325,27.980727 0.26923309,27.388513"
           id="path168" /><path
           style="color:#000000;fill:#9c9c9c;fill-opacity:1;-inkscape-stroke:none"
           d="m 0.27734375,27.322266 -0.0175781,0.130859 4.49804685,0.59375 0.017578,-0.130859 z"
           id="path169" /></g><g
         id="g171"
         style="fill:#9c9c9c;fill-opacity:1"><path
           style="color:#000000;fill:#9c9c9c;fill-opacity:1;-inkscape-stroke:none"
           d="M 6.6166459,21.193024 2.3977854,19.445328"
           id="path170" /><path
           style="color:#000000;fill:#9c9c9c;fill-opacity:1;-inkscape-stroke:none"
           d="m 2.4238281,19.384766 -0.050781,0.121093 4.21875,1.748047 0.050781,-0.121094 z"
           id="path171" /></g><g
         id="g173"
         style="fill:#9c9c9c;fill-opacity:1"><path
           style="color:#000000;fill:#9c9c9c;fill-opacity:1;-inkscape-stroke:none"
           d="M 10.144083,15.113291 6.5091613,12.3238"
           id="path172" /><path
           style="color:#000000;fill:#9c9c9c;fill-opacity:1;-inkscape-stroke:none"
           d="m 6.5488281,12.271484 -0.080078,0.105469 3.6347659,2.789063 0.08008,-0.105469 z"
           id="path173" /></g><g
         id="g175"
         style="fill:#9c9c9c;fill-opacity:1"><path
           style="color:#000000;fill:#9c9c9c;fill-opacity:1;-inkscape-stroke:none"
           d="M 15.113288,10.144087 12.323794,6.5091661"
           id="path174" /><path
           style="color:#000000;fill:#9c9c9c;fill-opacity:1;-inkscape-stroke:none"
           d="m 12.376953,6.46875 -0.105469,0.080078 2.789063,3.634766 0.105469,-0.08008 z"
           id="path175" /></g><g
         id="g177"
         style="fill:#9c9c9c;fill-opacity:1"><path
           style="color:#000000;fill:#9c9c9c;fill-opacity:1;-inkscape-stroke:none"
           d="M 21.193021,6.6166547 19.44532,2.3977901"
           id="path176" /><path
           style="color:#000000;fill:#9c9c9c;fill-opacity:1;-inkscape-stroke:none"
           d="m 19.505859,2.3730469 -0.121093,0.050781 1.748046,4.21875 0.121094,-0.050781 z"
           id="path177" /></g><g
         id="g179"
         style="fill:#9c9c9c;fill-opacity:1"><path
           style="color:#000000;fill:#9c9c9c;fill-opacity:1;-inkscape-stroke:none"
           d="M 27.980719,4.7666356 27.388505,0.26923642"
           id="path178" /><path
           style="color:#000000;fill:#9c9c9c;fill-opacity:1;-inkscape-stroke:none"
           d="m 27.453125,0.25976563 -0.130859,0.0175781 0.59375,4.49804687 0.130859,-0.017578 z"
           id="path179" /></g></g><g
       id="g107"
       style="fill:#666666;fill-opacity:1"><g
         id="g59"
         style="fill:#666666;fill-opacity:1"><path
           id="rect1"
           style="fill:#666666;stroke-width:0.125444;stroke-linecap:round;stroke-linejoin:round;stroke:none;fill-opacity:1"
           d="m 30.615061,0.60000343 1e-6,3.54031457 0.221298,6e-6 0,-1.7744784 c 0.863778,-0.05725 1.548862,-0.777476 1.548858,-1.65541827 l 2e-6,-0.1101965 -0.22151,-1.4e-6 A 1.3271266,1.5264011 0 0 1 32.106,1.0455767 c -0.03778,0.1572394 -0.100799,0.3037072 -0.184993,0.4349764 a 1.3271266,1.5264011 0 0 1 -0.0028,0.00435 1.3271266,1.5264011 0 0 1 -1.081414,0.6417675 l -1.9e-5,-0.2044235 c 0.619003,-0.056449 1.105894,-0.5785131 1.105891,-1.21180188 l -2e-5,-0.11022772 -0.247701,2.453e-5 a 0.85827815,1.0600689 0 0 1 -0.02159,0.2363878 C 31.649857,1.0019451 31.588789,1.1512164 31.4981,1.276135 a 0.85827815,1.0600689 0 0 1 -0.66132,0.3842282 l 10e-7,-0.83862274 -5e-6,-0.22148665 -4.29e-4,1.3e-7 1e-6,-2.1808e-4 z" /><path
           style="color:#000000;fill:#666666;stroke-width:0.418147;stroke-linejoin:bevel;-inkscape-stroke:none;stroke:none;fill-opacity:1"
           d="m 38.794887,1.4646614 -0.178066,0.055488 -0.890509,3.3234422 0.213828,0.057301 0.845276,-3.1546262 1.120695,0.9462405 -0.683793,2.5519451 0.213831,0.057289 0.701969,-2.619784 -0.0358,-0.1127253 z"
           id="path6-3" /><path
           id="rect7-8"
           style="fill:#666666;fill-opacity:1;stroke:none;stroke-width:0.221269;stroke-linecap:round;stroke-linejoin:bevel;stroke-dasharray:none;stroke-opacity:1"
           d="m 46.183386,4.2972905 -1.770156,3.0660027 0.191625,0.1106343 0.666512,-1.15443 0.08606,-0.00819 1.79325,-0.1490957 0.07495,-0.1820433 -1.015148,-1.1756948 -0.03863,-0.044566 0.203226,-0.3519997 z m -0.128717,0.6654858 0.861113,0.9969328 -1.509035,0.1253087 z" /><path
           id="path3-6"
           style="color:#000000;fill:#666666;stroke-width:0.418146;-inkscape-stroke:none;stroke:none;fill-opacity:1"
           d="M 23.396065,1.6813822 23.752373,3.0111423 22.995274,2.5742069 22.88433,2.7654498 23.77672,3.2806719 23.261442,4.172854 23.453312,4.28363 23.890456,3.5264744 24.312366,5.1010639 24.526097,5.043795 24.10441,3.47004 24.860508,3.9065731 24.971284,3.7147034 24.078949,3.19969 24.594171,2.3072992 24.402469,2.19715 23.96588,2.9530389 23.609796,1.6241133 Z" /><path
           id="path9-5"
           style="color:#000000;fill:#666666;stroke-width:0.418146;stroke-linejoin:bevel;-inkscape-stroke:none;stroke:none;fill-opacity:1"
           d="m 52.840759,9.1417153 -0.18534,-0.049052 -2.435232,2.4352346 0.156464,0.156462 1.449862,-1.449862 0.441424,1.594101 0.213138,-0.05825 -0.474729,-1.715727 0.67153,-0.6715308 0.44158,1.5942558 0.212976,-0.05841 z" /><path
           style="color:#000000;fill:#666666;stroke-width:0.418146;stroke-linejoin:bevel;-inkscape-stroke:none;stroke:none;fill-opacity:1"
           d="m 58.557137,16.564638 -2.287974,-0.387398 -0.125026,0.08073 -0.586025,2.192879 0.214185,0.05736 0.559391,-2.095403 2.189238,0.369923 z"
           id="path11-6" /><path
           style="color:#000000;fill:#666666;stroke-width:0.418146;stroke-linejoin:bevel;-inkscape-stroke:none;stroke:none;fill-opacity:1"
           d="m 61.164964,22.823448 -0.129172,-0.15389 -3.337691,0.89433 0.05727,0.213734 1.234575,-0.330806 1.111252,1.282095 0.18341,-0.02548 z m -0.300673,0.121138 -0.707847,1.510865 -0.929048,-1.072257 z"
           id="path12-2" /><path
           id="path13-9"
           style="color:#000000;fill:#666666;stroke-width:0.418146;-inkscape-stroke:none;stroke:none;fill-opacity:1"
           d="m 62.399783,30.615073 -3.54053,-10e-7 0,0.221272 2.166664,1e-6 -0.797998,1.327617 -1.368675,-2e-6 0,0.221271 3.540531,-2e-6 1e-6,-0.221271 -1.914068,-10e-7 0.799294,-1.327618 1.114773,1e-6 z" /><path
           id="path16-1"
           style="color:#000000;fill:#666666;stroke-width:0.418147;-inkscape-stroke:none;stroke:none;fill-opacity:1"
           d="m 61.375509,39.390674 -0.894577,-0.239702 0.603895,-0.50886 -0.14235,-0.169226 -0.722036,0.608292 -2.26462,-0.606804 -0.05727,0.213732 2.115594,0.566875 -0.603891,0.508857 0.142551,0.169284 0.721826,-0.608349 1.043604,0.279633 z" /><path
           id="path18-2"
           style="color:#000000;fill:#666666;stroke-width:0.418147;stroke-linejoin:bevel;-inkscape-stroke:none;stroke:none;fill-opacity:1"
           d="m 58.225825,47.00904 -0.555925,-1.421811 -0.128002,-0.06743 -1.360141,0.315574 0.05006,0.215798 1.266509,-0.294274 0.521367,1.332994 z m -0.953092,-0.714448 -0.04992,-0.215672 -1.266506,0.294273 -0.52137,-1.332992 -0.206869,0.08042 0.556673,1.422238 0.127993,0.06743 z" /><path
           style="color:#000000;fill:#666666;stroke-width:0.418147;stroke-linejoin:bevel;-inkscape-stroke:none;stroke:none;fill-opacity:1"
           d="m 53.301774,53.397085 0.09416,-0.187713 -2.188687,-2.188686 0.910789,0.08711 0.0214,-0.220048 -1.218045,-0.117114 -0.0884,0.188865 2.170787,2.170784 -1.022828,-0.148319 -0.03179,0.218896 z"
           id="path20-7" /><path
           style="color:#000000;fill:#666666;stroke-width:0.418147;stroke-linejoin:bevel;-inkscape-stroke:none;stroke:none;fill-opacity:1"
           d="m 46.344691,58.609389 0.06606,-1.279157 1.128378,0.588608 0.147486,-0.153002 -1.710947,-2.963448 -0.206544,0.05234 -0.03005,1.312121 -1.16308,-0.624208 -0.104315,0.19508 1.321507,0.709082 0.163007,-0.09507 0.02501,-1.097029 1.323019,2.291538 -0.943671,-0.492496 -0.161712,0.0924 -0.07473,1.452023 z"
           id="path21-0" /><path
           id="path22-9"
           style="color:#000000;fill:#666666;stroke-width:0.418146;-inkscape-stroke:none;stroke:none;fill-opacity:1"
           d="m 39.604814,61.318129 -0.248425,-0.927135 0.772007,0.553522 0.129376,-0.180073 -0.991702,-0.710531 -0.577551,-2.155459 -0.213731,0.05727 0.582306,2.173202 -0.509387,1.092834 0.200858,0.09338 0.397676,-0.853515 0.244846,0.91378 z" /><path
           style="color:#000000;fill:#666666;stroke-width:0.418146;stroke-linejoin:bevel;-inkscape-stroke:none;stroke:none;fill-opacity:1"
           d="m 30.7506,62.399811 1.632989,-1.231574 -0.01633,-0.187022 -1.480304,-0.76851 1.498266,-1.179308 -0.137185,-0.173946 -1.632982,1.285473 0.01796,0.184573 1.47622,0.766875 -1.492549,1.127038 z"
           id="path47" /><path
           id="path25"
           style="color:#000000;fill:#666666;stroke-width:0.418147;stroke-linejoin:bevel;-inkscape-stroke:none;stroke:none;fill-opacity:1"
           d="m 23.557665,61.361729 1.046185,-0.705491 -0.124065,-0.183788 -0.794928,0.537264 0.819779,-3.059451 -0.213652,-0.05725 -0.817316,3.050267 -0.372563,-0.84875 -0.203064,0.08853 0.49647,1.131592 z" /><path
           style="color:#000000;fill:#666666;stroke-width:0.418147;stroke-linejoin:bevel;-inkscape-stroke:none;stroke:none;fill-opacity:1"
           d="m 16.666398,58.61592 0.195299,0.0081 1.67708,-2.904792 -0.09725,-0.166474 -1.860478,0.03015 -0.08882,0.175055 0.848576,1.191546 -1.383789,-0.248198 -0.119542,0.15637 z m 0.109648,-0.284676 -0.646975,-1.374092 1.305232,0.233962 z m 0.815062,-1.411725 -0.795506,-1.118468 1.454578,-0.02308 z"
           id="path27" /><path
           style="color:#000000;fill:#666666;stroke-width:0.418147;stroke-linejoin:bevel;-inkscape-stroke:none;stroke:none;fill-opacity:1"
           d="m 10.134094,53.833177 0.186568,0.09762 2.458951,-2.458952 -0.156536,-0.156535 -2.2089,2.208898 0.179523,-0.989323 -0.128808,-0.128808 -0.9893281,0.179514 2.2088981,-2.2089 -0.156535,-0.156534 -2.4589504,2.458952 0.098199,0.187146 1.1804904,-0.21357 z"
           id="path28" /><path
           id="path31"
           style="color:#000000;fill:#666666;stroke-width:0.418147;stroke-linejoin:bevel;-inkscape-stroke:none;stroke:none;fill-opacity:1"
           d="M 5.0818668,47.542369 5.2368038,47.68496 8.248351,45.946241 8.1377155,45.754614 5.4325087,47.316469 5.7950423,46.5485 6.6408002,46.618359 6.976144,46.42475 5.8161995,46.328439 6.3130317,45.275342 7.4740089,44.60505 7.3632674,44.41324 l -3.0115456,1.738718 0.046456,0.206219 1.1955507,0.09921 z M 4.7688045,46.16691 5.9767523,45.469499 5.6145638,46.236769 Z" /><path
           style="color:#000000;fill:#666666;stroke-width:0.418146;stroke-linejoin:bevel;-inkscape-stroke:none;stroke:none;fill-opacity:1"
           d="M 1.8390094,40.192097 1.9749961,40.327249 5.3016426,39.435876 5.2443752,39.222148 2.1007444,40.064481 2.5154682,38.463096 2.301768,38.407081 Z"
           id="path32" /><path
           id="path33"
           style="color:#000000;fill:#666666;stroke-width:0.418147;stroke-linejoin:bevel;-inkscape-stroke:none;stroke:none;fill-opacity:1"
           d="m 0.59997559,32.209401 0.15104125,0.161634 0.76752686,-0.719346 0.7817937,0.733173 0.1519082,-8.56e-4 0.7673151,-0.731226 0.7679591,0.732096 0.1527663,-0.16013 L 3.3798902,31.500002 4.1402856,30.775473 3.9875467,30.614673 3.219585,31.346982 2.4522732,30.615535 2.3003714,30.61467 1.5183628,31.348058 0.75104954,30.628503 0.60001046,30.790137 1.3567353,31.499754 Z M 1.6801762,31.5 2.3755371,30.848295 3.0592233,31.500006 2.3755331,32.152145 Z" /><path
           id="path38"
           style="color:#000000;fill:#666666;stroke-width:0.418144;stroke-linejoin:bevel;-inkscape-stroke:none;stroke:none;fill-opacity:1"
           d="m 1.4792076,24.150591 -0.01759,0.216758 3.3353576,0.893707 0.1010787,-0.191032 -1.1710765,-1.011977 1.5201691,-0.290857 0.00798,-0.215974 -3.3353584,-0.893706 -0.093144,0.196508 1.5100418,1.099447 z m 0.6149014,0.157206 1.4096632,-0.149782 0.8841817,0.764412 z m 0.3436134,-1.282382 2.2938421,0.614633 -1.1479304,0.219909 z" /><path
           style="color:#000000;fill:#666666;stroke-width:0.418147;stroke-linejoin:bevel;-inkscape-stroke:none;stroke:none;fill-opacity:1"
           d="m 4.6924742,16.131905 0.7845183,1.365626 0.1101963,0.05414 1.2004113,-0.158307 0.463107,1.118739 0.2044753,-0.08465 L 7.0144267,17.36311 8.1565623,17.212635 8.1276306,16.993231 6.9272505,17.151519 6.4641428,16.032781 6.3621469,15.964431 4.788036,15.96638 Z m 0.2861169,0.05488 1.3095307,-0.001 0.4122805,0.996064 -1.0687534,0.140981 z"
           id="path39" /><path
           style="color:#000000;fill:#666666;stroke-width:0.418146;stroke-linejoin:bevel;-inkscape-stroke:none;stroke:none;fill-opacity:1"
           d="m 9.0246009,10.276137 1.7988811,1.798882 0.189385,-0.07389 0.06849,-1.858703 1.541897,1.541898 0.15646,-0.156461 -1.721496,-1.721497 -0.188805,0.074465 -0.06906,1.8581258 -1.6192814,-1.619282 z"
           id="path1-6" /><path
           id="path2-0"
           style="color:#000000;fill:#666666;stroke-width:0.418146;-inkscape-stroke:none;stroke:none;fill-opacity:1"
           d="m 15.953853,4.7952826 0.494075,0.8557639 -0.670313,0.3870055 0.110636,0.1916242 0.670314,-0.3870056 0.401483,0.6953898 -0.670313,0.3870054 0.110636,0.1916252 0.670314,-0.3870058 0.653329,1.131599 0.191625,-0.110635 L 17.262306,6.6190514 17.933369,6.2316134 17.822734,6.039988 17.151671,6.427426 16.750188,5.7320362 17.421251,5.3445981 17.310616,5.1529736 16.639553,5.5404116 16.145478,4.6846477 Z" /></g><g
         id="path29"
         style="fill:#666666;fill-opacity:1"><path
           style="color:#000000;fill:#666666;-inkscape-stroke:none;fill-opacity:1"
           d="M 35.021633,4.7526855 35.611776,0.26923656"
           id="path106" /><path
           style="color:#000000;fill:#666666;-inkscape-stroke:none;fill-opacity:1"
           d="m 35.546875,0.25976563 -0.591797,4.48437497 0.132813,0.017578 0.589843,-4.48437495 z"
           id="path107" /></g><g
         id="path30"
         style="fill:#666666;fill-opacity:1"><path
           style="color:#000000;fill:#666666;-inkscape-stroke:none;fill-opacity:1"
           d="M 41.826902,6.5691133 43.554427,2.3978264"
           id="path60" /><path
           style="color:#000000;fill:#666666;-inkscape-stroke:none;fill-opacity:1"
           d="M 43.494141,2.3730469 41.765625,6.5429687 41.888672,6.59375 43.615234,2.4238281 Z"
           id="path61" /></g><g
         id="path34"
         style="fill:#666666;fill-opacity:1"><path
           style="color:#000000;fill:#666666;-inkscape-stroke:none;fill-opacity:1"
           d="M 47.92315,10.097097 50.675971,6.5091674"
           id="path62" /><path
           style="color:#000000;fill:#666666;-inkscape-stroke:none;fill-opacity:1"
           d="m 50.623047,6.46875 -2.751953,3.587891 0.105468,0.08008 2.751954,-3.5878909 z"
           id="path63" /></g><g
         id="path35"
         style="fill:#666666;fill-opacity:1"><path
           style="color:#000000;fill:#666666;-inkscape-stroke:none;fill-opacity:1"
           d="m 52.90323,15.076602 3.587412,-2.752824"
           id="path64" /><path
           style="color:#000000;fill:#666666;-inkscape-stroke:none;fill-opacity:1"
           d="m 56.451172,12.271484 -3.587891,2.751954 0.08008,0.105468 3.587891,-2.751953 z"
           id="path65" /></g><g
         id="path36"
         style="fill:#666666;fill-opacity:1"><path
           style="color:#000000;fill:#666666;-inkscape-stroke:none;fill-opacity:1"
           d="m 56.431214,21.172851 4.170807,-1.72754"
           id="path66" /><path
           style="color:#000000;fill:#666666;-inkscape-stroke:none;fill-opacity:1"
           d="m 60.576172,19.384766 -4.169922,1.726562 0.05078,0.123047 4.169922,-1.728516 z"
           id="path67" /></g><g
         id="path37"
         style="fill:#666666;fill-opacity:1"><path
           style="color:#000000;fill:#666666;-inkscape-stroke:none;fill-opacity:1"
           d="m 58.247121,27.97865 4.48342,-0.590135"
           id="path68" /><path
           style="color:#000000;fill:#666666;-inkscape-stroke:none;fill-opacity:1"
           d="m 62.722656,27.322266 -4.484375,0.589843 0.01758,0.132813 4.482422,-0.591797 z"
           id="path69" /></g><g
         id="path40"
         style="fill:#666666;fill-opacity:1"><path
           style="color:#000000;fill:#666666;-inkscape-stroke:none;fill-opacity:1"
           d="m 58.233137,35.019572 4.497398,0.592212"
           id="path70" /><path
           style="color:#000000;fill:#666666;-inkscape-stroke:none;fill-opacity:1"
           d="m 58.242187,34.953125 -0.01758,0.132812 4.498047,0.591797 0.01563,-0.130859 z"
           id="path71" /></g><g
         id="path41"
         style="fill:#666666;fill-opacity:1"><path
           style="color:#000000;fill:#666666;-inkscape-stroke:none;fill-opacity:1"
           d="m 56.383636,41.807272 4.21835,1.747179"
           id="path72" /><path
           style="color:#000000;fill:#666666;-inkscape-stroke:none;fill-opacity:1"
           d="m 56.408203,41.746094 -0.05078,0.123047 4.21875,1.746093 0.05078,-0.121093 z"
           id="path73" /></g><g
         id="path42"
         style="fill:#666666;fill-opacity:1"><path
           style="color:#000000;fill:#666666;-inkscape-stroke:none;fill-opacity:1"
           d="m 52.855687,47.887006 3.634918,2.788973"
           id="path74" /><path
           style="color:#000000;fill:#666666;-inkscape-stroke:none;fill-opacity:1"
           d="m 52.896484,47.833984 -0.08203,0.105469 3.636719,2.789063 0.08008,-0.105469 z"
           id="path75" /></g><g
         id="path43"
         style="fill:#666666;fill-opacity:1"><path
           style="color:#000000;fill:#666666;-inkscape-stroke:none;fill-opacity:1"
           d="m 47.886998,52.855693 2.788978,3.63492"
           id="path76" /><path
           style="color:#000000;fill:#666666;-inkscape-stroke:none;fill-opacity:1"
           d="m 47.939453,52.814453 -0.105469,0.08203 2.789063,3.634766 0.105469,-0.08008 z"
           id="path77" /></g><g
         id="path44"
         style="fill:#666666;fill-opacity:1"><path
           style="color:#000000;fill:#666666;-inkscape-stroke:none;fill-opacity:1"
           d="m 41.807264,56.383642 1.747184,4.21835"
           id="path78" /><path
           style="color:#000000;fill:#666666;-inkscape-stroke:none;fill-opacity:1"
           d="m 41.869141,56.357422 -0.123047,0.05078 1.748047,4.21875 0.121093,-0.05078 z"
           id="path79" /></g><g
         id="path45"
         style="fill:#666666;fill-opacity:1"><path
           style="color:#000000;fill:#666666;-inkscape-stroke:none;fill-opacity:1"
           d="m 35.019567,58.233148 0.592212,4.497401"
           id="path80" /><path
           style="color:#000000;fill:#666666;-inkscape-stroke:none;fill-opacity:1"
           d="m 35.085937,58.224609 -0.132812,0.01758 0.59375,4.496094 0.130859,-0.01563 z"
           id="path81" /></g><g
         id="path46"
         style="fill:#666666;fill-opacity:1"><path
           style="color:#000000;fill:#666666;-inkscape-stroke:none;fill-opacity:1"
           d="m 27.980722,58.233145 -0.592217,4.497398"
           id="path82" /><path
           style="color:#000000;fill:#666666;-inkscape-stroke:none;fill-opacity:1"
           d="m 27.916016,58.224609 -0.59375,4.498047 0.130859,0.01563 0.59375,-4.496094 z"
           id="path83" /></g><g
         id="path48"
         style="fill:#666666;fill-opacity:1"><path
           style="color:#000000;fill:#666666;-inkscape-stroke:none;fill-opacity:1"
           d="M 21.192504,56.383644 19.44532,60.601989"
           id="path84" /><path
           style="color:#000000;fill:#666666;-inkscape-stroke:none;fill-opacity:1"
           d="m 21.130859,56.357422 -1.746093,4.21875 0.121093,0.05078 1.748047,-4.21875 z"
           id="path85" /></g><g
         id="path49"
         style="fill:#666666;fill-opacity:1"><path
           style="color:#000000;fill:#666666;-inkscape-stroke:none;fill-opacity:1"
           d="m 15.113288,52.855693 -2.789497,3.63492"
           id="path86" /><path
           style="color:#000000;fill:#666666;-inkscape-stroke:none;fill-opacity:1"
           d="m 15.060547,52.814453 -2.789063,3.636719 0.105469,0.08008 2.789063,-3.634766 z"
           id="path87" /></g><g
         id="path50"
         style="fill:#666666;fill-opacity:1"><path
           style="color:#000000;fill:#666666;-inkscape-stroke:none;fill-opacity:1"
           d="M 10.144081,47.887006 6.5091619,50.675981"
           id="path88" /><path
           style="color:#000000;fill:#666666;-inkscape-stroke:none;fill-opacity:1"
           d="m 10.103516,47.833984 -3.634766,2.789063 0.080078,0.105469 3.6347659,-2.789063 z"
           id="path89" /></g><g
         id="path51"
         style="fill:#666666;fill-opacity:1"><path
           style="color:#000000;fill:#666666;-inkscape-stroke:none;fill-opacity:1"
           d="M 6.6166475,41.806756 2.3977836,43.554454"
           id="path90" /><path
           style="color:#000000;fill:#666666;-inkscape-stroke:none;fill-opacity:1"
           d="m 6.5917969,41.746094 -4.21875,1.748047 0.050781,0.121093 4.21875,-1.748047 z"
           id="path91" /></g><g
         id="path52"
         style="fill:#666666;fill-opacity:1"><path
           style="color:#000000;fill:#666666;-inkscape-stroke:none;fill-opacity:1"
           d="M 4.7666309,35.019575 0.26923235,35.611781"
           id="path92" /><path
           style="color:#000000;fill:#666666;-inkscape-stroke:none;fill-opacity:1"
           d="m 4.7578125,34.953125 -4.49804687,0.59375 0.0175781,0.130859 4.49804685,-0.591797 z"
           id="path93" /></g><g
         id="path53"
         style="fill:#666666;fill-opacity:1"><path
           style="color:#000000;fill:#666666;-inkscape-stroke:none;fill-opacity:1"
           d="M 4.7666325,27.980727 0.26923309,27.388513"
           id="path94" /><path
           style="color:#000000;fill:#666666;-inkscape-stroke:none;fill-opacity:1"
           d="m 0.27734375,27.322266 -0.0175781,0.130859 4.49804687,0.59375 0.017578,-0.130859 z"
           id="path95" /></g><g
         id="path54"
         style="fill:#666666;fill-opacity:1"><path
           style="color:#000000;fill:#666666;-inkscape-stroke:none;fill-opacity:1"
           d="M 6.6166459,21.193024 2.3977854,19.445328"
           id="path96" /><path
           style="color:#000000;fill:#666666;-inkscape-stroke:none;fill-opacity:1"
           d="m 2.4238281,19.384766 -0.050781,0.121093 4.21875,1.748047 0.050781,-0.121094 z"
           id="path97" /></g><g
         id="path55"
         style="fill:#666666;fill-opacity:1"><path
           style="color:#000000;fill:#666666;-inkscape-stroke:none;fill-opacity:1"
           d="M 10.144083,15.113291 6.5091613,12.3238"
           id="path98" /><path
           style="color:#000000;fill:#666666;-inkscape-stroke:none;fill-opacity:1"
           d="m 6.5488281,12.271484 -0.080078,0.105469 3.634766,2.789063 0.08008,-0.105469 z"
           id="path99" /></g><g
         id="path56"
         style="fill:#666666;fill-opacity:1"><path
           style="color:#000000;fill:#666666;-inkscape-stroke:none;fill-opacity:1"
           d="M 15.113288,10.144087 12.323794,6.5091661"
           id="path100" /><path
           style="color:#000000;fill:#666666;-inkscape-stroke:none;fill-opacity:1"
           d="m 12.376953,6.46875 -0.105469,0.080078 2.789063,3.6347659 0.105469,-0.08008 z"
           id="path101" /></g><g
         id="path57"
         style="fill:#666666;fill-opacity:1"><path
           style="color:#000000;fill:#666666;-inkscape-stroke:none;fill-opacity:1"
           d="M 21.193021,6.6166547 19.44532,2.3977901"
           id="path102" /><path
           style="color:#000000;fill:#666666;-inkscape-stroke:none;fill-opacity:1"
           d="m 19.505859,2.3730469 -0.121093,0.050781 1.748046,4.21875 0.121094,-0.050781 z"
           id="path103" /></g><g
         id="path58"
         style="fill:#666666;fill-opacity:1"><path
           style="color:#000000;fill:#666666;-inkscape-stroke:none;fill-opacity:1"
           d="M 27.980719,4.7666356 27.388505,0.26923642"
           id="path104" /><path
           style="color:#000000;fill:#666666;-inkscape-stroke:none;fill-opacity:1"
           d="m 27.453125,0.25976563 -0.130859,0.0175781 0.59375,4.49804685 0.130859,-0.017578 z"
           id="path105" /></g></g></g></svg>
