<?xml version="1.0" encoding="UTF-8" standalone="no"?>
<!-- Created with Inkscape (http://www.inkscape.org/) -->

<svg
   width="6.3000002cm"
   height="6.3000002cm"
   viewBox="0 0 63.000002 63.000002"
   version="1.1"
   id="svg1"
   inkscape:version="1.3 (0e150ed6c4, 2023-07-21)"
   sodipodi:docname="inner-ring.svg"
   xml:space="preserve"
   inkscape:export-filename="inner-ring_1024x1024.png"
   inkscape:export-xdpi="412.85077"
   inkscape:export-ydpi="412.85077"
   xmlns:inkscape="http://www.inkscape.org/namespaces/inkscape"
   xmlns:sodipodi="http://sodipodi.sourceforge.net/DTD/sodipodi-0.dtd"
   xmlns="http://www.w3.org/2000/svg"
   xmlns:svg="http://www.w3.org/2000/svg"><sodipodi:namedview
     id="namedview1"
     pagecolor="#cfcfcf"
     bordercolor="#666666"
     borderopacity="1.0"
     inkscape:showpageshadow="2"
     inkscape:pageopacity="0.0"
     inkscape:pagecheckerboard="0"
     inkscape:deskcolor="#d1d1d1"
     inkscape:document-units="cm"
     inkscape:zoom="3.5416652"
     inkscape:cx="92.047096"
     inkscape:cy="115.05887"
     inkscape:window-width="1920"
     inkscape:window-height="1015"
     inkscape:window-x="0"
     inkscape:window-y="0"
     inkscape:window-maximized="1"
     inkscape:current-layer="layer1"
     showguides="false" /><defs
     id="defs1" /><g
     inkscape:label="Layer 1"
     inkscape:groupmode="layer"
     id="layer1"><g
       id="g144"
       style="stroke:none"><path
         id="path28"
         style="fill:#d9d9d9;fill-opacity:1;stroke:none;stroke-width:0.029;stroke-linecap:round;stroke-linejoin:round;stroke-dasharray:none;stroke-opacity:1"
         d="m 62.730493,35.611692 -2.486601,-0.327631 a 29.000002,29.000002 0 0 1 -0.731862,3.721655 29.000002,29.000002 0 0 1 -1.240597,3.58374 l 2.330721,0.965305 a 31.500004,31.500004 0 0 0 2.128339,-7.943069 z"
         inkscape:transform-center-y="4.2013807"
         inkscape:transform-center-x="-15.125775" /><path
         id="path30"
         style="fill:#d9d9d9;fill-opacity:1;stroke:none;stroke-width:0.029;stroke-linecap:round;stroke-linejoin:round;stroke-dasharray:none;stroke-opacity:1"
         d="m 62.730314,27.388253 -2.478296,0.326215 a 29.000002,29.000002 0 0 1 -0.0081,7.569589 l 2.486602,0.327635 a 31.500004,31.500004 0 0 0 -1.76e-4,-8.223441 z"
         inkscape:transform-center-x="-15.262554"
         inkscape:transform-center-y="4.217278" /><path
         id="path31"
         style="fill:#d9d9d9;fill-opacity:1;stroke:none;stroke-width:0.029;stroke-linecap:round;stroke-linejoin:round;stroke-dasharray:none;stroke-opacity:1"
         inkscape:transform-center-x="-15.139494"
         d="m 60.602217,19.445283 -2.316978,0.960072 a 29.000002,29.000002 0 0 1 1.966755,7.309119 l 2.478301,-0.326215 a 31.500004,31.500004 0 0 0 -2.128098,-7.942972 z"
         inkscape:transform-center-y="4.0350089" /><path
         id="path32"
         style="fill:#d9d9d9;fill-opacity:1;stroke:none;stroke-width:0.029;stroke-linecap:round;stroke-linejoin:round;stroke-dasharray:none;stroke-opacity:1"
         d="m 56.490651,12.32384 -1.98944,1.526654 a 29.000002,29.000002 0 0 1 3.784028,6.554861 l 2.316978,-0.960072 A 31.500004,31.500004 0 0 0 56.490651,12.32384 Z"
         inkscape:transform-center-y="4.0164813"
         inkscape:transform-center-x="-15.153479" /><path
         id="path33"
         style="fill:#d9d9d9;fill-opacity:1;stroke:none;stroke-width:0.029;stroke-linecap:round;stroke-linejoin:round;stroke-dasharray:none;stroke-opacity:1"
         d="m 50.675883,6.5093698 -1.521791,1.9836558 a 29.000002,29.000002 0 0 1 5.347135,5.3574594 l 1.989438,-1.526659 A 31.500004,31.500004 0 0 0 50.675901,6.5093556 Z"
         inkscape:transform-center-x="-15.171881"
         inkscape:transform-center-y="4.0026254" /><path
         id="path34"
         style="fill:#d9d9d9;fill-opacity:1;stroke:none;stroke-width:0.029;stroke-linecap:round;stroke-linejoin:round;stroke-dasharray:none;stroke-opacity:1"
         d="m 43.554766,2.3976281 -0.960061,2.3171443 a 29.000002,29.000002 0 0 1 6.559372,3.7782809 L 50.67587,6.5093937 A 31.500004,31.500004 0 0 0 43.554751,2.3976556 Z"
         inkscape:transform-center-x="-15.190455"
         inkscape:transform-center-y="3.9950276" /><path
         id="path35"
         style="fill:#d9d9d9;fill-opacity:1;stroke:none;stroke-width:0.029;stroke-linecap:round;stroke-linejoin:round;stroke-dasharray:none;stroke-opacity:1"
         d="M 38.317653,0.74664603 A 31.500004,31.500004 0 0 0 35.611695,0.26928907 l -0.32938,2.50111453 a 29.000002,29.000002 0 0 1 3.723273,0.7178468 29.000002,29.000002 0 0 1 3.589117,1.226522 L 43.554766,2.3976281 A 31.500004,31.500004 0 0 0 38.317653,0.74664603 Z"
         inkscape:transform-center-y="4.1570841"
         inkscape:transform-center-x="-15.337461" /><path
         id="path36"
         style="fill:#d9d9d9;fill-opacity:1;stroke:none;stroke-width:0.029;stroke-linecap:round;stroke-linejoin:round;stroke-dasharray:none;stroke-opacity:1"
         d="m 35.611695,0.26928907 a 31.500004,31.500004 0 0 0 -8.223435,1.7545e-4 l 0.333308,2.53369588 a 29.000002,29.000002 0 0 1 7.560746,-0.032759 z"
         inkscape:transform-center-x="-15.359901"
         inkscape:transform-center-y="4.0256168" /><path
         id="path37"
         style="fill:#d9d9d9;fill-opacity:1;stroke:none;stroke-width:0.029;stroke-linecap:round;stroke-linejoin:round;stroke-dasharray:none;stroke-opacity:1"
         d="M 27.38826,0.26946452 A 31.500004,31.500004 0 0 0 19.445288,2.3975649 l 0.984268,2.3764253 a 29.000002,29.000002 0 0 1 7.292009,-1.9708251 z"
         inkscape:transform-center-y="4.152503"
         inkscape:transform-center-x="-15.171872" /><path
         id="path38"
         style="fill:#d9d9d9;fill-opacity:1;stroke:none;stroke-width:0.029;stroke-linecap:round;stroke-linejoin:round;stroke-dasharray:none;stroke-opacity:1"
         d="M 19.445288,2.3975649 A 31.500004,31.500004 0 0 0 12.323846,6.50913 l 1.565909,2.040613 a 29.000002,29.000002 0 0 1 6.539802,-3.7757543 z"
         inkscape:transform-center-y="4.1378564"
         inkscape:transform-center-x="-15.151877" /><path
         id="path39"
         style="fill:#d9d9d9;fill-opacity:1;stroke:none;stroke-width:0.029;stroke-linecap:round;stroke-linejoin:round;stroke-dasharray:none;stroke-opacity:1"
         d="M 12.323844,6.5091286 A 31.500004,31.500004 0 0 0 6.5093723,12.323895 l 2.0275937,1.555501 a 29.000002,29.000002 0 0 1 5.352789,-5.3296529 z"
         inkscape:transform-center-y="4.1178618"
         inkscape:transform-center-x="-15.137231" /><path
         id="path40"
         style="fill:#d9d9d9;fill-opacity:1;stroke:none;stroke-width:0.029;stroke-linecap:round;stroke-linejoin:round;stroke-dasharray:none;stroke-opacity:1"
         inkscape:transform-center-x="-15.129404"
         d="m 6.509373,12.323898 a 31.500004,31.500004 0 0 0 -4.1118731,7.121617 l 2.330718,0.965304 a 29.000002,29.000002 0 0 1 3.8087467,-6.531421 z"
         inkscape:transform-center-y="4.0945246" /><path
         id="path41"
         style="fill:#d9d9d9;fill-opacity:1;stroke:none;stroke-width:0.029;stroke-linecap:round;stroke-linejoin:round;stroke-dasharray:none;stroke-opacity:1"
         d="M 2.3974999,19.445515 A 31.500004,31.500004 0 0 0 0.26916023,27.388586 L 2.770274,27.717966 A 29.000002,29.000002 0 0 1 3.4882556,23.994191 29.000002,29.000002 0 0 1 4.7282179,20.410819 Z"
         inkscape:transform-center-y="3.9522934"
         inkscape:transform-center-x="-15.300891" /><path
         id="path42"
         style="fill:#d9d9d9;fill-opacity:1;stroke:none;stroke-width:0.029;stroke-linecap:round;stroke-linejoin:round;stroke-dasharray:none;stroke-opacity:1"
         d="m 2.770274,27.717966 -2.50111377,-0.32938 a 31.500004,31.500004 0 0 0 3.1399e-4,8.222938 L 2.8026679,35.278082 a 29.000002,29.000002 0 0 1 -0.032401,-7.560119 z"
         inkscape:transform-center-y="3.9299021"
         inkscape:transform-center-x="-15.162601" /><path
         id="path43"
         style="fill:#d9d9d9;fill-opacity:1;stroke:none;stroke-width:0.029;stroke-linecap:round;stroke-linejoin:round;stroke-dasharray:none;stroke-opacity:1"
         d="m 2.8026679,35.278082 -2.53319941,0.33344 A 31.500004,31.500004 0 0 0 2.3975717,43.554494 L 4.7739961,42.570226 A 29.000002,29.000002 0 0 1 2.8026679,35.278082 Z"
         inkscape:transform-center-y="4.1177955"
         inkscape:transform-center-x="-15.289431" /><path
         id="path44"
         style="fill:#d9d9d9;fill-opacity:1;stroke:none;stroke-width:0.029;stroke-linecap:round;stroke-linejoin:round;stroke-dasharray:none;stroke-opacity:1"
         d="m 4.7739945,42.570224 -2.3764228,0.98427 a 31.500004,31.500004 0 0 0 4.1115624,7.121441 L 8.5496177,49.110528 A 29.000002,29.000002 0 0 1 4.7739945,42.570224 Z"
         inkscape:transform-center-y="4.1378567"
         inkscape:transform-center-x="-15.274725" /><path
         id="path45"
         style="fill:#d9d9d9;fill-opacity:1;stroke:none;stroke-width:0.029;stroke-linecap:round;stroke-linejoin:round;stroke-dasharray:none;stroke-opacity:1"
         inkscape:transform-center-x="-15.254861"
         d="m 8.5496177,49.110528 -2.0404836,1.565407 a 31.500004,31.500004 0 0 0 5.8147709,5.814474 l 1.555496,-2.027593 A 29.000002,29.000002 0 0 1 8.5496215,49.110525 Z"
         inkscape:transform-center-y="4.1525034" /><path
         id="path46"
         style="fill:#d9d9d9;fill-opacity:1;stroke:none;stroke-width:0.029;stroke-linecap:round;stroke-linejoin:round;stroke-dasharray:none;stroke-opacity:1"
         d="m 13.879402,54.462816 -1.5555,2.027595 a 31.500004,31.500004 0 0 0 7.121618,4.111872 l 0.965307,-2.330717 a 29.000002,29.000002 0 0 1 -6.531425,-3.80875 z"
         inkscape:transform-center-y="4.1603276"
         inkscape:transform-center-x="-15.231457" /><path
         id="path47"
         style="fill:#d9d9d9;fill-opacity:1;stroke:none;stroke-width:0.029;stroke-linecap:round;stroke-linejoin:round;stroke-dasharray:none;stroke-opacity:1"
         d="m 20.410825,58.27156 -0.965305,2.330723 a 31.500004,31.500004 0 0 0 7.943072,2.128338 l 0.329379,-2.501114 A 29.000002,29.000002 0 0 1 23.994066,59.512026 29.000002,29.000002 0 0 1 20.410825,58.27156 Z"
         inkscape:transform-center-y="3.9888429"
         inkscape:transform-center-x="-15.089226" /><path
         id="path48"
         style="fill:#d9d9d9;fill-opacity:1;stroke:none;stroke-width:0.029;stroke-linecap:round;stroke-linejoin:round;stroke-dasharray:none;stroke-opacity:1"
         inkscape:transform-center-x="-15.066832"
         d="m 35.278088,60.197112 a 29.000002,29.000002 0 0 1 -7.560116,0.0324 l -0.329381,2.501113 a 31.500004,31.500004 0 0 0 8.222938,-3.1e-4 z"
         inkscape:transform-center-y="4.1271353" /><path
         id="path49"
         style="fill:#d9d9d9;fill-opacity:1;stroke:none;stroke-width:0.029;stroke-linecap:round;stroke-linejoin:round;stroke-dasharray:none;stroke-opacity:1"
         d="m 42.570097,58.226286 a 29.000002,29.000002 0 0 1 -7.29201,1.970825 l 0.333442,2.533197 a 31.500004,31.500004 0 0 0 7.942972,-2.128096 z"
         inkscape:transform-center-y="4.0002986"
         inkscape:transform-center-x="-15.254796" /><path
         id="path50"
         style="fill:#d9d9d9;fill-opacity:1;stroke:none;stroke-width:0.029;stroke-linecap:round;stroke-linejoin:round;stroke-dasharray:none;stroke-opacity:1"
         d="m 49.110533,54.450163 a 29.000002,29.000002 0 0 1 -6.540436,3.776123 l 0.984404,2.375925 a 31.500004,31.500004 0 0 0 7.121441,-4.111566 z"
         inkscape:transform-center-y="4.015009"
         inkscape:transform-center-x="-15.274724" /><path
         id="path51"
         style="fill:#d9d9d9;fill-opacity:1;stroke:none;stroke-width:0.029;stroke-linecap:round;stroke-linejoin:round;stroke-dasharray:none;stroke-opacity:1"
         inkscape:transform-center-x="-15.289441"
         d="m 54.463321,49.120511 a 29.000002,29.000002 0 0 1 -5.352788,5.329652 l 1.565409,2.040483 a 31.500004,31.500004 0 0 0 5.814474,-5.814764 z"
         inkscape:transform-center-y="4.0349373" /><path
         id="path29"
         style="fill:#d9d9d9;fill-opacity:1;stroke:none;stroke-width:0.029;stroke-linecap:round;stroke-linejoin:round;stroke-dasharray:none;stroke-opacity:1"
         inkscape:transform-center-x="-13.60714"
         inkscape:transform-center-y="9.84523"
         d="m 58.271435,42.589458 a 29.000002,29.000002 0 0 1 -3.808109,6.531059 l 2.027092,1.555364 a 31.500004,31.500004 0 0 0 4.111741,-7.121117 z" /></g><path
       id="path119"
       style="color:#000000;fill:#f5f5f5;stroke-linecap:round;stroke-linejoin:round;-inkscape-stroke:none"
       d="M 31.032216 0.045992027 A 31.500002 31.500002 0 0 0 30.909226 0.058394372 C 30.650687 0.33975614 30.405369 0.63341757 30.18834 0.94929612 C 30.076545 0.68270856 29.950184 0.4241338 29.825055 0.16484783 A 31.500002 31.500002 0 0 0 29.741339 0.17311606 C 29.877967 0.45503025 30.013325 0.7377616 30.13408 1.0283611 C 29.783857 1.5512562 29.498555 2.1196348 29.277284 2.719214 A 29.000002 29.000002 0 0 1 29.361 2.7109458 C 29.571852 2.1476422 29.843976 1.6141595 30.170253 1.1193116 C 30.364722 1.5953087 30.535123 2.0831865 30.684951 2.5802044 A 29.000002 29.000002 0 0 1 30.763499 2.572453 C 30.606527 2.0500321 30.428982 1.5364296 30.222963 1.0371461 C 30.463041 0.68249295 30.739871 0.35697958 31.032216 0.045992027 z M 35.254698 0.36948651 C 34.896121 1.1418043 34.598714 1.9474447 34.371031 2.782776 A 29.000002 29.000002 0 0 1 34.450096 2.7905275 C 34.67869 1.9551118 34.977176 1.1496254 35.33738 0.37775474 A 31.500002 31.500002 0 0 0 35.254698 0.36948651 z M 20.851958 1.9709392 A 31.500002 31.500002 0 0 0 20.776511 1.9936769 C 20.855544 2.4932373 20.908286 3.0014891 20.908286 3.5232994 C 20.908286 3.5395871 20.907332 3.5556061 20.907252 3.5718752 C 20.172987 4.0516484 19.553365 4.6856635 19.072222 5.418791 A 29.000002 29.000002 0 0 1 19.210715 5.3443769 C 19.664699 4.6842069 20.237242 4.1117007 20.904668 3.6674766 C 20.900216 3.9729371 20.880292 4.274328 20.848341 4.572331 A 29.000002 29.000002 0 0 1 20.92999 4.5475263 C 20.961778 4.2411584 20.980787 3.9309378 20.983733 3.6168337 C 21.960413 2.9876651 23.122615 2.6210288 24.371124 2.6210288 C 25.113589 2.6210288 25.822412 2.7569406 26.48314 2.9941327 A 29.000002 29.000002 0 0 1 26.667108 2.9760459 C 25.954306 2.6987038 25.18188 2.5409303 24.371124 2.5409303 C 23.12625 2.5409303 21.966145 2.9014894 20.986317 3.5212323 C 20.986208 2.9923559 20.932602 2.4771545 20.851958 1.9709392 z M 44.394709 2.8468548 C 44.691508 3.6836897 44.861347 4.5807384 44.861347 5.5195601 C 44.861347 5.6496604 44.839658 5.7739361 44.833442 5.9024825 A 29.000002 29.000002 0 0 1 44.911473 5.9438236 C 44.919035 5.8016653 44.941446 5.6636231 44.941446 5.5195601 C 44.941446 4.602274 44.780688 3.7243994 44.499095 2.9026654 A 31.500002 31.500002 0 0 0 44.394709 2.8468548 z M 46.868977 4.1692548 C 47.274996 4.9772993 47.794621 5.7183639 48.416686 6.3624027 C 47.809043 6.4922743 47.217828 6.6653454 46.641084 6.8688318 A 29.000002 29.000002 0 0 1 46.735651 6.9189579 C 47.30253 6.7222395 47.882605 6.553462 48.479214 6.4280318 C 49.619629 7.5849948 51.074812 8.4292092 52.706347 8.8237513 C 52.224752 9.3415182 51.791448 9.9040889 51.402034 10.497551 A 29.000002 29.000002 0 0 1 51.462495 10.547677 C 51.859086 9.9421879 52.302788 9.3705637 52.795747 8.8444219 C 53.008223 8.8934699 53.227452 8.9231945 53.44532 8.9570765 A 31.500002 31.500002 0 0 0 53.321296 8.855274 C 53.167518 8.8289454 53.010863 8.8112296 52.859826 8.7772426 C 52.913787 8.7204982 52.977433 8.6738147 53.032425 8.6180791 A 31.500002 31.500002 0 0 0 52.97248 8.5689865 C 52.907941 8.6344762 52.833548 8.6897025 52.770426 8.756572 C 51.1516 8.3744045 49.705014 7.5474273 48.569648 6.4083948 C 49.061615 6.3082954 49.563574 6.2373727 50.072399 6.1887699 A 31.500002 31.500002 0 0 0 49.983515 6.1159061 C 49.483189 6.1665098 48.990129 6.2415172 48.506086 6.3417322 C 47.900515 5.721415 47.38965 5.0097737 46.987316 4.2328168 A 31.500002 31.500002 0 0 0 46.868977 4.1692548 z M 11.736235 7.1664881 A 31.500002 31.500002 0 0 0 11.637016 7.2476201 C 11.460347 7.9507513 11.194377 8.6182018 10.836549 9.2278611 C 10.245905 9.240634 9.6667253 9.2975449 9.0971197 9.3839239 A 31.500002 31.500002 0 0 0 9.017538 9.4805588 C 9.5977816 9.3884269 10.187412 9.3246741 10.79004 9.3095098 C 9.9540035 10.694149 8.6853991 11.787533 7.1721725 12.405445 C 7.0385073 12.345197 6.9180576 12.263176 6.7876998 12.197189 A 31.500002 31.500002 0 0 0 6.7355066 12.261268 C 6.8495269 12.319265 6.9543317 12.392131 7.0708867 12.445753 C 6.851281 12.531724 6.6264909 12.606963 6.3975427 12.672612 A 31.500002 31.500002 0 0 0 6.3158939 12.772348 C 6.6077504 12.693019 6.8951698 12.603007 7.1721725 12.491228 C 7.823664 12.782017 8.5141847 12.998444 9.2309617 13.142868 A 29.000002 29.000002 0 0 1 9.2867722 13.074655 C 8.5865215 12.936858 7.9113895 12.730192 7.2734583 12.451437 C 8.7870814 11.815284 10.051269 10.705007 10.883057 9.306926 C 10.965835 9.3054112 11.047964 9.3007248 11.131104 9.3007248 C 11.734653 9.3007248 12.327047 9.3450025 12.90929 9.4226812 A 29.000002 29.000002 0 0 1 12.989389 9.3565354 C 12.381253 9.2719752 11.76253 9.2206264 11.131104 9.2206264 C 11.063514 9.2206264 10.99692 9.2247974 10.929566 9.225794 C 11.295924 8.5924944 11.562816 7.8975987 11.736235 7.1664881 z M 5.3562625 13.941786 A 31.500002 31.500002 0 0 0 5.3035526 14.009482 C 6.169942 14.216332 6.9902056 14.533991 7.7664515 14.927255 A 29.000002 29.000002 0 0 1 7.8170944 14.86576 C 7.0412049 14.471014 6.2219309 14.151475 5.3562625 13.941786 z M 59.769999 17.888832 C 59.322103 18.317308 58.852134 18.723159 58.354581 19.09496 C 58.032713 18.929526 57.694731 18.792863 57.358259 18.653643 A 29.000002 29.000002 0 0 1 57.417687 18.765264 C 57.708273 18.888049 58.003242 19.003018 58.282751 19.145603 C 58.125429 19.261766 57.960396 19.367716 57.798543 19.477882 A 29.000002 29.000002 0 0 1 57.836266 19.548162 C 58.012179 19.428596 58.19071 19.312521 58.361299 19.18591 C 59.359335 19.703566 60.275901 20.35254 61.103251 21.098455 A 31.500002 31.500002 0 0 0 61.061393 20.958929 C 60.262709 20.252377 59.385294 19.632379 58.431579 19.134234 C 58.914742 18.77138 59.371279 18.375791 59.807723 17.959628 A 31.500002 31.500002 0 0 0 59.769999 17.888832 z M 2.8680422 18.565276 A 31.500002 31.500002 0 0 0 2.8292848 18.637623 C 3.4138847 19.263133 4.0547248 19.833257 4.7294274 20.362066 A 29.000002 29.000002 0 0 1 4.7671512 20.291786 C 4.0928102 19.7622 3.4516931 19.191997 2.8680422 18.565276 z M 60.226818 28.72383 A 29.000002 29.000002 0 0 1 60.235087 28.805479 C 61.110334 28.877291 61.961683 29.032969 62.780151 29.267466 A 31.500002 31.500002 0 0 0 62.771883 29.184267 C 61.952782 28.951472 61.102125 28.794658 60.226818 28.72383 z M 62.783768 29.307774 C 62.656979 29.470465 62.527709 29.630863 62.394128 29.787848 C 62.223084 29.794817 62.05167 29.800767 61.878914 29.800767 C 61.350249 29.800767 60.833025 29.756098 60.321903 29.691729 A 29.000002 29.000002 0 0 1 60.330171 29.774412 C 60.838702 29.837534 61.35328 29.880865 61.878914 29.880865 C 62.028018 29.880865 62.175486 29.874666 62.323331 29.869496 C 61.770756 30.509125 61.151738 31.086575 60.496053 31.620294 A 29.000002 29.000002 0 0 1 60.492435 31.728815 C 61.191352 31.165487 61.845982 30.548982 62.429268 29.866913 C 62.566796 29.860957 62.698106 29.833492 62.834411 29.822988 A 31.500002 31.500002 0 0 0 62.827693 29.750124 C 62.717537 29.758634 62.611064 29.77981 62.500065 29.785264 C 62.601095 29.665327 62.69771 29.541732 62.79462 29.418361 A 31.500002 31.500002 0 0 0 62.783768 29.307774 z M 0.13229167 30.158368 A 31.500002 31.500002 0 0 0 0.11988933 30.281874 C 0.44625639 30.75104 0.7914582 31.206156 1.1735718 31.629079 C 0.79921266 31.878716 0.43956596 32.148062 0.091467291 32.431097 A 31.500002 31.500002 0 0 0 0.10128581 32.527732 C 0.46331699 32.231115 0.83654645 31.948142 1.2273153 31.68799 C 1.664033 32.165645 2.1468073 32.597141 2.6484173 33.006773 A 29.000002 29.000002 0 0 1 2.6375653 32.897736 C 2.1648413 32.507103 1.7095522 32.096493 1.2955282 31.644582 C 1.6992222 31.379129 2.125978 31.147517 2.55695 30.923696 A 29.000002 29.000002 0 0 1 2.5662518 30.826544 C 2.1122067 31.060085 1.665366 31.3063 1.241268 31.585671 C 0.83699937 31.139082 0.47376369 30.656809 0.13229167 30.158368 z M 2.8096478 34.641298 C 2.5661751 35.177463 2.3776251 35.74373 2.2680787 36.339386 C 1.6475864 36.317924 1.0453311 36.231228 0.45423587 36.114077 A 31.500002 31.500002 0 0 0 0.4625041 36.195209 C 1.0467256 36.309879 1.6414431 36.395635 2.2541261 36.417418 C 2.1835676 36.825915 2.1445721 37.245026 2.1445721 37.673672 C 2.1445721 39.157017 2.5858652 40.536985 3.3429486 41.691515 C 3.1177679 42.600197 2.9705926 43.53906 2.9031821 44.500129 A 31.500002 31.500002 0 0 0 2.9724286 44.629837 C 3.0336882 43.656098 3.180447 42.705644 3.4039268 41.785049 C 3.910546 42.532623 4.5537731 43.178799 5.2942508 43.69501 A 29.000002 29.000002 0 0 1 5.210535 43.53843 C 4.5124195 43.028719 3.906919 42.399371 3.4287315 41.677562 C 3.5679242 41.120693 3.7386104 40.576733 3.9330935 40.04407 A 29.000002 29.000002 0 0 1 3.8953697 39.920563 C 3.693079 40.462645 3.5130449 41.015395 3.3682701 41.582994 C 2.6454275 40.454414 2.2246705 39.113567 2.2246705 37.673672 C 2.2246705 37.245584 2.2636902 36.827185 2.3347414 36.419485 C 2.44504 36.422638 2.5549266 36.427753 2.6659873 36.427753 C 2.7731127 36.427753 2.8778979 36.418288 2.9843141 36.41535 A 29.000002 29.000002 0 0 1 2.9765627 36.337319 C 2.8726874 36.340162 2.7705537 36.349721 2.6659873 36.349721 C 2.5595773 36.349721 2.454399 36.344368 2.348694 36.341453 C 2.4487551 35.802282 2.6129124 35.286578 2.824634 34.796328 A 29.000002 29.000002 0 0 1 2.8096478 34.641298 z M 59.804105 37.767206 A 29.000002 29.000002 0 0 1 59.76173 37.940839 C 59.865963 38.481908 59.921927 39.039959 59.921927 39.611538 C 59.921927 40.324557 59.834977 41.016875 59.674914 41.680662 C 59.246324 41.970806 58.794135 42.227015 58.331327 42.465628 A 29.000002 29.000002 0 0 1 58.287919 42.575182 C 58.756457 42.337339 59.214755 42.082357 59.649076 41.792284 C 59.114892 43.886946 57.821531 45.670001 56.088053 46.858641 A 29.000002 29.000002 0 0 1 55.974365 47.031757 C 57.826948 45.818742 59.204095 43.940185 59.745711 41.727171 C 60.432001 41.260005 61.055943 40.713723 61.641202 40.128819 A 31.500002 31.500002 0 0 0 61.690295 39.967072 C 61.100831 40.569546 60.4689 41.130489 59.773099 41.610899 C 59.921249 40.967947 60.002026 40.299449 60.002026 39.611538 C 60.002026 38.978404 59.930347 38.362707 59.804105 37.767206 z M 7.5649134 47.828091 C 6.9539761 48.405948 6.4050572 49.043873 5.8936975 49.713248 A 31.500002 31.500002 0 0 0 5.9438236 49.773709 C 6.4544403 49.103847 7.0047965 48.467527 7.6155563 47.889586 A 29.000002 29.000002 0 0 1 7.5649134 47.828091 z M 54.625093 48.971691 A 29.000002 29.000002 0 0 1 54.52019 49.1107 C 54.353548 49.822877 54.155771 50.522625 53.898522 51.195328 C 53.767088 50.926653 53.620281 50.666841 53.459272 50.417081 A 29.000002 29.000002 0 0 1 53.405012 50.479092 C 53.572345 50.740719 53.724098 51.01325 53.858731 51.29558 C 53.580054 52.009907 53.253017 52.69922 52.87998 53.360054 C 52.401496 53.097884 51.9466 52.799404 51.506937 52.481554 A 29.000002 29.000002 0 0 1 51.451126 52.537365 C 51.896226 52.859581 52.356668 53.162211 52.841222 53.42775 C 52.281543 54.408133 51.615581 55.317608 50.8708 56.155749 A 31.500002 31.500002 0 0 0 51.232018 55.859126 C 51.85767 55.113485 52.424395 54.316296 52.909952 53.465474 C 53.162319 53.601821 53.420561 53.728476 53.682515 53.848396 A 31.500002 31.500002 0 0 0 53.748144 53.794136 C 53.476602 53.670868 53.209819 53.538813 52.948709 53.397777 C 53.310968 52.755864 53.629883 52.087037 53.90369 51.394799 C 54.134198 51.896797 54.303838 52.431097 54.420454 52.984883 A 31.500002 31.500002 0 0 0 54.486083 52.905301 C 54.362816 52.342686 54.184535 51.800664 53.944514 51.291963 C 54.23364 50.546099 54.447433 49.765873 54.625093 48.971691 z M 15.930812 55.902534 C 15.077079 56.375635 14.169477 56.760353 13.219349 57.050785 A 31.500002 31.500002 0 0 0 13.292213 57.110213 C 14.245771 56.814861 15.155579 56.424445 16.011944 55.945942 A 29.000002 29.000002 0 0 1 15.930812 55.902534 z M 45.812194 56.703519 A 29.000002 29.000002 0 0 1 45.678868 56.77845 C 44.895669 58.249967 43.806837 59.534236 42.485265 60.531709 C 41.887805 60.075789 41.369079 59.526079 40.930837 58.914754 A 29.000002 29.000002 0 0 1 40.851256 58.940075 C 41.29293 59.560222 41.816683 60.117761 42.420152 60.580802 C 42.076298 60.836494 41.70771 61.059123 41.335464 61.275333 A 31.500002 31.500002 0 0 0 41.637771 61.183349 C 41.925505 61.0066 42.21559 60.832877 42.485265 60.631445 C 42.581841 60.703907 42.684865 60.767776 42.784988 60.835567 A 31.500002 31.500002 0 0 0 42.882656 60.805594 C 42.771245 60.731389 42.656485 60.661785 42.549343 60.581836 C 43.906326 59.553251 45.023368 58.227052 45.812194 56.703519 z M 26.951845 60.052152 C 25.643968 60.751362 24.231725 61.27858 22.742282 61.602445 A 31.500002 31.500002 0 0 0 22.895245 61.648437 C 24.380838 61.311914 25.788865 60.775003 27.091888 60.066105 A 29.000002 29.000002 0 0 1 26.951845 60.052152 z M 28.264943 60.18186 C 29.721189 61.413045 31.475157 62.302682 33.419151 62.685066 C 33.409009 62.728835 33.394004 62.770631 33.383494 62.814258 A 31.500002 31.500002 0 0 0 33.466176 62.805989 C 33.474865 62.769641 33.487715 62.734948 33.496149 62.698502 C 33.638582 62.725508 33.785536 62.738646 33.929714 62.760514 A 31.500002 31.500002 0 0 0 34.26406 62.727441 C 34.012575 62.696434 33.760517 62.667066 33.514235 62.620471 C 33.640773 62.06051 33.738543 61.489925 33.803107 60.908947 C 35.370175 61.41134 37.03951 61.685644 38.773346 61.685644 C 39.266765 61.685644 39.7524 61.65366 40.234239 61.609163 A 31.500002 31.500002 0 0 0 40.637315 61.487207 C 40.024827 61.558399 39.404871 61.605546 38.773346 61.605546 C 37.042752 61.605546 35.376832 61.331502 33.813442 60.828849 C 33.82851 60.686549 33.825343 60.539204 33.836696 60.3958 A 29.000002 29.000002 0 0 1 33.759182 60.403552 C 33.748626 60.535779 33.751749 60.671709 33.737994 60.803011 C 33.427552 60.701492 33.129772 60.574155 32.827972 60.454711 A 29.000002 29.000002 0 0 1 32.628501 60.461429 C 32.991122 60.609845 33.352296 60.76124 33.727659 60.883626 C 33.663266 61.468763 33.564779 62.0433 33.437238 62.607035 C 31.54496 62.235505 29.834982 61.379016 28.405503 60.195296 A 29.000002 29.000002 0 0 1 28.264943 60.18186 z " /><g
       id="g169"
       transform="translate(0.08404416,0.00933824)"
       style="fill:#b3b3b3"><path
         id="path146"
         style="fill:#b3b3b3;stroke-width:0.3;stroke-linecap:round;stroke-linejoin:round"
         d="M 31.000032,0.25008254 V 2.2499606 h 0.125009 V 1.2475805 c 0.487945,-0.03234 0.874945,-0.43918696 0.874945,-0.93512496 v -0.06225 h -0.125132 a 0.74968781,0.86224446 0 0 1 -0.03259,0.251571 c -0.02132,0.08882 -0.05694,0.17156 -0.104501,0.245714 a 0.74968781,0.86224446 0 0 1 -0.0016,0.0024 0.74968781,0.86224446 0 0 1 -0.610886,0.36252696 V 0.99694054 c 0.34964,-0.03189 0.62468,-0.326795 0.62468,-0.684529 v -0.06225 h -0.139878 a 0.48483745,0.59881934 0 0 1 -0.01221,0.133537 c -0.01328,0.09339 -0.04777,0.177712 -0.09901,0.248276 a 0.48483745,0.59881934 0 0 1 -0.373571,0.217028 v -0.473726 -0.125115 h -2.44e-4 v -1.22e-4 z" /><path
         style="color:#000000;fill:#b3b3b3;stroke-width:1;stroke-linejoin:bevel;-inkscape-stroke:none"
         d="m 23.015037,1.4211904 -0.07146,0.077422 0.503039,1.8773686 0.120791,-0.032366 -0.477487,-1.7820075 0.815522,0.1463729 0.386265,1.4415592 0.120791,-0.032366 -0.396534,-1.4798852 -0.04933,-0.045057 z"
         id="path147" /><path
         id="path148"
         style="fill:#b3b3b3;fill-opacity:1;stroke:none;stroke-width:0.529164;stroke-linecap:round;stroke-linejoin:bevel;stroke-dasharray:none;stroke-opacity:1"
         d="m 15.442088,4.6866755 0.99994,1.731945 0.108248,-0.062497 -0.376504,-0.6521221 0.02031,-0.044422 0.433559,-0.9193862 -0.0679,-0.088072 L 15.69785,4.816678 15.66513,4.823008 15.550335,4.6241673 Z M 15.731295,4.9376078 16.462226,4.7979192 16.0973,5.5715468 Z" /><path
         id="path149"
         style="color:#000000;fill:#b3b3b3;stroke-width:0.999999;stroke-linejoin:bevel;-inkscape-stroke:none"
         d="M 9.1156738,9.6901786 9.0879669,9.794874 10.4636,11.170506 10.551984,11.082122 9.7329742,10.263113 10.63347,10.013751 10.600584,9.8933501 9.6313818,10.161526 9.2520421,9.7821875 10.152626,9.5327395 10.119658,9.4124175 Z" /><path
         style="color:#000000;fill:#b3b3b3;stroke-width:0.999999;stroke-linejoin:bevel;-inkscape-stroke:none"
         d="M 4.6046722,15.584098 5.0613703,16.81282 5.1361843,16.85116 6.3744889,16.518498 6.3420579,16.397527 5.1589864,16.715772 4.721625,15.54029 Z"
         id="path150" /><path
         style="color:#000000;fill:#b3b3b3;stroke-width:0.999999;stroke-linejoin:bevel;-inkscape-stroke:none"
         d="m 1.2120877,23.795314 0.019729,0.111763 1.8854171,0.505198 0.032345,-0.120739 -0.6973949,-0.186865 -0.1815107,-0.941089 -0.096914,-0.03934 z m 0.1813041,0.02566 0.7730206,-0.539207 0.1516406,0.786969 z"
         id="path151" /><path
         id="path152"
         style="color:#000000;fill:#b3b3b3;stroke-width:0.999999;-inkscape-stroke:none"
         d="M 0.24997839,31.999758 H 2.2499785 l 6.9e-6,-0.124996 H 1.0260599 l 0.450778,-0.749964 0.7731459,-10e-7 7.2e-6,-0.124995 -2.00001367,2e-6 -1.5e-7,0.124994 H 1.3312095 L 0.87969968,31.874762 H 0.24997763 Z" /><path
         id="path153"
         style="color:#000000;fill:#b3b3b3;stroke-width:1;-inkscape-stroke:none"
         d="M 1.3310005,39.648205 1.8363356,39.512801 1.6846317,39.93231 1.8020676,39.974896 1.9834795,39.473374 3.2627354,39.1306 3.2303854,39.00987 2.0353122,39.330083 2.1870164,38.910574 2.0694605,38.86803 1.8881657,39.369521 1.2986473,39.527479 Z" /><path
         id="path154"
         style="color:#000000;fill:#b3b3b3;stroke-width:1;stroke-linejoin:bevel;-inkscape-stroke:none"
         d="m 4.4173861,47.09131 0.85258,0.129625 0.069169,-0.04351 L 5.568911,46.422891 5.449195,46.386465 5.2354448,47.08917 4.436075,46.967724 Z m 0.6187082,-0.264465 0.1196035,0.03652 0.2137475,-0.702709 0.7993696,0.121452 0.019088,-0.123904 -0.853003,-0.129383 -0.069115,0.0436 z" /><path
         style="color:#000000;fill:#b3b3b3;stroke-width:1;stroke-linejoin:bevel;-inkscape-stroke:none"
         d="m 9.3759053,53.56989 0.1060401,0.05319 1.2363616,-1.236359 -0.0492,0.514496 0.124301,0.01209 0.06615,-0.688064 -0.106694,-0.04994 -1.2262489,1.226248 0.083778,-0.577788 -0.1236473,-0.01796 z"
         id="path155" /><path
         style="color:#000000;fill:#b3b3b3;stroke-width:1;stroke-linejoin:bevel;-inkscape-stroke:none"
         d="m 15.532991,58.365628 0.644434,-0.328972 0.03076,0.718263 0.116521,0.02892 0.966492,-1.674016 -0.08392,-0.08628 -0.65039,0.355896 -0.02314,-0.745294 -0.124904,0.0041 0.02637,0.846771 0.09255,0.05289 0.543739,-0.297612 -0.747361,1.294466 -0.0256,-0.600754 -0.09088,-0.05302 -0.731452,0.373553 z"
         id="path156" /><path
         id="path157"
         style="color:#000000;fill:#b3b3b3;stroke-width:0.999999;-inkscape-stroke:none"
         d="m 23.472311,61.701139 0.140335,-0.523728 0.221341,0.488835 0.114153,-0.05155 -0.284469,-0.627697 0.326251,-1.217592 -0.120742,-0.03235 -0.328932,1.227615 -0.557866,0.390743 0.0719,0.102412 0.435622,-0.305223 -0.138311,0.516182 z" /><path
         style="color:#000000;fill:#b3b3b3;stroke-width:0.999999;stroke-linejoin:bevel;-inkscape-stroke:none"
         d="m 31.076323,62.749758 0.922467,-0.6957 -0.0092,-0.105645 -0.836217,-0.434122 0.846364,-0.666174 -0.07748,-0.09826 -0.922466,0.72615 0.01018,0.104258 0.833907,0.433202 -0.843135,0.636649 z"
         id="path158" /><path
         id="path159"
         style="color:#000000;fill:#b3b3b3;stroke-width:1;stroke-linejoin:bevel;-inkscape-stroke:none"
         d="m 39.618998,61.676618 0.312554,-0.64062 -0.112616,-0.05486 -0.237142,0.48736 -0.463082,-1.728246 -0.120688,0.03234 0.461693,1.723057 -0.42199,-0.309984 -0.07434,0.100651 0.562494,0.413357 z" /><path
         style="color:#000000;fill:#b3b3b3;stroke-width:1;stroke-linejoin:bevel;-inkscape-stroke:none"
         d="m 47.472984,58.362063 0.05914,-0.09324 -0.947364,-1.640879 -0.108907,5.46e-4 -0.510736,0.918679 0.06056,0.09289 0.822597,-0.07859 -0.512274,0.606859 0.04274,0.102646 z m -0.108294,-0.134048 -0.854958,-0.07159 0.483118,-0.572454 z m -0.460415,-0.797466 -0.771859,0.07327 0.399557,-0.718115 z"
         id="path160" /><path
         style="color:#000000;fill:#b3b3b3;stroke-width:1;stroke-linejoin:bevel;-inkscape-stroke:none"
         d="m 53.870064,53.323714 0.05518,-0.105372 -1.389032,-1.389029 -0.08843,0.08842 1.247779,1.24777 -0.558861,-0.101399 -0.07277,0.07276 0.101399,0.558862 -1.247776,-1.24778 -0.08844,0.08842 1.389029,1.389032 0.105708,-0.05549 -0.120634,-0.666849 z"
         id="path161" /><path
         id="path162"
         style="color:#000000;fill:#b3b3b3;stroke-width:1;stroke-linejoin:bevel;-inkscape-stroke:none"
         d="m 58.756226,46.790257 0.02603,-0.116054 -1.701184,-0.982179 -0.0625,0.108265 1.528138,0.88227 -0.478095,0.03955 -0.204699,-0.433487 -0.189432,-0.109372 0.2805,0.594658 -0.655512,0.05439 -0.65582,-0.378641 -0.06256,0.108353 1.701186,0.982179 0.08776,-0.08098 -0.289136,-0.612897 z m -0.584463,0.541656 -0.682356,-0.39396 0.477653,-0.03953 z" /><path
         style="color:#000000;fill:#b3b3b3;stroke-width:0.999999;stroke-linejoin:bevel;-inkscape-stroke:none"
         d="m 61.790071,39.195577 -0.02835,-0.104527 -1.879181,-0.503525 -0.03234,0.120729 1.775798,0.475824 -0.655221,0.66625 0.08874,0.08775 z"
         id="path163" /><path
         id="path164"
         style="color:#000000;fill:#b3b3b3;stroke-width:1;stroke-linejoin:bevel;-inkscape-stroke:none"
         d="m 62.749723,31.099165 -0.08534,-0.09128 -0.433567,0.406358 -0.441623,-0.414174 -0.0858,4.93e-4 -0.433446,0.413067 -0.433811,-0.413558 -0.08632,0.09042 0.429546,0.409393 -0.429537,0.409285 0.08629,0.09082 0.43381,-0.413673 0.433442,0.41319 0.08581,4.97e-4 0.44175,-0.414286 0.433443,0.406475 0.08534,-0.09128 -0.427463,-0.400861 z m -0.610193,0.400734 -0.392797,0.368148 -0.386208,-0.368149 0.386206,-0.368387 z" /><path
         id="path165"
         style="color:#000000;fill:#b3b3b3;stroke-width:0.999993;stroke-linejoin:bevel;-inkscape-stroke:none"
         d="m 61.586824,23.045756 -0.05265,-0.110985 -1.884105,0.50484 0.0045,0.122005 0.858726,0.164312 -0.661528,0.571653 0.0571,0.107905 1.884102,-0.504845 -0.0099,-0.122443 -1.049256,-0.11137 z m -0.345222,0.09675 -0.647312,0.471425 -0.648453,-0.124224 z m 0.194107,0.72441 -1.295763,0.347198 0.499473,-0.431761 z" /><path
         style="color:#000000;fill:#b3b3b3;stroke-width:1;stroke-linejoin:bevel;-inkscape-stroke:none"
         d="m 58.536377,15.828751 -0.889658,-0.0019 -0.05762,0.03858 -0.261601,0.631964 -0.678098,-0.08943 -0.01635,0.123949 0.645179,0.085 -0.248969,0.601244 0.115484,0.04783 0.261591,-0.631967 0.678099,0.08943 0.06223,-0.03062 0.443651,-0.770627 z m -0.107649,0.124484 -0.369365,0.640926 -0.603731,-0.07965 0.232895,-0.562666 z"
         id="path166" /><path
         style="color:#000000;fill:#b3b3b3;stroke-width:0.999999;stroke-linejoin:bevel;-inkscape-stroke:none"
         d="m 53.243434,9.0494725 -1.016164,1.0161635 0.04174,0.10698 1.049965,0.03869 -0.870997,0.871 0.08837,0.08837 0.972453,-0.972451 -0.04208,-0.106659 -1.049637,-0.03902 0.914711,-0.9147121 z"
         id="path167" /><path
         id="path168"
         style="color:#000000;fill:#b3b3b3;stroke-width:0.999999;-inkscape-stroke:none"
         d="M 47.070598,4.4054426 46.791499,4.8888528 46.412841,4.670233 46.350367,4.7784728 46.729023,4.99709 46.502228,5.3899083 46.123571,5.1712904 l -0.06247,0.1082474 0.378653,0.2186156 -0.369059,0.6392255 0.10825,0.062482 0.369049,-0.639226 0.37908,0.2188625 0.06249,-0.1082526 -0.379083,-0.2188608 0.226796,-0.3928169 0.379079,0.2188584 0.06247,-0.1082474 -0.379078,-0.2188607 0.279098,-0.4834101 z" /><path
         id="path169"
         style="color:#000000;fill:#b3b3b3;stroke-width:0.999999;-inkscape-stroke:none"
         d="m 39.527922,1.2987866 -0.201274,0.7511669 -0.246972,-0.4275939 -0.10829,0.062243 0.291052,0.5040999 -0.504076,0.2909231 0.06258,0.1083871 0.427712,-0.2469389 -0.23833,0.8894694 0.120738,0.032345 L 39.369266,2.3738927 39.615862,2.801006 39.724251,2.738425 39.433175,2.2344408 39.937281,1.9433997 39.874595,1.8353732 39.447513,2.0818454 39.64866,1.331153 Z" /></g><g
       id="g89"
       style="fill:#333333"><path
         id="rect1"
         style="fill:#333333;stroke-width:0.3;stroke-linecap:round;stroke-linejoin:round"
         d="M 31.000032,0.25008254 V 2.2499606 h 0.125009 V 1.2475805 c 0.487945,-0.03234 0.874945,-0.43918696 0.874945,-0.93512496 v -0.06225 h -0.125132 a 0.74968781,0.86224446 0 0 1 -0.03259,0.251571 c -0.02132,0.08882 -0.05694,0.17156 -0.104501,0.245714 a 0.74968781,0.86224446 0 0 1 -0.0016,0.0024 0.74968781,0.86224446 0 0 1 -0.610886,0.36252696 V 0.99694054 c 0.34964,-0.03189 0.62468,-0.326795 0.62468,-0.684529 v -0.06225 h -0.139878 a 0.48483745,0.59881934 0 0 1 -0.01221,0.133537 c -0.01328,0.09339 -0.04777,0.177712 -0.09901,0.248276 a 0.48483745,0.59881934 0 0 1 -0.373571,0.217028 v -0.473726 -0.125115 h -2.44e-4 v -1.22e-4 z" /><path
         style="color:#000000;fill:#333333;stroke-width:1;stroke-linejoin:bevel;-inkscape-stroke:none"
         d="m 23.015037,1.4211904 -0.07146,0.077422 0.503039,1.8773686 0.120791,-0.032366 -0.477487,-1.7820075 0.815522,0.1463729 0.386265,1.4415592 0.120791,-0.032366 -0.396534,-1.4798852 -0.04933,-0.045057 z"
         id="path6" /><path
         id="rect7"
         style="fill:#333333;fill-opacity:1;stroke:none;stroke-width:0.529164;stroke-linecap:round;stroke-linejoin:bevel;stroke-dasharray:none;stroke-opacity:1"
         d="m 15.442088,4.6866755 0.99994,1.731945 0.108248,-0.062497 -0.376504,-0.6521221 0.02031,-0.044422 0.433559,-0.9193862 -0.0679,-0.088072 -0.861891,0.1645568 -0.03272,0.00633 -0.114795,-0.1988407 z M 15.731295,4.9376078 16.462226,4.7979192 16.0973,5.5715468 Z" /><path
         id="path9"
         style="color:#000000;fill:#333333;stroke-width:0.999999;stroke-linejoin:bevel;-inkscape-stroke:none"
         d="M 9.1156738,9.6901786 9.0879669,9.794874 10.4636,11.170506 10.551984,11.082122 9.7329742,10.263113 10.63347,10.013751 10.600584,9.8933501 9.6313818,10.161526 9.2520421,9.7821875 10.152626,9.5327395 10.119658,9.4124175 Z" /><path
         style="color:#000000;fill:#333333;stroke-width:0.999999;stroke-linejoin:bevel;-inkscape-stroke:none"
         d="m 4.6046722,15.584098 0.4566981,1.228722 0.074814,0.03834 1.2383046,-0.332662 -0.032431,-0.120971 -1.1830715,0.318245 -0.4373614,-1.175482 z"
         id="path11" /><path
         style="color:#000000;fill:#333333;stroke-width:0.999999;stroke-linejoin:bevel;-inkscape-stroke:none"
         d="m 1.2120877,23.795314 0.019729,0.111763 1.8854171,0.505198 0.032345,-0.120739 -0.6973949,-0.186865 -0.1815107,-0.941089 -0.096914,-0.03934 z m 0.1813041,0.02566 0.7730206,-0.539207 0.1516406,0.786969 z"
         id="path12" /><path
         id="path13"
         style="color:#000000;fill:#333333;stroke-width:0.999999;-inkscape-stroke:none"
         d="m 0.24997839,31.999758 2.00000011,0 6.9e-6,-0.124996 -1.2239255,0 0.450778,-0.749964 0.7731459,-10e-7 7.2e-6,-0.124995 -2.00001367,2e-6 -1.5e-7,0.124994 1.08123232,0 -0.45150982,0.749964 -0.62972205,0 z" /><path
         id="path16"
         style="color:#000000;fill:#333333;stroke-width:1;-inkscape-stroke:none"
         d="M 1.3310005,39.648205 1.8363356,39.512801 1.6846317,39.93231 1.8020676,39.974896 1.9834795,39.473374 3.2627354,39.1306 3.2303854,39.00987 2.0353122,39.330083 2.1870164,38.910574 2.0694605,38.86803 1.8881657,39.369521 1.2986473,39.527479 Z" /><path
         id="path18"
         style="color:#000000;fill:#333333;stroke-width:1;stroke-linejoin:bevel;-inkscape-stroke:none"
         d="m 4.4173861,47.09131 0.85258,0.129625 0.069169,-0.04351 L 5.568911,46.422891 5.449195,46.386465 5.2354448,47.08917 4.436075,46.967724 Z m 0.6187082,-0.264465 0.1196035,0.03652 0.2137475,-0.702709 0.7993696,0.121452 0.019088,-0.123904 -0.853003,-0.129383 -0.069115,0.0436 z" /><path
         style="color:#000000;fill:#333333;stroke-width:1;stroke-linejoin:bevel;-inkscape-stroke:none"
         d="m 9.3759053,53.56989 0.1060401,0.05319 1.2363616,-1.236359 -0.0492,0.514496 0.124301,0.01209 0.06615,-0.688064 -0.106694,-0.04994 -1.2262489,1.226248 0.083778,-0.577788 -0.1236473,-0.01796 z"
         id="path20" /><path
         style="color:#000000;fill:#333333;stroke-width:1;stroke-linejoin:bevel;-inkscape-stroke:none"
         d="m 15.532991,58.365628 0.644434,-0.328972 0.03076,0.718263 0.116521,0.02892 0.966492,-1.674016 -0.08392,-0.08628 -0.65039,0.355896 -0.02314,-0.745294 -0.124904,0.0041 0.02637,0.846771 0.09255,0.05289 0.543739,-0.297612 -0.747361,1.294466 -0.0256,-0.600754 -0.09088,-0.05302 -0.731452,0.373553 z"
         id="path21" /><path
         id="path22"
         style="color:#000000;fill:#333333;stroke-width:0.999999;-inkscape-stroke:none"
         d="m 23.472311,61.701139 0.140335,-0.523728 0.221341,0.488835 0.114153,-0.05155 -0.284469,-0.627697 0.326251,-1.217592 -0.120742,-0.03235 -0.328932,1.227615 -0.557866,0.390743 0.0719,0.102412 0.435622,-0.305223 -0.138311,0.516182 z" /><path
         style="color:#000000;fill:#333333;stroke-width:0.999999;stroke-linejoin:bevel;-inkscape-stroke:none"
         d="m 31.076323,62.749758 0.922467,-0.6957 -0.0092,-0.105645 -0.836217,-0.434122 0.846364,-0.666174 -0.07748,-0.09826 -0.922466,0.72615 0.01018,0.104258 0.833907,0.433202 -0.843135,0.636649 z"
         id="path24" /><path
         id="path25"
         style="color:#000000;fill:#333333;stroke-width:1;stroke-linejoin:bevel;-inkscape-stroke:none"
         d="m 39.618998,61.676618 0.312554,-0.64062 -0.112616,-0.05486 -0.237142,0.48736 -0.463082,-1.728246 -0.120688,0.03234 0.461693,1.723057 -0.42199,-0.309984 -0.07434,0.100651 0.562494,0.413357 z" /><path
         style="color:#000000;fill:#333333;stroke-width:1;stroke-linejoin:bevel;-inkscape-stroke:none"
         d="m 47.472984,58.362063 0.05914,-0.09324 -0.947364,-1.640879 -0.108907,5.46e-4 -0.510736,0.918679 0.06056,0.09289 0.822597,-0.07859 -0.512274,0.606859 0.04274,0.102646 z m -0.108294,-0.134048 -0.854958,-0.07159 0.483118,-0.572454 z m -0.460415,-0.797466 -0.771859,0.07327 0.399557,-0.718115 z"
         id="path27" /><path
         style="color:#000000;fill:#333333;stroke-width:1;stroke-linejoin:bevel;-inkscape-stroke:none"
         d="m 53.870064,53.323714 0.05518,-0.105372 -1.389032,-1.389029 -0.08843,0.08842 1.247779,1.24777 -0.558861,-0.101399 -0.07277,0.07276 0.101399,0.558862 -1.247776,-1.24778 -0.08844,0.08842 1.389029,1.389032 0.105708,-0.05549 -0.120634,-0.666849 z"
         id="path28-3" /><path
         id="path31-5"
         style="color:#000000;fill:#333333;stroke-width:1;stroke-linejoin:bevel;-inkscape-stroke:none"
         d="m 58.756226,46.790257 0.02603,-0.116054 -1.701184,-0.982179 -0.0625,0.108265 1.528138,0.88227 -0.478095,0.03955 -0.204699,-0.433487 -0.189432,-0.109372 0.2805,0.594658 -0.655512,0.05439 -0.65582,-0.378641 -0.06256,0.108353 1.701186,0.982179 0.08776,-0.08098 -0.289136,-0.612897 z m -0.584463,0.541656 -0.682356,-0.39396 0.477653,-0.03953 z" /><path
         style="color:#000000;fill:#333333;stroke-width:0.999999;stroke-linejoin:bevel;-inkscape-stroke:none"
         d="m 61.790071,39.195577 -0.02835,-0.104527 -1.879181,-0.503525 -0.03234,0.120729 1.775798,0.475824 -0.655221,0.66625 0.08874,0.08775 z"
         id="path32-6" /><path
         id="path33-2"
         style="color:#000000;fill:#333333;stroke-width:1;stroke-linejoin:bevel;-inkscape-stroke:none"
         d="m 62.749723,31.099165 -0.08534,-0.09128 -0.433567,0.406358 -0.441623,-0.414174 -0.0858,4.93e-4 -0.433446,0.413067 -0.433811,-0.413558 -0.08632,0.09042 0.429546,0.409393 -0.429537,0.409285 0.08629,0.09082 0.43381,-0.413673 0.433442,0.41319 0.08581,4.97e-4 0.44175,-0.414286 0.433443,0.406475 0.08534,-0.09128 -0.427463,-0.400861 z m -0.610193,0.400734 -0.392797,0.368148 -0.386208,-0.368149 0.386206,-0.368387 z" /><path
         id="path38-9"
         style="color:#000000;fill:#333333;stroke-width:0.999993;stroke-linejoin:bevel;-inkscape-stroke:none"
         d="m 61.586824,23.045756 -0.05265,-0.110985 -1.884105,0.50484 0.0045,0.122005 0.858726,0.164312 -0.661528,0.571653 0.0571,0.107905 1.884102,-0.504845 -0.0099,-0.122443 -1.049256,-0.11137 z m -0.345222,0.09675 -0.647312,0.471425 -0.648453,-0.124224 z m 0.194107,0.72441 -1.295763,0.347198 0.499473,-0.431761 z" /><path
         style="color:#000000;fill:#333333;stroke-width:1;stroke-linejoin:bevel;-inkscape-stroke:none"
         d="m 58.536377,15.828751 -0.889658,-0.0019 -0.05762,0.03858 -0.261601,0.631964 -0.678098,-0.08943 -0.01635,0.123949 0.645179,0.085 -0.248969,0.601244 0.115484,0.04783 0.261591,-0.631967 0.678099,0.08943 0.06223,-0.03062 0.443651,-0.770627 z m -0.107649,0.124484 -0.369365,0.640926 -0.603731,-0.07965 0.232895,-0.562666 z"
         id="path39-1" /><path
         style="color:#000000;fill:#333333;stroke-width:0.999999;stroke-linejoin:bevel;-inkscape-stroke:none"
         d="m 53.243434,9.0494725 -1.016164,1.0161635 0.04174,0.10698 1.049965,0.03869 -0.870997,0.871 0.08837,0.08837 0.972453,-0.972451 -0.04208,-0.106659 -1.049637,-0.03902 0.914711,-0.9147121 z"
         id="path1" /><path
         id="path2"
         style="color:#000000;fill:#333333;stroke-width:0.999999;-inkscape-stroke:none"
         d="M 47.070598,4.4054426 46.791499,4.8888528 46.412841,4.670233 46.350367,4.7784728 46.729023,4.99709 46.502228,5.3899083 46.123571,5.1712904 l -0.06247,0.1082474 0.378653,0.2186156 -0.369059,0.6392255 0.10825,0.062482 0.369049,-0.639226 0.37908,0.2188625 0.06249,-0.1082526 -0.379083,-0.2188608 0.226796,-0.3928169 0.379079,0.2188584 0.06247,-0.1082474 -0.379078,-0.2188607 0.279098,-0.4834101 z" /><path
         id="path3"
         style="color:#000000;fill:#333333;stroke-width:0.999999;-inkscape-stroke:none"
         d="m 39.527922,1.2987866 -0.201274,0.7511669 -0.246972,-0.4275939 -0.10829,0.062243 0.291052,0.5040999 -0.504076,0.2909231 0.06258,0.1083871 0.427712,-0.2469389 -0.23833,0.8894694 0.120738,0.032345 0.238204,-0.8889955 0.246596,0.4271133 0.108389,-0.062581 L 39.433175,2.2344408 39.937281,1.9433997 39.874595,1.8353732 39.447513,2.0818454 39.64866,1.331153 Z" /></g></g></svg>
